  0
SECTION
  2
HEADER
  9
$ACADVER
  1
AC1014
  9
$HANDSEED
  5
FFFF
  9
$MEASUREMENT
 70
     1
  0
ENDSEC
  0
SECTION
  2
TABLES
  0
TABLE
  2
VPORT
  5
8
330
0
100
AcDbSymbolTable
 70
     4
  0
VPORT
  5
2E
330
8
100
AcDbSymbolTableRecord
100
AcDbViewportTableRecord
  2
*ACTIVE
 70
     0
 10
0.0
 20
0.0
 11
1.0
 21
1.0
 12
210.0
 22
148.5
 13
0.0
 23
0.0
 14
10.0
 24
10.0
 15
10.0
 25
10.0
 16
0.0
 26
0.0
 36
1.0
 17
0.0
 27
0.0
 37
0.0
 40
341.0
 41
1.24
 42
50.0
 43
0.0
 44
0.0
 50
0.0
 51
0.0
 71
     0
 72
   100
 73
     1
 74
     3
 75
     0
 76
     0
 77
     0
 78
     0
  0
ENDTAB
  0
TABLE
  2
LTYPE
  5
5
330
0
100
AcDbSymbolTable
 70
     1
  0
LTYPE
  5
14
330
5
100
AcDbSymbolTableRecord
100
AcDbLinetypeTableRecord
  2
BYBLOCK
 70
     0
  3

 72
    65
 73
     0
 40
0.0
  0
LTYPE
  5
15
330
5
100
AcDbSymbolTableRecord
100
AcDbLinetypeTableRecord
  2
BYLAYER
 70
     0
  3

 72
    65
 73
     0
 40
0.0
  0
LTYPE
  5
16
330
5
100
AcDbSymbolTableRecord
100
AcDbLinetypeTableRecord
  2
CONTINUOUS
 70
     0
  3
Solid line
 72
    65
 73
     0
 40
0.0
  0
ENDTAB
  0
TABLE
  2
LAYER
  5
2
100
AcDbSymbolTable
 70
2
  0
LAYER
  5
50
100
AcDbSymbolTableRecord
100
AcDbLayerTableRecord
  2
0
 70
0
  6
CONTINUOUS
  0
LAYER
  5
51
100
AcDbSymbolTableRecord
100
AcDbLayerTableRecord
  2
Layer_1
 70
0
  6
CONTINUOUS
  0
ENDTAB
  0
TABLE
  2
STYLE
  5
3
330
0
100
AcDbSymbolTable
 70
     1
  0
STYLE
  5
11
330
3
100
AcDbSymbolTableRecord
100
AcDbTextStyleTableRecord
  2
STANDARD
 70
     0
 40
0.0
 41
1.0
 50
0.0
 71
     0
 42
2.5
  3
txt
  4

  0
ENDTAB
  0
TABLE
  2
VIEW
  5
6
330
0
100
AcDbSymbolTable
 70
     0
  0
ENDTAB
  0
TABLE
  2
UCS
  5
7
330
0
100
AcDbSymbolTable
 70
     0
  0
ENDTAB
  0
TABLE
  2
APPID
  5
9
330
0
100
AcDbSymbolTable
 70
     2
  0
APPID
  5
12
330
9
100
AcDbSymbolTableRecord
100
AcDbRegAppTableRecord
  2
ACAD
 70
     0
  0
ENDTAB
  0
TABLE
  2
DIMSTYLE
  5
A
330
0
100
AcDbSymbolTable
 70
     1
  0
DIMSTYLE
105
27
330
A
100
AcDbSymbolTableRecord
100
AcDbDimStyleTableRecord
  2
ISO-25
 70
     0
  3

  4

  5

  6

  7

 40
1.0
 41
2.5
 42
0.625
 43
3.75
 44
1.25
 45
0.0
 46
0.0
 47
0.0
 48
0.0
140
2.5
141
2.5
142
0.0
143
0.03937007874016
144
1.0
145
0.0
146
1.0
147
0.625
 71
     0
 72
     0
 73
     0
 74
     0
 75
     0
 76
     0
 77
     1
 78
     8
170
     0
171
     3
172
     1
173
     0
174
     0
175
     0
176
     0
177
     0
178
     0
270
     2
271
     2
272
     2
273
     2
274
     3
340
11
275
     0
280
     0
281
     0
282
     0
283
     0
284
     8
285
     0
286
     0
287
     3
288
     0
  0
ENDTAB
  0
TABLE
  2
BLOCK_RECORD
  5
1
330
0
100
AcDbSymbolTable
 70
     1
  0
BLOCK_RECORD
  5
1F
330
1
100
AcDbSymbolTableRecord
100
AcDbBlockTableRecord
  2
*MODEL_SPACE
  0
BLOCK_RECORD
  5
1B
330
1
100
AcDbSymbolTableRecord
100
AcDbBlockTableRecord
  2
*PAPER_SPACE
  0
ENDTAB
  0
ENDSEC
  0
SECTION
  2
BLOCKS
  0
BLOCK
  5
20
330
1F
100
AcDbEntity
  8
0
100
AcDbBlockBegin
  2
*MODEL_SPACE
 70
     0
 10
0.0
 20
0.0
 30
0.0
  3
*MODEL_SPACE
  1

  0
ENDBLK
  5
21
330
1F
100
AcDbEntity
  8
0
100
AcDbBlockEnd
  0
BLOCK
  5
1C
330
1B
100
AcDbEntity
 67
     1
  8
0
100
AcDbBlockBegin
  2
*PAPER_SPACE
  1

  0
ENDBLK
  5
1D
330
1B
100
AcDbEntity
 67
     1
  8
0
100
AcDbBlockEnd
  0
ENDSEC
  0
SECTION
  2
ENTITIES
  0
LWPOLYLINE
  5
100
100
AcDbEntity
  8
Layer_1
 62
6
100
AcDbPolyline
 90
6
 70
0
 10
42.849999
 20
83.398813
 30
0.0
 10
78.000106
 20
83.398813
 30
0.0
 10
78.000106
 20
53.924230
 30
0.0
 10
42.849999
 20
53.924230
 30
0.0
 10
42.849999
 20
83.398813
 30
0.0
 10
42.849999
 20
83.398813
 30
0.0
  0
LWPOLYLINE
  5
101
100
AcDbEntity
  8
Layer_1
 62
6
100
AcDbPolyline
 90
223
 70
0
 10
11.149988
 20
112.273321
 30
0.0
 10
11.449990
 20
112.923491
 30
0.0
 10
11.199976
 20
113.598355
 30
0.0
 10
10.000003
 20
114.723363
 30
0.0
 10
9.874978
 20
115.048271
 30
0.0
 10
10.024979
 20
115.373532
 30
0.0
 10
13.775007
 20
119.098513
 30
0.0
 10
14.099986
 20
119.223396
 30
0.0
 10
14.425000
 20
119.098513
 30
0.0
 10
15.449992
 20
117.973505
 30
0.0
 10
16.124994
 20
117.698338
 30
0.0
 10
16.774994
 20
117.973505
 30
0.0
 10
17.049991
 20
118.648368
 30
0.0
 10
16.774994
 20
119.273491
 30
0.0
 10
15.649993
 20
120.348405
 30
0.0
 10
15.524993
 20
120.648266
 30
0.0
 10
15.674994
 20
120.998221
 30
0.0
 10
16.199991
 20
121.523507
 30
0.0
 10
16.499993
 20
121.623343
 30
0.0
 10
16.749993
 20
121.548202
 30
0.0
 10
20.449993
 20
119.573352
 30
0.0
 10
20.899993
 20
119.473516
 30
0.0
 10
21.399992
 20
119.648493
 30
0.0
 10
24.475004
 20
122.148277
 30
0.0
 10
25.849991
 20
122.898282
 30
0.0
 10
27.449979
 20
123.173449
 30
0.0
 10
28.750000
 20
123.023518
 30
0.0
 10
29.974986
 20
122.498232
 30
0.0
 10
31.799976
 20
121.648391
 30
0.0
 10
55.350009
 20
108.898296
 30
0.0
 10
61.674962
 20
108.898296
 30
0.0
 10
68.024962
 20
108.898296
 30
0.0
 10
91.549948
 20
121.648391
 30
0.0
 10
93.374868
 20
122.498232
 30
0.0
 10
94.600065
 20
123.023518
 30
0.0
 10
95.925098
 20
123.173449
 30
0.0
 10
97.499898
 20
122.898282
 30
0.0
 10
98.875026
 20
122.148277
 30
0.0
 10
101.949837
 20
119.648493
 30
0.0
 10
102.475123
 20
119.473516
 30
0.0
 10
102.924915
 20
119.573352
 30
0.0
 10
106.600154
 20
121.548202
 30
0.0
 10
106.849920
 20
121.623343
 30
0.0
 10
107.150134
 20
121.523507
 30
0.0
 10
107.675068
 20
120.998221
 30
0.0
 10
107.850045
 20
120.648266
 30
0.0
 10
107.725162
 20
120.348405
 30
0.0
 10
106.575106
 20
119.273491
 30
0.0
 10
106.324987
 20
118.648368
 30
0.0
 10
106.575106
 20
117.973505
 30
0.0
 10
107.249970
 20
117.698338
 30
0.0
 10
107.900140
 20
117.973505
 30
0.0
 10
108.950006
 20
119.098513
 30
0.0
 10
109.274915
 20
119.223396
 30
0.0
 10
109.599823
 20
119.098513
 30
0.0
 10
113.349851
 20
115.373532
 30
0.0
 10
113.500134
 20
115.048271
 30
0.0
 10
113.374898
 20
114.723363
 30
0.0
 10
112.150054
 20
113.598355
 30
0.0
 10
111.899934
 20
112.923491
 30
0.0
 10
112.200148
 20
112.273321
 30
0.0
 10
112.849965
 20
111.973460
 30
0.0
 10
113.524829
 20
112.223227
 30
0.0
 10
114.649837
 20
113.423377
 30
0.0
 10
115.000145
 20
113.548260
 30
0.0
 10
115.300006
 20
113.423377
 30
0.0
 10
119.050034
 20
109.698396
 30
0.0
 10
119.199965
 20
109.373488
 30
0.0
 10
119.075081
 20
109.048227
 30
0.0
 10
117.925026
 20
107.998360
 30
0.0
 10
117.649859
 20
107.348543
 30
0.0
 10
117.950073
 20
106.698374
 30
0.0
 10
118.599890
 20
106.423207
 30
0.0
 10
119.250059
 20
106.698374
 30
0.0
 10
120.324973
 20
107.823382
 30
0.0
 10
120.624834
 20
107.948266
 30
0.0
 10
120.975143
 20
107.773288
 30
0.0
 10
121.500076
 20
107.273402
 30
0.0
 10
121.599912
 20
106.973541
 30
0.0
 10
121.549818
 20
106.723421
 30
0.0
 10
119.549920
 20
103.048535
 30
0.0
 10
119.450084
 20
102.598391
 30
0.0
 10
119.600015
 20
102.098505
 30
0.0
 10
122.149893
 20
99.048388
 30
0.0
 10
122.899898
 20
97.673260
 30
0.0
 10
123.175065
 20
96.098460
 30
0.0
 10
123.025134
 20
94.798474
 30
0.0
 10
122.499848
 20
93.598324
 30
0.0
 10
121.624959
 20
91.749063
 30
0.0
 10
109.224820
 20
69.647535
 30
0.0
 10
109.224820
 20
61.699452
 30
0.0
 10
109.224820
 20
53.723146
 30
0.0
 10
121.650006
 20
31.572230
 30
0.0
 10
122.499848
 20
29.773063
 30
0.0
 10
123.025134
 20
28.573618
 30
0.0
 10
123.175065
 20
27.271868
 30
0.0
 10
122.899898
 20
25.698480
 30
0.0
 10
122.149893
 20
24.322646
 30
0.0
 10
119.600015
 20
21.274646
 30
0.0
 10
119.450084
 20
20.773702
 30
0.0
 10
119.549920
 20
20.322146
 30
0.0
 10
121.549818
 20
16.649730
 30
0.0
 10
121.599912
 20
16.399257
 30
0.0
 10
121.500076
 20
16.099396
 30
0.0
 10
120.975143
 20
15.598452
 30
0.0
 10
120.624834
 20
15.422063
 30
0.0
 10
120.324973
 20
15.549063
 30
0.0
 10
119.250059
 20
16.674424
 30
0.0
 10
118.599890
 20
16.949591
 30
0.0
 10
117.950073
 20
16.674424
 30
0.0
 10
117.649859
 20
16.021785
 30
0.0
 10
117.925026
 20
15.372674
 30
0.0
 10
119.075081
 20
14.324924
 30
0.0
 10
119.199965
 20
13.996841
 30
0.0
 10
119.050034
 20
13.672285
 30
0.0
 10
115.300006
 20
9.946952
 30
0.0
 10
115.000145
 20
9.823480
 30
0.0
 10
114.649837
 20
9.946952
 30
0.0
 10
113.524829
 20
11.149924
 30
0.0
 10
112.849965
 20
11.396868
 30
0.0
 10
112.200148
 20
11.097007
 30
0.0
 10
111.899934
 20
10.447896
 30
0.0
 10
112.150054
 20
9.774091
 30
0.0
 10
113.374898
 20
8.648730
 30
0.0
 10
113.500134
 20
8.324174
 30
0.0
 10
113.349851
 20
7.999618
 30
0.0
 10
109.599823
 20
4.274285
 30
0.0
 10
109.274915
 20
4.147285
 30
0.0
 10
108.950006
 20
4.274285
 30
0.0
 10
107.900140
 20
5.399646
 30
0.0
 10
107.249970
 20
5.674813
 30
0.0
 10
106.575106
 20
5.399646
 30
0.0
 10
106.324987
 20
4.722313
 30
0.0
 10
106.575106
 20
4.097896
 30
0.0
 10
107.725162
 20
3.021924
 30
0.0
 10
107.850045
 20
2.722063
 30
0.0
 10
107.675068
 20
2.372813
 30
0.0
 10
105.475145
 20
0.175007
 30
0.0
 10
94.400040
 20
0.175007
 30
0.0
 10
68.024962
 20
14.473091
 30
0.0
 10
61.674962
 20
14.473091
 30
0.0
 10
55.350009
 20
14.473091
 30
0.0
 10
28.975002
 20
0.175007
 30
0.0
 10
17.899992
 20
0.175007
 30
0.0
 10
15.699992
 20
2.372813
 30
0.0
 10
15.524993
 20
2.722063
 30
0.0
 10
15.649993
 20
3.021924
 30
0.0
 10
16.774994
 20
4.097896
 30
0.0
 10
17.049991
 20
4.722313
 30
0.0
 10
16.774994
 20
5.399646
 30
0.0
 10
16.124994
 20
5.674813
 30
0.0
 10
15.449992
 20
5.399646
 30
0.0
 10
14.425000
 20
4.274285
 30
0.0
 10
14.099986
 20
4.147285
 30
0.0
 10
13.775007
 20
4.274285
 30
0.0
 10
10.024979
 20
7.999618
 30
0.0
 10
9.874978
 20
8.324174
 30
0.0
 10
10.000003
 20
8.648730
 30
0.0
 10
11.199976
 20
9.774091
 30
0.0
 10
11.449990
 20
10.447896
 30
0.0
 10
11.175000
 20
11.097007
 30
0.0
 10
10.499995
 20
11.396868
 30
0.0
 10
9.850001
 20
11.149924
 30
0.0
 10
8.699981
 20
9.946952
 30
0.0
 10
8.375002
 20
9.823480
 30
0.0
 10
8.049988
 20
9.946952
 30
0.0
 10
4.299996
 20
13.672285
 30
0.0
 10
4.175006
 20
13.996841
 30
0.0
 10
4.299996
 20
14.324924
 30
0.0
 10
5.425004
 20
15.372674
 30
0.0
 10
5.699994
 20
16.021785
 30
0.0
 10
5.425004
 20
16.674424
 30
0.0
 10
4.749999
 20
16.949591
 30
0.0
 10
4.124983
 20
16.674424
 30
0.0
 10
3.049998
 20
15.549063
 30
0.0
 10
2.749996
 20
15.422063
 30
0.0
 10
2.374993
 20
15.598452
 30
0.0
 10
1.875001
 20
16.099396
 30
0.0
 10
1.749977
 20
16.399257
 30
0.0
 10
1.824977
 20
16.649730
 30
0.0
 10
3.800004
 20
20.322146
 30
0.0
 10
3.924993
 20
20.773702
 30
0.0
 10
3.749980
 20
21.274646
 30
0.0
 10
1.225008
 20
24.322646
 30
0.0
 10
0.475003
 20
25.698480
 30
0.0
 10
0.175000
 20
27.271868
 30
0.0
 10
0.349978
 20
28.573618
 30
0.0
 10
0.850005
 20
29.773063
 30
0.0
 10
1.725000
 20
31.572230
 30
0.0
 10
13.850008
 20
53.197507
 30
0.0
 10
20.074994
 20
53.197507
 30
0.0
 10
20.074994
 20
70.173174
 30
0.0
 10
13.850008
 20
70.173174
 30
0.0
 10
1.749977
 20
91.749063
 30
0.0
 10
0.850005
 20
93.598324
 30
0.0
 10
0.349978
 20
94.798474
 30
0.0
 10
0.175000
 20
96.098460
 30
0.0
 10
0.475003
 20
97.673260
 30
0.0
 10
1.225008
 20
99.048388
 30
0.0
 10
3.749980
 20
102.098505
 30
0.0
 10
3.924993
 20
102.598391
 30
0.0
 10
3.800004
 20
103.048535
 30
0.0
 10
1.824977
 20
106.723421
 30
0.0
 10
1.749977
 20
106.973541
 30
0.0
 10
1.875001
 20
107.273402
 30
0.0
 10
2.374993
 20
107.773288
 30
0.0
 10
2.749996
 20
107.948266
 30
0.0
 10
3.049998
 20
107.823382
 30
0.0
 10
4.124983
 20
106.698374
 30
0.0
 10
4.749999
 20
106.423207
 30
0.0
 10
5.425004
 20
106.698374
 30
0.0
 10
5.699994
 20
107.348543
 30
0.0
 10
5.425004
 20
107.998360
 30
0.0
 10
4.299996
 20
109.048227
 30
0.0
 10
4.175006
 20
109.373488
 30
0.0
 10
4.299996
 20
109.698396
 30
0.0
 10
8.049988
 20
113.423377
 30
0.0
 10
8.375002
 20
113.548260
 30
0.0
 10
8.699981
 20
113.423377
 30
0.0
 10
9.850001
 20
112.223227
 30
0.0
 10
10.499995
 20
111.973460
 30
0.0
 10
11.149988
 20
112.273321
 30
0.0
 10
11.149988
 20
112.273321
 30
0.0
  0
ENDSEC
  0
SECTION
  2
OBJECTS
  0
DICTIONARY
  5
C
330
0
100
AcDbDictionary
  3
ACAD_GROUP
350
D
  3
ACAD_MLINESTYLE
350
17
  0
DICTIONARY
  5
D
330
C
100
AcDbDictionary
  0
DICTIONARY
  5
1A
330
C
100
AcDbDictionary
  0
DICTIONARY
  5
17
330
C
100
AcDbDictionary
  3
STANDARD
350
18
  0
DICTIONARY
  5
19
330
C
100
AcDbDictionary
  0
ENDSEC
  0
EOF
