  0
SECTION
  2
HEADER
  9
$ACADVER
  1
AC1014
  9
$HANDSEED
  5
FFFF
  9
$MEASUREMENT
 70
     1
  0
ENDSEC
  0
SECTION
  2
TABLES
  0
TABLE
  2
VPORT
  5
8
330
0
100
AcDbSymbolTable
 70
     4
  0
VPORT
  5
2E
330
8
100
AcDbSymbolTableRecord
100
AcDbViewportTableRecord
  2
*ACTIVE
 70
     0
 10
0.0
 20
0.0
 11
1.0
 21
1.0
 12
210.0
 22
148.5
 13
0.0
 23
0.0
 14
10.0
 24
10.0
 15
10.0
 25
10.0
 16
0.0
 26
0.0
 36
1.0
 17
0.0
 27
0.0
 37
0.0
 40
341.0
 41
1.24
 42
50.0
 43
0.0
 44
0.0
 50
0.0
 51
0.0
 71
     0
 72
   100
 73
     1
 74
     3
 75
     0
 76
     0
 77
     0
 78
     0
  0
ENDTAB
  0
TABLE
  2
LTYPE
  5
5
330
0
100
AcDbSymbolTable
 70
     1
  0
LTYPE
  5
14
330
5
100
AcDbSymbolTableRecord
100
AcDbLinetypeTableRecord
  2
BYBLOCK
 70
     0
  3

 72
    65
 73
     0
 40
0.0
  0
LTYPE
  5
15
330
5
100
AcDbSymbolTableRecord
100
AcDbLinetypeTableRecord
  2
BYLAYER
 70
     0
  3

 72
    65
 73
     0
 40
0.0
  0
LTYPE
  5
16
330
5
100
AcDbSymbolTableRecord
100
AcDbLinetypeTableRecord
  2
CONTINUOUS
 70
     0
  3
Solid line
 72
    65
 73
     0
 40
0.0
  0
ENDTAB
  0
TABLE
  2
LAYER
  5
2
100
AcDbSymbolTable
 70
2
  0
LAYER
  5
50
100
AcDbSymbolTableRecord
100
AcDbLayerTableRecord
  2
0
 70
0
  6
CONTINUOUS
  0
LAYER
  5
51
100
AcDbSymbolTableRecord
100
AcDbLayerTableRecord
  2
LAYER_1
 70
0
  6
CONTINUOUS
  0
ENDTAB
  0
TABLE
  2
STYLE
  5
3
330
0
100
AcDbSymbolTable
 70
     1
  0
STYLE
  5
11
330
3
100
AcDbSymbolTableRecord
100
AcDbTextStyleTableRecord
  2
STANDARD
 70
     0
 40
0.0
 41
1.0
 50
0.0
 71
     0
 42
2.5
  3
txt
  4

  0
ENDTAB
  0
TABLE
  2
VIEW
  5
6
330
0
100
AcDbSymbolTable
 70
     0
  0
ENDTAB
  0
TABLE
  2
UCS
  5
7
330
0
100
AcDbSymbolTable
 70
     0
  0
ENDTAB
  0
TABLE
  2
APPID
  5
9
330
0
100
AcDbSymbolTable
 70
     2
  0
APPID
  5
12
330
9
100
AcDbSymbolTableRecord
100
AcDbRegAppTableRecord
  2
ACAD
 70
     0
  0
ENDTAB
  0
TABLE
  2
DIMSTYLE
  5
A
330
0
100
AcDbSymbolTable
 70
     1
  0
DIMSTYLE
105
27
330
A
100
AcDbSymbolTableRecord
100
AcDbDimStyleTableRecord
  2
ISO-25
 70
     0
  3

  4

  5

  6

  7

 40
1.0
 41
2.5
 42
0.625
 43
3.75
 44
1.25
 45
0.0
 46
0.0
 47
0.0
 48
0.0
140
2.5
141
2.5
142
0.0
143
0.03937007874016
144
1.0
145
0.0
146
1.0
147
0.625
 71
     0
 72
     0
 73
     0
 74
     0
 75
     0
 76
     0
 77
     1
 78
     8
170
     0
171
     3
172
     1
173
     0
174
     0
175
     0
176
     0
177
     0
178
     0
270
     2
271
     2
272
     2
273
     2
274
     3
340
11
275
     0
280
     0
281
     0
282
     0
283
     0
284
     8
285
     0
286
     0
287
     3
288
     0
  0
ENDTAB
  0
TABLE
  2
BLOCK_RECORD
  5
1
330
0
100
AcDbSymbolTable
 70
     1
  0
BLOCK_RECORD
  5
1F
330
1
100
AcDbSymbolTableRecord
100
AcDbBlockTableRecord
  2
*MODEL_SPACE
  0
BLOCK_RECORD
  5
1B
330
1
100
AcDbSymbolTableRecord
100
AcDbBlockTableRecord
  2
*PAPER_SPACE
  0
ENDTAB
  0
ENDSEC
  0
SECTION
  2
BLOCKS
  0
BLOCK
  5
20
330
1F
100
AcDbEntity
  8
0
100
AcDbBlockBegin
  2
*MODEL_SPACE
 70
     0
 10
0.0
 20
0.0
 30
0.0
  3
*MODEL_SPACE
  1

  0
ENDBLK
  5
21
330
1F
100
AcDbEntity
  8
0
100
AcDbBlockEnd
  0
BLOCK
  5
1C
330
1B
100
AcDbEntity
 67
     1
  8
0
100
AcDbBlockBegin
  2
*PAPER_SPACE
  1

  0
ENDBLK
  5
1D
330
1B
100
AcDbEntity
 67
     1
  8
0
100
AcDbBlockEnd
  0
ENDSEC
  0
SECTION
  2
ENTITIES
  0
LWPOLYLINE
  5
100
100
AcDbEntity
  8
LAYER_1
 62
7
100
AcDbPolyline
 90
2
 70
0
 10
1.447000
 20
6.502796
 30
0.0
 10
0.531400
 20
6.594688
 30
0.0
  0
LWPOLYLINE
  5
101
100
AcDbEntity
  8
LAYER_1
 62
7
100
AcDbPolyline
 90
2
 70
0
 10
2.299700
 20
6.239314
 30
0.0
 10
1.447000
 20
6.502796
 30
0.0
  0
LWPOLYLINE
  5
102
100
AcDbEntity
  8
LAYER_1
 62
7
100
AcDbPolyline
 90
2
 70
0
 10
3.071400
 20
5.822302
 30
0.0
 10
2.299700
 20
6.239314
 30
0.0
  0
LWPOLYLINE
  5
103
100
AcDbEntity
  8
LAYER_1
 62
7
100
AcDbPolyline
 90
2
 70
0
 10
3.743700
 20
5.270106
 30
0.0
 10
3.071400
 20
5.822302
 30
0.0
  0
LWPOLYLINE
  5
104
100
AcDbEntity
  8
LAYER_1
 62
7
100
AcDbPolyline
 90
2
 70
0
 10
4.298400
 20
4.600703
 30
0.0
 10
3.743700
 20
5.270106
 30
0.0
  0
LWPOLYLINE
  5
105
100
AcDbEntity
  8
LAYER_1
 62
7
100
AcDbPolyline
 90
2
 70
0
 10
4.717200
 20
3.832607
 30
0.0
 10
4.298400
 20
4.600703
 30
0.0
  0
LWPOLYLINE
  5
106
100
AcDbEntity
  8
LAYER_1
 62
7
100
AcDbPolyline
 90
2
 70
0
 10
4.981900
 20
2.983711
 30
0.0
 10
4.717200
 20
3.832607
 30
0.0
  0
LWPOLYLINE
  5
107
100
AcDbEntity
  8
LAYER_1
 62
7
100
AcDbPolyline
 90
2
 70
0
 10
5.074200
 20
2.072303
 30
0.0
 10
4.981900
 20
2.983711
 30
0.0
  0
LWPOLYLINE
  5
108
100
AcDbEntity
  8
LAYER_1
 62
7
100
AcDbPolyline
 90
2
 70
0
 10
4.981900
 20
1.160810
 30
0.0
 10
5.074200
 20
2.072303
 30
0.0
  0
LWPOLYLINE
  5
109
100
AcDbEntity
  8
LAYER_1
 62
7
100
AcDbPolyline
 90
2
 70
0
 10
4.717200
 20
0.311913
 30
0.0
 10
4.981900
 20
1.160810
 30
0.0
  0
LWPOLYLINE
  5
10a
100
AcDbEntity
  8
LAYER_1
 62
7
100
AcDbPolyline
 90
2
 70
0
 10
4.298400
 20
-0.456408
 30
0.0
 10
4.717200
 20
0.311913
 30
0.0
  0
LWPOLYLINE
  5
10b
100
AcDbEntity
  8
LAYER_1
 62
7
100
AcDbPolyline
 90
2
 70
0
 10
3.743700
 20
-1.125614
 30
0.0
 10
4.298400
 20
-0.456408
 30
0.0
  0
LWPOLYLINE
  5
10c
100
AcDbEntity
  8
LAYER_1
 62
7
100
AcDbPolyline
 90
2
 70
0
 10
3.071400
 20
-1.677810
 30
0.0
 10
3.743700
 20
-1.125614
 30
0.0
  0
LWPOLYLINE
  5
10d
100
AcDbEntity
  8
LAYER_1
 62
7
100
AcDbPolyline
 90
2
 70
0
 10
2.299700
 20
-2.094793
 30
0.0
 10
3.071400
 20
-1.677810
 30
0.0
  0
LWPOLYLINE
  5
10e
100
AcDbEntity
  8
LAYER_1
 62
7
100
AcDbPolyline
 90
2
 70
0
 10
1.447000
 20
-2.358304
 30
0.0
 10
2.299700
 20
-2.094793
 30
0.0
  0
LWPOLYLINE
  5
10f
100
AcDbEntity
  8
LAYER_1
 62
7
100
AcDbPolyline
 90
2
 70
0
 10
0.531400
 20
-2.450196
 30
0.0
 10
1.447000
 20
-2.358304
 30
0.0
  0
LWPOLYLINE
  5
110
100
AcDbEntity
  8
LAYER_1
 62
7
100
AcDbPolyline
 90
2
 70
0
 10
-0.384200
 20
-2.358304
 30
0.0
 10
0.531400
 20
-2.450196
 30
0.0
  0
LWPOLYLINE
  5
111
100
AcDbEntity
  8
LAYER_1
 62
7
100
AcDbPolyline
 90
2
 70
0
 10
-1.236900
 20
-2.094793
 30
0.0
 10
-0.384200
 20
-2.358304
 30
0.0
  0
LWPOLYLINE
  5
112
100
AcDbEntity
  8
LAYER_1
 62
7
100
AcDbPolyline
 90
2
 70
0
 10
-2.008500
 20
-1.677810
 30
0.0
 10
-1.236900
 20
-2.094793
 30
0.0
  0
LWPOLYLINE
  5
113
100
AcDbEntity
  8
LAYER_1
 62
7
100
AcDbPolyline
 90
2
 70
0
 10
-2.680800
 20
-1.125614
 30
0.0
 10
-2.008500
 20
-1.677810
 30
0.0
  0
LWPOLYLINE
  5
114
100
AcDbEntity
  8
LAYER_1
 62
7
100
AcDbPolyline
 90
2
 70
0
 10
-3.235500
 20
-0.456296
 30
0.0
 10
-2.680800
 20
-1.125614
 30
0.0
  0
LWPOLYLINE
  5
115
100
AcDbEntity
  8
LAYER_1
 62
7
100
AcDbPolyline
 90
2
 70
0
 10
-3.654300
 20
0.311913
 30
0.0
 10
-3.235500
 20
-0.456296
 30
0.0
  0
LWPOLYLINE
  5
116
100
AcDbEntity
  8
LAYER_1
 62
7
100
AcDbPolyline
 90
2
 70
0
 10
-3.919000
 20
1.160810
 30
0.0
 10
-3.654300
 20
0.311913
 30
0.0
  0
LWPOLYLINE
  5
117
100
AcDbEntity
  8
LAYER_1
 62
7
100
AcDbPolyline
 90
2
 70
0
 10
-4.011300
 20
2.072303
 30
0.0
 10
-3.919000
 20
1.160810
 30
0.0
  0
LWPOLYLINE
  5
118
100
AcDbEntity
  8
LAYER_1
 62
7
100
AcDbPolyline
 90
2
 70
0
 10
-3.919000
 20
2.983711
 30
0.0
 10
-4.011300
 20
2.072303
 30
0.0
  0
LWPOLYLINE
  5
119
100
AcDbEntity
  8
LAYER_1
 62
7
100
AcDbPolyline
 90
2
 70
0
 10
-3.654300
 20
3.832607
 30
0.0
 10
-3.919000
 20
2.983711
 30
0.0
  0
LWPOLYLINE
  5
11a
100
AcDbEntity
  8
LAYER_1
 62
7
100
AcDbPolyline
 90
2
 70
0
 10
-3.235500
 20
4.600788
 30
0.0
 10
-3.654300
 20
3.832607
 30
0.0
  0
LWPOLYLINE
  5
11b
100
AcDbEntity
  8
LAYER_1
 62
7
100
AcDbPolyline
 90
2
 70
0
 10
-2.680800
 20
5.270106
 30
0.0
 10
-3.235500
 20
4.600788
 30
0.0
  0
LWPOLYLINE
  5
11c
100
AcDbEntity
  8
LAYER_1
 62
7
100
AcDbPolyline
 90
2
 70
0
 10
-2.008500
 20
5.822302
 30
0.0
 10
-2.680800
 20
5.270106
 30
0.0
  0
LWPOLYLINE
  5
11d
100
AcDbEntity
  8
LAYER_1
 62
7
100
AcDbPolyline
 90
2
 70
0
 10
-1.236900
 20
6.239314
 30
0.0
 10
-2.008500
 20
5.822302
 30
0.0
  0
LWPOLYLINE
  5
11e
100
AcDbEntity
  8
LAYER_1
 62
7
100
AcDbPolyline
 90
2
 70
0
 10
-0.384200
 20
6.502796
 30
0.0
 10
-1.236900
 20
6.239314
 30
0.0
  0
LWPOLYLINE
  5
11f
100
AcDbEntity
  8
LAYER_1
 62
7
100
AcDbPolyline
 90
2
 70
0
 10
0.531400
 20
6.594688
 30
0.0
 10
-0.384200
 20
6.502796
 30
0.0
  0
LWPOLYLINE
  5
120
100
AcDbEntity
  8
LAYER_1
 62
7
100
AcDbPolyline
 90
2
 70
0
 10
10.241900
 20
3.485897
 30
0.0
 10
9.621500
 20
3.610611
 30
0.0
  0
LWPOLYLINE
  5
121
100
AcDbEntity
  8
LAYER_1
 62
7
100
AcDbPolyline
 90
2
 70
0
 10
10.748400
 20
3.145904
 30
0.0
 10
10.241900
 20
3.485897
 30
0.0
  0
LWPOLYLINE
  5
122
100
AcDbEntity
  8
LAYER_1
 62
7
100
AcDbPolyline
 90
2
 70
0
 10
11.090000
 20
2.641601
 30
0.0
 10
10.748400
 20
3.145904
 30
0.0
  0
LWPOLYLINE
  5
123
100
AcDbEntity
  8
LAYER_1
 62
7
100
AcDbPolyline
 90
2
 70
0
 10
11.215200
 20
2.023986
 30
0.0
 10
11.090000
 20
2.641601
 30
0.0
  0
LWPOLYLINE
  5
124
100
AcDbEntity
  8
LAYER_1
 62
7
100
AcDbPolyline
 90
2
 70
0
 10
11.089900
 20
1.406399
 30
0.0
 10
11.215200
 20
2.023986
 30
0.0
  0
LWPOLYLINE
  5
125
100
AcDbEntity
  8
LAYER_1
 62
7
100
AcDbPolyline
 90
2
 70
0
 10
10.748400
 20
0.902096
 30
0.0
 10
11.089900
 20
1.406399
 30
0.0
  0
LWPOLYLINE
  5
126
100
AcDbEntity
  8
LAYER_1
 62
7
100
AcDbPolyline
 90
2
 70
0
 10
10.241800
 20
0.562103
 30
0.0
 10
10.748400
 20
0.902096
 30
0.0
  0
LWPOLYLINE
  5
127
100
AcDbEntity
  8
LAYER_1
 62
7
100
AcDbPolyline
 90
2
 70
0
 10
9.621500
 20
0.437389
 30
0.0
 10
10.241800
 20
0.562103
 30
0.0
  0
LWPOLYLINE
  5
128
100
AcDbEntity
  8
LAYER_1
 62
7
100
AcDbPolyline
 90
2
 70
0
 10
9.001100
 20
0.562103
 30
0.0
 10
9.621500
 20
0.437389
 30
0.0
  0
LWPOLYLINE
  5
129
100
AcDbEntity
  8
LAYER_1
 62
7
100
AcDbPolyline
 90
2
 70
0
 10
8.494500
 20
0.902096
 30
0.0
 10
9.001100
 20
0.562103
 30
0.0
  0
LWPOLYLINE
  5
12a
100
AcDbEntity
  8
LAYER_1
 62
7
100
AcDbPolyline
 90
2
 70
0
 10
8.152900
 20
1.406399
 30
0.0
 10
8.494500
 20
0.902096
 30
0.0
  0
LWPOLYLINE
  5
12b
100
AcDbEntity
  8
LAYER_1
 62
7
100
AcDbPolyline
 90
2
 70
0
 10
8.027700
 20
2.023986
 30
0.0
 10
8.152900
 20
1.406399
 30
0.0
  0
LWPOLYLINE
  5
12c
100
AcDbEntity
  8
LAYER_1
 62
7
100
AcDbPolyline
 90
2
 70
0
 10
8.152900
 20
2.641601
 30
0.0
 10
8.027700
 20
2.023986
 30
0.0
  0
LWPOLYLINE
  5
12d
100
AcDbEntity
  8
LAYER_1
 62
7
100
AcDbPolyline
 90
2
 70
0
 10
8.494500
 20
3.145904
 30
0.0
 10
8.152900
 20
2.641601
 30
0.0
  0
LWPOLYLINE
  5
12e
100
AcDbEntity
  8
LAYER_1
 62
7
100
AcDbPolyline
 90
2
 70
0
 10
9.001100
 20
3.485897
 30
0.0
 10
8.494500
 20
3.145904
 30
0.0
  0
LWPOLYLINE
  5
12f
100
AcDbEntity
  8
LAYER_1
 62
7
100
AcDbPolyline
 90
2
 70
0
 10
9.621500
 20
3.610611
 30
0.0
 10
9.001100
 20
3.485897
 30
0.0
  0
LWPOLYLINE
  5
130
100
AcDbEntity
  8
LAYER_1
 62
7
100
AcDbPolyline
 90
2
 70
0
 10
-27.821900
 20
-22.784504
 30
0.0
 10
-28.676199
 20
-22.432206
 30
0.0
  0
LWPOLYLINE
  5
131
100
AcDbEntity
  8
LAYER_1
 62
7
100
AcDbPolyline
 90
2
 70
0
 10
-27.468100
 20
-23.634896
 30
0.0
 10
-27.821900
 20
-22.784504
 30
0.0
  0
LWPOLYLINE
  5
132
100
AcDbEntity
  8
LAYER_1
 62
7
100
AcDbPolyline
 90
2
 70
0
 10
-27.821900
 20
-24.485288
 30
0.0
 10
-27.468100
 20
-23.634896
 30
0.0
  0
LWPOLYLINE
  5
133
100
AcDbEntity
  8
LAYER_1
 62
7
100
AcDbPolyline
 90
2
 70
0
 10
-28.676199
 20
-24.837502
 30
0.0
 10
-27.821900
 20
-24.485288
 30
0.0
  0
LWPOLYLINE
  5
134
100
AcDbEntity
  8
LAYER_1
 62
7
100
AcDbPolyline
 90
2
 70
0
 10
-29.530401
 20
-24.485288
 30
0.0
 10
-28.676199
 20
-24.837502
 30
0.0
  0
LWPOLYLINE
  5
135
100
AcDbEntity
  8
LAYER_1
 62
7
100
AcDbPolyline
 90
2
 70
0
 10
-29.884201
 20
-23.634896
 30
0.0
 10
-29.530401
 20
-24.485288
 30
0.0
  0
LWPOLYLINE
  5
136
100
AcDbEntity
  8
LAYER_1
 62
7
100
AcDbPolyline
 90
2
 70
0
 10
-29.530401
 20
-22.784504
 30
0.0
 10
-29.884201
 20
-23.634896
 30
0.0
  0
LWPOLYLINE
  5
137
100
AcDbEntity
  8
LAYER_1
 62
7
100
AcDbPolyline
 90
2
 70
0
 10
-28.676199
 20
-22.432206
 30
0.0
 10
-29.530401
 20
-22.784504
 30
0.0
  0
LWPOLYLINE
  5
138
100
AcDbEntity
  8
LAYER_1
 62
7
100
AcDbPolyline
 90
2
 70
0
 10
-27.821900
 20
28.946400
 30
0.0
 10
-28.676199
 20
29.298599
 30
0.0
  0
LWPOLYLINE
  5
139
100
AcDbEntity
  8
LAYER_1
 62
7
100
AcDbPolyline
 90
2
 70
0
 10
-27.468100
 20
28.096000
 30
0.0
 10
-27.821900
 20
28.946400
 30
0.0
  0
LWPOLYLINE
  5
13a
100
AcDbEntity
  8
LAYER_1
 62
7
100
AcDbPolyline
 90
2
 70
0
 10
-27.821900
 20
27.245599
 30
0.0
 10
-27.468100
 20
28.096000
 30
0.0
  0
LWPOLYLINE
  5
13b
100
AcDbEntity
  8
LAYER_1
 62
7
100
AcDbPolyline
 90
2
 70
0
 10
-28.676199
 20
26.893301
 30
0.0
 10
-27.821900
 20
27.245599
 30
0.0
  0
LWPOLYLINE
  5
13c
100
AcDbEntity
  8
LAYER_1
 62
7
100
AcDbPolyline
 90
2
 70
0
 10
-29.530401
 20
27.245599
 30
0.0
 10
-28.676199
 20
26.893301
 30
0.0
  0
LWPOLYLINE
  5
13d
100
AcDbEntity
  8
LAYER_1
 62
7
100
AcDbPolyline
 90
2
 70
0
 10
-29.884201
 20
28.096000
 30
0.0
 10
-29.530401
 20
27.245599
 30
0.0
  0
LWPOLYLINE
  5
13e
100
AcDbEntity
  8
LAYER_1
 62
7
100
AcDbPolyline
 90
2
 70
0
 10
-29.530401
 20
28.946400
 30
0.0
 10
-29.884201
 20
28.096000
 30
0.0
  0
LWPOLYLINE
  5
13f
100
AcDbEntity
  8
LAYER_1
 62
7
100
AcDbPolyline
 90
2
 70
0
 10
-28.676199
 20
29.298599
 30
0.0
 10
-29.530401
 20
28.946400
 30
0.0
  0
LWPOLYLINE
  5
140
100
AcDbEntity
  8
LAYER_1
 62
7
100
AcDbPolyline
 90
2
 70
0
 10
-27.731100
 20
30.502001
 30
0.0
 10
-26.452100
 20
30.631399
 30
0.0
  0
LWPOLYLINE
  5
141
100
AcDbEntity
  8
LAYER_1
 62
7
100
AcDbPolyline
 90
2
 70
0
 10
-28.924301
 20
30.131200
 30
0.0
 10
-27.731100
 20
30.502001
 30
0.0
  0
LWPOLYLINE
  5
142
100
AcDbEntity
  8
LAYER_1
 62
7
100
AcDbPolyline
 90
2
 70
0
 10
-30.005500
 20
29.544999
 30
0.0
 10
-28.924301
 20
30.131200
 30
0.0
  0
LWPOLYLINE
  5
143
100
AcDbEntity
  8
LAYER_1
 62
7
100
AcDbPolyline
 90
2
 70
0
 10
-30.948799
 20
28.769399
 30
0.0
 10
-30.005500
 20
29.544999
 30
0.0
  0
LWPOLYLINE
  5
144
100
AcDbEntity
  8
LAYER_1
 62
7
100
AcDbPolyline
 90
2
 70
0
 10
-31.727899
 20
27.830400
 30
0.0
 10
-30.948799
 20
28.769399
 30
0.0
  0
LWPOLYLINE
  5
145
100
AcDbEntity
  8
LAYER_1
 62
7
100
AcDbPolyline
 90
2
 70
0
 10
-32.316699
 20
26.753999
 30
0.0
 10
-31.727899
 20
27.830400
 30
0.0
  0
LWPOLYLINE
  5
146
100
AcDbEntity
  8
LAYER_1
 62
7
100
AcDbPolyline
 90
2
 70
0
 10
-32.689100
 20
25.566199
 30
0.0
 10
-32.316699
 20
26.753999
 30
0.0
  0
LWPOLYLINE
  5
147
100
AcDbEntity
  8
LAYER_1
 62
7
100
AcDbPolyline
 90
2
 70
0
 10
-32.819001
 20
24.292900
 30
0.0
 10
-32.689100
 20
25.566199
 30
0.0
  0
LWPOLYLINE
  5
148
100
AcDbEntity
  8
LAYER_1
 62
7
100
AcDbPolyline
 90
2
 70
0
 10
-32.819001
 20
-20.575890
 30
0.0
 10
-32.819001
 20
24.292900
 30
0.0
  0
LWPOLYLINE
  5
149
100
AcDbEntity
  8
LAYER_1
 62
7
100
AcDbPolyline
 90
2
 70
0
 10
-32.694101
 20
-21.799803
 30
0.0
 10
-32.819001
 20
-20.575890
 30
0.0
  0
LWPOLYLINE
  5
14a
100
AcDbEntity
  8
LAYER_1
 62
7
100
AcDbPolyline
 90
2
 70
0
 10
-32.336099
 20
-22.941589
 30
0.0
 10
-32.694101
 20
-21.799803
 30
0.0
  0
LWPOLYLINE
  5
14b
100
AcDbEntity
  8
LAYER_1
 62
7
100
AcDbPolyline
 90
2
 70
0
 10
-31.770100
 20
-23.976300
 30
0.0
 10
-32.336099
 20
-22.941589
 30
0.0
  0
LWPOLYLINE
  5
14c
100
AcDbEntity
  8
LAYER_1
 62
7
100
AcDbPolyline
 90
2
 70
0
 10
-31.021299
 20
-24.878904
 30
0.0
 10
-31.770100
 20
-23.976300
 30
0.0
  0
LWPOLYLINE
  5
14d
100
AcDbEntity
  8
LAYER_1
 62
7
100
AcDbPolyline
 90
2
 70
0
 10
-30.114601
 20
-25.624394
 30
0.0
 10
-31.021299
 20
-24.878904
 30
0.0
  0
LWPOLYLINE
  5
14e
100
AcDbEntity
  8
LAYER_1
 62
7
100
AcDbPolyline
 90
2
 70
0
 10
-29.075301
 20
-26.187794
 30
0.0
 10
-30.114601
 20
-25.624394
 30
0.0
  0
LWPOLYLINE
  5
14f
100
AcDbEntity
  8
LAYER_1
 62
7
100
AcDbPolyline
 90
2
 70
0
 10
-27.928400
 20
-26.544297
 30
0.0
 10
-29.075301
 20
-26.187794
 30
0.0
  0
LWPOLYLINE
  5
150
100
AcDbEntity
  8
LAYER_1
 62
7
100
AcDbPolyline
 90
2
 70
0
 10
-26.698900
 20
-26.668588
 30
0.0
 10
-27.928400
 20
-26.544297
 30
0.0
  0
LWPOLYLINE
  5
151
100
AcDbEntity
  8
LAYER_1
 62
7
100
AcDbPolyline
 90
2
 70
0
 10
27.908000
 20
-26.668588
 30
0.0
 10
-26.698900
 20
-26.668588
 30
0.0
  0
LWPOLYLINE
  5
152
100
AcDbEntity
  8
LAYER_1
 62
7
100
AcDbPolyline
 90
2
 70
0
 10
28.541599
 20
-26.644712
 30
0.0
 10
27.908000
 20
-26.668700
 30
0.0
  0
LWPOLYLINE
  5
153
100
AcDbEntity
  8
LAYER_1
 62
7
100
AcDbPolyline
 90
2
 70
0
 10
29.060199
 20
-26.603789
 30
0.0
 10
28.541599
 20
-26.644712
 30
0.0
  0
LWPOLYLINE
  5
154
100
AcDbEntity
  8
LAYER_1
 62
7
100
AcDbPolyline
 90
2
 70
0
 10
29.451201
 20
-26.530609
 30
0.0
 10
29.060199
 20
-26.603789
 30
0.0
  0
LWPOLYLINE
  5
155
100
AcDbEntity
  8
LAYER_1
 62
7
100
AcDbPolyline
 90
2
 70
0
 10
29.702500
 20
-26.409395
 30
0.0
 10
29.451201
 20
-26.530609
 30
0.0
  0
LWPOLYLINE
  5
156
100
AcDbEntity
  8
LAYER_1
 62
7
100
AcDbPolyline
 90
2
 70
0
 10
29.801501
 20
-26.224708
 30
0.0
 10
29.702500
 20
-26.409395
 30
0.0
  0
LWPOLYLINE
  5
157
100
AcDbEntity
  8
LAYER_1
 62
7
100
AcDbPolyline
 90
2
 70
0
 10
29.735901
 20
-25.961000
 30
0.0
 10
29.801501
 20
-26.224708
 30
0.0
  0
LWPOLYLINE
  5
158
100
AcDbEntity
  8
LAYER_1
 62
7
100
AcDbPolyline
 90
2
 70
0
 10
29.493199
 20
-25.602691
 30
0.0
 10
29.735901
 20
-25.961000
 30
0.0
  0
LWPOLYLINE
  5
159
100
AcDbEntity
  8
LAYER_1
 62
7
100
AcDbPolyline
 90
2
 70
0
 10
29.061001
 20
-25.134286
 30
0.0
 10
29.493199
 20
-25.602691
 30
0.0
  0
LWPOLYLINE
  5
15a
100
AcDbEntity
  8
LAYER_1
 62
7
100
AcDbPolyline
 90
2
 70
0
 10
28.846800
 20
-24.872808
 30
0.0
 10
29.061001
 20
-25.134286
 30
0.0
  0
LWPOLYLINE
  5
15b
100
AcDbEntity
  8
LAYER_1
 62
7
100
AcDbPolyline
 90
2
 70
0
 10
28.693799
 20
-24.582288
 30
0.0
 10
28.846800
 20
-24.872808
 30
0.0
  0
LWPOLYLINE
  5
15c
100
AcDbEntity
  8
LAYER_1
 62
7
100
AcDbPolyline
 90
2
 70
0
 10
28.602000
 20
-24.272295
 30
0.0
 10
28.693799
 20
-24.582288
 30
0.0
  0
LWPOLYLINE
  5
15d
100
AcDbEntity
  8
LAYER_1
 62
7
100
AcDbPolyline
 90
2
 70
0
 10
28.571399
 20
-23.952594
 30
0.0
 10
28.602000
 20
-24.272295
 30
0.0
  0
LWPOLYLINE
  5
15e
100
AcDbEntity
  8
LAYER_1
 62
7
100
AcDbPolyline
 90
2
 70
0
 10
28.602000
 20
-23.632892
 30
0.0
 10
28.571399
 20
-23.952594
 30
0.0
  0
LWPOLYLINE
  5
15f
100
AcDbEntity
  8
LAYER_1
 62
7
100
AcDbPolyline
 90
2
 70
0
 10
28.693799
 20
-23.322900
 30
0.0
 10
28.602000
 20
-23.632892
 30
0.0
  0
LWPOLYLINE
  5
160
100
AcDbEntity
  8
LAYER_1
 62
7
100
AcDbPolyline
 90
2
 70
0
 10
28.846800
 20
-23.032408
 30
0.0
 10
28.693799
 20
-23.322900
 30
0.0
  0
LWPOLYLINE
  5
161
100
AcDbEntity
  8
LAYER_1
 62
7
100
AcDbPolyline
 90
2
 70
0
 10
29.061001
 20
-22.770901
 30
0.0
 10
28.846800
 20
-23.032408
 30
0.0
  0
LWPOLYLINE
  5
162
100
AcDbEntity
  8
LAYER_1
 62
7
100
AcDbPolyline
 90
17
 70
0
 10
29.061001
 20
-22.770901
 30
0.0
 10
29.061001
 20
-22.770901
 30
0.0
 10
29.061001
 20
-22.770901
 30
0.0
 10
29.061001
 20
-22.770901
 30
0.0
 10
29.061001
 20
-22.770901
 30
0.0
 10
29.061001
 20
-22.770901
 30
0.0
 10
29.061001
 20
-22.770901
 30
0.0
 10
29.061001
 20
-22.770901
 30
0.0
 10
29.061001
 20
-22.770901
 30
0.0
 10
29.061001
 20
-22.770901
 30
0.0
 10
29.061001
 20
-22.770901
 30
0.0
 10
29.061001
 20
-22.770901
 30
0.0
 10
29.061001
 20
-22.770901
 30
0.0
 10
29.061001
 20
-22.770901
 30
0.0
 10
29.061001
 20
-22.770901
 30
0.0
 10
29.061001
 20
-22.770901
 30
0.0
 10
29.061001
 20
-22.770901
 30
0.0
  0
LWPOLYLINE
  5
163
100
AcDbEntity
  8
LAYER_1
 62
7
100
AcDbPolyline
 90
2
 70
0
 10
29.323800
 20
-22.557598
 30
0.0
 10
29.061001
 20
-22.770901
 30
0.0
  0
LWPOLYLINE
  5
164
100
AcDbEntity
  8
LAYER_1
 62
7
100
AcDbPolyline
 90
2
 70
0
 10
29.615601
 20
-22.405310
 30
0.0
 10
29.323800
 20
-22.557598
 30
0.0
  0
LWPOLYLINE
  5
165
100
AcDbEntity
  8
LAYER_1
 62
7
100
AcDbPolyline
 90
2
 70
0
 10
29.927000
 20
-22.313899
 30
0.0
 10
29.615601
 20
-22.405310
 30
0.0
  0
LWPOLYLINE
  5
166
100
AcDbEntity
  8
LAYER_1
 62
7
100
AcDbPolyline
 90
2
 70
0
 10
30.248101
 20
-22.283390
 30
0.0
 10
29.927000
 20
-22.313899
 30
0.0
  0
LWPOLYLINE
  5
167
100
AcDbEntity
  8
LAYER_1
 62
7
100
AcDbPolyline
 90
2
 70
0
 10
30.569301
 20
-22.313899
 30
0.0
 10
30.248101
 20
-22.283390
 30
0.0
  0
LWPOLYLINE
  5
168
100
AcDbEntity
  8
LAYER_1
 62
7
100
AcDbPolyline
 90
2
 70
0
 10
30.880600
 20
-22.405310
 30
0.0
 10
30.569301
 20
-22.313899
 30
0.0
  0
LWPOLYLINE
  5
169
100
AcDbEntity
  8
LAYER_1
 62
7
100
AcDbPolyline
 90
2
 70
0
 10
31.172500
 20
-22.557598
 30
0.0
 10
30.880600
 20
-22.405310
 30
0.0
  0
LWPOLYLINE
  5
16a
100
AcDbEntity
  8
LAYER_1
 62
7
100
AcDbPolyline
 90
2
 70
0
 10
31.435099
 20
-22.770901
 30
0.0
 10
31.172500
 20
-22.557598
 30
0.0
  0
LWPOLYLINE
  5
16b
100
AcDbEntity
  8
LAYER_1
 62
7
100
AcDbPolyline
 90
2
 70
0
 10
31.888599
 20
-23.226803
 30
0.0
 10
31.435099
 20
-22.770901
 30
0.0
  0
LWPOLYLINE
  5
16c
100
AcDbEntity
  8
LAYER_1
 62
7
100
AcDbPolyline
 90
2
 70
0
 10
32.257901
 20
-23.590305
 30
0.0
 10
31.888599
 20
-23.226803
 30
0.0
  0
LWPOLYLINE
  5
16d
100
AcDbEntity
  8
LAYER_1
 62
7
100
AcDbPolyline
 90
2
 70
0
 10
32.560901
 20
-23.852490
 30
0.0
 10
32.257901
 20
-23.590305
 30
0.0
  0
LWPOLYLINE
  5
16e
100
AcDbEntity
  8
LAYER_1
 62
7
100
AcDbPolyline
 90
2
 70
0
 10
32.815601
 20
-24.004890
 30
0.0
 10
32.560901
 20
-23.852490
 30
0.0
  0
LWPOLYLINE
  5
16f
100
AcDbEntity
  8
LAYER_1
 62
7
100
AcDbPolyline
 90
2
 70
0
 10
33.039899
 20
-24.038700
 30
0.0
 10
32.815601
 20
-24.004890
 30
0.0
  0
LWPOLYLINE
  5
170
100
AcDbEntity
  8
LAYER_1
 62
7
100
AcDbPolyline
 90
2
 70
0
 10
33.251699
 20
-23.945397
 30
0.0
 10
33.039899
 20
-24.038700
 30
0.0
  0
LWPOLYLINE
  5
171
100
AcDbEntity
  8
LAYER_1
 62
7
100
AcDbPolyline
 90
2
 70
0
 10
33.468900
 20
-23.716092
 30
0.0
 10
33.251699
 20
-23.945397
 30
0.0
  0
LWPOLYLINE
  5
172
100
AcDbEntity
  8
LAYER_1
 62
7
100
AcDbPolyline
 90
2
 70
0
 10
33.709500
 20
-23.342401
 30
0.0
 10
33.468900
 20
-23.716092
 30
0.0
  0
LWPOLYLINE
  5
173
100
AcDbEntity
  8
LAYER_1
 62
7
100
AcDbPolyline
 90
2
 70
0
 10
33.861499
 20
-23.025607
 30
0.0
 10
33.709500
 20
-23.342401
 30
0.0
  0
LWPOLYLINE
  5
174
100
AcDbEntity
  8
LAYER_1
 62
7
100
AcDbPolyline
 90
2
 70
0
 10
33.995400
 20
-22.699188
 30
0.0
 10
33.861499
 20
-23.025607
 30
0.0
  0
LWPOLYLINE
  5
175
100
AcDbEntity
  8
LAYER_1
 62
7
100
AcDbPolyline
 90
2
 70
0
 10
34.110501
 20
-22.363908
 30
0.0
 10
33.995400
 20
-22.699188
 30
0.0
  0
LWPOLYLINE
  5
176
100
AcDbEntity
  8
LAYER_1
 62
7
100
AcDbPolyline
 90
2
 70
0
 10
34.206200
 20
-22.020190
 30
0.0
 10
34.110501
 20
-22.363908
 30
0.0
  0
LWPOLYLINE
  5
177
100
AcDbEntity
  8
LAYER_1
 62
7
100
AcDbPolyline
 90
2
 70
0
 10
34.281700
 20
-21.668993
 30
0.0
 10
34.206200
 20
-22.020190
 30
0.0
  0
LWPOLYLINE
  5
178
100
AcDbEntity
  8
LAYER_1
 62
7
100
AcDbPolyline
 90
2
 70
0
 10
34.336499
 20
-21.310712
 30
0.0
 10
34.281700
 20
-21.668993
 30
0.0
  0
LWPOLYLINE
  5
179
100
AcDbEntity
  8
LAYER_1
 62
7
100
AcDbPolyline
 90
2
 70
0
 10
34.369801
 20
-20.946109
 30
0.0
 10
34.336499
 20
-21.310712
 30
0.0
  0
LWPOLYLINE
  5
17a
100
AcDbEntity
  8
LAYER_1
 62
7
100
AcDbPolyline
 90
2
 70
0
 10
34.381000
 20
-20.575890
 30
0.0
 10
34.369796
 20
-20.946109
 30
0.0
  0
LWPOLYLINE
  5
17b
100
AcDbEntity
  8
LAYER_1
 62
7
100
AcDbPolyline
 90
2
 70
0
 10
34.381000
 20
24.538600
 30
0.0
 10
34.381000
 20
-20.575890
 30
0.0
  0
LWPOLYLINE
  5
17c
100
AcDbEntity
  8
LAYER_1
 62
7
100
AcDbPolyline
 90
2
 70
0
 10
34.370399
 20
24.898701
 30
0.0
 10
34.381011
 20
24.538600
 30
0.0
  0
LWPOLYLINE
  5
17d
100
AcDbEntity
  8
LAYER_1
 62
7
100
AcDbPolyline
 90
2
 70
0
 10
34.338799
 20
25.253500
 30
0.0
 10
34.370399
 20
24.898701
 30
0.0
  0
LWPOLYLINE
  5
17e
100
AcDbEntity
  8
LAYER_1
 62
7
100
AcDbPolyline
 90
2
 70
0
 10
34.286901
 20
25.602301
 30
0.0
 10
34.338799
 20
25.253500
 30
0.0
  0
LWPOLYLINE
  5
17f
100
AcDbEntity
  8
LAYER_1
 62
7
100
AcDbPolyline
 90
2
 70
0
 10
34.215301
 20
25.944501
 30
0.0
 10
34.286901
 20
25.602301
 30
0.0
  0
LWPOLYLINE
  5
180
100
AcDbEntity
  8
LAYER_1
 62
7
100
AcDbPolyline
 90
2
 70
0
 10
34.124601
 20
26.279499
 30
0.0
 10
34.215301
 20
25.944501
 30
0.0
  0
LWPOLYLINE
  5
181
100
AcDbEntity
  8
LAYER_1
 62
7
100
AcDbPolyline
 90
2
 70
0
 10
34.015499
 20
26.606899
 30
0.0
 10
34.124601
 20
26.279499
 30
0.0
  0
LWPOLYLINE
  5
182
100
AcDbEntity
  8
LAYER_1
 62
7
100
AcDbPolyline
 90
2
 70
0
 10
33.888499
 20
26.925799
 30
0.0
 10
34.015499
 20
26.606899
 30
0.0
  0
LWPOLYLINE
  5
183
100
AcDbEntity
  8
LAYER_1
 62
7
100
AcDbPolyline
 90
2
 70
0
 10
33.744199
 20
27.235899
 30
0.0
 10
33.888499
 20
26.925799
 30
0.0
  0
LWPOLYLINE
  5
184
100
AcDbEntity
  8
LAYER_1
 62
7
100
AcDbPolyline
 90
2
 70
0
 10
33.495299
 20
27.634699
 30
0.0
 10
33.744199
 20
27.235899
 30
0.0
  0
LWPOLYLINE
  5
185
100
AcDbEntity
  8
LAYER_1
 62
7
100
AcDbPolyline
 90
2
 70
0
 10
33.272801
 20
27.883201
 30
0.0
 10
33.495299
 20
27.634699
 30
0.0
  0
LWPOLYLINE
  5
186
100
AcDbEntity
  8
LAYER_1
 62
7
100
AcDbPolyline
 90
2
 70
0
 10
33.057699
 20
27.990299
 30
0.0
 10
33.272801
 20
27.883201
 30
0.0
  0
LWPOLYLINE
  5
187
100
AcDbEntity
  8
LAYER_1
 62
7
100
AcDbPolyline
 90
2
 70
0
 10
32.831301
 20
27.965300
 30
0.0
 10
33.057699
 20
27.990305
 30
0.0
  0
LWPOLYLINE
  5
188
100
AcDbEntity
  8
LAYER_1
 62
7
100
AcDbPolyline
 90
2
 70
0
 10
32.574600
 20
27.817201
 30
0.0
 10
32.831301
 20
27.965300
 30
0.0
  0
LWPOLYLINE
  5
189
100
AcDbEntity
  8
LAYER_1
 62
7
100
AcDbPolyline
 90
2
 70
0
 10
32.269001
 20
27.555101
 30
0.0
 10
32.574600
 20
27.817201
 30
0.0
  0
LWPOLYLINE
  5
18a
100
AcDbEntity
  8
LAYER_1
 62
7
100
AcDbPolyline
 90
2
 70
0
 10
31.895401
 20
27.188099
 30
0.0
 10
32.269001
 20
27.555101
 30
0.0
  0
LWPOLYLINE
  5
18b
100
AcDbEntity
  8
LAYER_1
 62
7
100
AcDbPolyline
 90
2
 70
0
 10
31.435099
 20
26.725399
 30
0.0
 10
31.895401
 20
27.188099
 30
0.0
  0
LWPOLYLINE
  5
18c
100
AcDbEntity
  8
LAYER_1
 62
7
100
AcDbPolyline
 90
2
 70
0
 10
31.172401
 20
26.512101
 30
0.0
 10
31.435099
 20
26.725399
 30
0.0
  0
LWPOLYLINE
  5
18d
100
AcDbEntity
  8
LAYER_1
 62
7
100
AcDbPolyline
 90
2
 70
0
 10
30.880600
 20
26.359800
 30
0.0
 10
31.172401
 20
26.512101
 30
0.0
  0
LWPOLYLINE
  5
18e
100
AcDbEntity
  8
LAYER_1
 62
7
100
AcDbPolyline
 90
2
 70
0
 10
30.569199
 20
26.268399
 30
0.0
 10
30.880600
 20
26.359800
 30
0.0
  0
LWPOLYLINE
  5
18f
100
AcDbEntity
  8
LAYER_1
 62
7
100
AcDbPolyline
 90
2
 70
0
 10
30.248101
 20
26.238001
 30
0.0
 10
30.569199
 20
26.268399
 30
0.0
  0
LWPOLYLINE
  5
190
100
AcDbEntity
  8
LAYER_1
 62
7
100
AcDbPolyline
 90
2
 70
0
 10
29.927000
 20
26.268399
 30
0.0
 10
30.248101
 20
26.238001
 30
0.0
  0
LWPOLYLINE
  5
191
100
AcDbEntity
  8
LAYER_1
 62
7
100
AcDbPolyline
 90
2
 70
0
 10
29.615601
 20
26.359800
 30
0.0
 10
29.927000
 20
26.268399
 30
0.0
  0
LWPOLYLINE
  5
192
100
AcDbEntity
  8
LAYER_1
 62
7
100
AcDbPolyline
 90
2
 70
0
 10
29.323699
 20
26.512101
 30
0.0
 10
29.615601
 20
26.359800
 30
0.0
  0
LWPOLYLINE
  5
193
100
AcDbEntity
  8
LAYER_1
 62
7
100
AcDbPolyline
 90
2
 70
0
 10
29.061001
 20
26.725399
 30
0.0
 10
29.323699
 20
26.512101
 30
0.0
  0
LWPOLYLINE
  5
194
100
AcDbEntity
  8
LAYER_1
 62
7
100
AcDbPolyline
 90
17
 70
0
 10
29.061001
 20
26.725399
 30
0.0
 10
29.061001
 20
26.725399
 30
0.0
 10
29.061001
 20
26.725399
 30
0.0
 10
29.061001
 20
26.725399
 30
0.0
 10
29.061001
 20
26.725399
 30
0.0
 10
29.061001
 20
26.725399
 30
0.0
 10
29.061001
 20
26.725399
 30
0.0
 10
29.061001
 20
26.725399
 30
0.0
 10
29.061001
 20
26.725399
 30
0.0
 10
29.061001
 20
26.725399
 30
0.0
 10
29.061001
 20
26.725399
 30
0.0
 10
29.061001
 20
26.725399
 30
0.0
 10
29.061001
 20
26.725399
 30
0.0
 10
29.061001
 20
26.725399
 30
0.0
 10
29.061001
 20
26.725399
 30
0.0
 10
29.061001
 20
26.725399
 30
0.0
 10
29.061001
 20
26.725399
 30
0.0
  0
LWPOLYLINE
  5
195
100
AcDbEntity
  8
LAYER_1
 62
7
100
AcDbPolyline
 90
2
 70
0
 10
28.846800
 20
26.986900
 30
0.0
 10
29.061001
 20
26.725399
 30
0.0
  0
LWPOLYLINE
  5
196
100
AcDbEntity
  8
LAYER_1
 62
7
100
AcDbPolyline
 90
2
 70
0
 10
28.693799
 20
27.277499
 30
0.0
 10
28.846800
 20
26.986900
 30
0.0
  0
LWPOLYLINE
  5
197
100
AcDbEntity
  8
LAYER_1
 62
7
100
AcDbPolyline
 90
2
 70
0
 10
28.602000
 20
27.587500
 30
0.0
 10
28.693799
 20
27.277499
 30
0.0
  0
LWPOLYLINE
  5
198
100
AcDbEntity
  8
LAYER_1
 62
7
100
AcDbPolyline
 90
2
 70
0
 10
28.571399
 20
27.907199
 30
0.0
 10
28.602000
 20
27.587500
 30
0.0
  0
LWPOLYLINE
  5
199
100
AcDbEntity
  8
LAYER_1
 62
7
100
AcDbPolyline
 90
2
 70
0
 10
28.602000
 20
28.226801
 30
0.0
 10
28.571399
 20
27.907199
 30
0.0
  0
LWPOLYLINE
  5
19a
100
AcDbEntity
  8
LAYER_1
 62
7
100
AcDbPolyline
 90
2
 70
0
 10
28.693799
 20
28.536800
 30
0.0
 10
28.602000
 20
28.226801
 30
0.0
  0
LWPOLYLINE
  5
19b
100
AcDbEntity
  8
LAYER_1
 62
7
100
AcDbPolyline
 90
2
 70
0
 10
28.846800
 20
28.827401
 30
0.0
 10
28.693799
 20
28.536800
 30
0.0
  0
LWPOLYLINE
  5
19c
100
AcDbEntity
  8
LAYER_1
 62
7
100
AcDbPolyline
 90
2
 70
0
 10
29.061001
 20
29.088900
 30
0.0
 10
28.846800
 20
28.827401
 30
0.0
  0
LWPOLYLINE
  5
19d
100
AcDbEntity
  8
LAYER_1
 62
7
100
AcDbPolyline
 90
2
 70
0
 10
29.509500
 20
29.577401
 30
0.0
 10
29.061001
 20
29.088900
 30
0.0
  0
LWPOLYLINE
  5
19e
100
AcDbEntity
  8
LAYER_1
 62
7
100
AcDbPolyline
 90
2
 70
0
 10
29.750001
 20
29.945501
 30
0.0
 10
29.509500
 20
29.577401
 30
0.0
  0
LWPOLYLINE
  5
19f
100
AcDbEntity
  8
LAYER_1
 62
7
100
AcDbPolyline
 90
2
 70
0
 10
29.796901
 20
30.211199
 30
0.0
 10
29.750001
 20
29.945501
 30
0.0
  0
LWPOLYLINE
  5
1a0
100
AcDbEntity
  8
LAYER_1
 62
7
100
AcDbPolyline
 90
2
 70
0
 10
29.664700
 20
30.392301
 30
0.0
 10
29.796901
 20
30.211199
 30
0.0
  0
LWPOLYLINE
  5
1a1
100
AcDbEntity
  8
LAYER_1
 62
7
100
AcDbPolyline
 90
2
 70
0
 10
29.367401
 20
30.507002
 30
0.0
 10
29.664700
 20
30.392301
 30
0.0
  0
LWPOLYLINE
  5
1a2
100
AcDbEntity
  8
LAYER_1
 62
7
100
AcDbPolyline
 90
2
 70
0
 10
28.919599
 20
30.573101
 30
0.0
 10
29.367401
 20
30.507002
 30
0.0
  0
LWPOLYLINE
  5
1a3
100
AcDbEntity
  8
LAYER_1
 62
7
100
AcDbPolyline
 90
2
 70
0
 10
28.335399
 20
30.608602
 30
0.0
 10
28.919599
 20
30.573101
 30
0.0
  0
LWPOLYLINE
  5
1a4
100
AcDbEntity
  8
LAYER_1
 62
7
100
AcDbPolyline
 90
2
 70
0
 10
27.629300
 20
30.631399
 30
0.0
 10
28.335399
 20
30.608596
 30
0.0
  0
LWPOLYLINE
  5
1a5
100
AcDbEntity
  8
LAYER_1
 62
7
100
AcDbPolyline
 90
2
 70
0
 10
-26.452100
 20
30.631399
 30
0.0
 10
27.629300
 20
30.631399
 30
0.0
  0
ENDSEC
  0
SECTION
  2
OBJECTS
  0
DICTIONARY
  5
C
330
0
100
AcDbDictionary
  3
ACAD_GROUP
350
D
  3
ACAD_MLINESTYLE
350
17
  0
DICTIONARY
  5
D
330
C
100
AcDbDictionary
  0
DICTIONARY
  5
1A
330
C
100
AcDbDictionary
  0
DICTIONARY
  5
17
330
C
100
AcDbDictionary
  3
STANDARD
350
18
  0
DICTIONARY
  5
19
330
C
100
AcDbDictionary
  0
ENDSEC
  0
EOF
