  0
SECTION
  2
HEADER
  9
$ACADVER
  1
AC1014
  9
$HANDSEED
  5
FFFF
  9
$MEASUREMENT
 70
     1
  0
ENDSEC
  0
SECTION
  2
TABLES
  0
TABLE
  2
VPORT
  5
8
330
0
100
AcDbSymbolTable
 70
     4
  0
VPORT
  5
2E
330
8
100
AcDbSymbolTableRecord
100
AcDbViewportTableRecord
  2
*ACTIVE
 70
     0
 10
0.0
 20
0.0
 11
1.0
 21
1.0
 12
210.0
 22
148.5
 13
0.0
 23
0.0
 14
10.0
 24
10.0
 15
10.0
 25
10.0
 16
0.0
 26
0.0
 36
1.0
 17
0.0
 27
0.0
 37
0.0
 40
341.0
 41
1.24
 42
50.0
 43
0.0
 44
0.0
 50
0.0
 51
0.0
 71
     0
 72
   100
 73
     1
 74
     3
 75
     0
 76
     0
 77
     0
 78
     0
  0
ENDTAB
  0
TABLE
  2
LTYPE
  5
5
330
0
100
AcDbSymbolTable
 70
     1
  0
LTYPE
  5
14
330
5
100
AcDbSymbolTableRecord
100
AcDbLinetypeTableRecord
  2
BYBLOCK
 70
     0
  3

 72
    65
 73
     0
 40
0.0
  0
LTYPE
  5
15
330
5
100
AcDbSymbolTableRecord
100
AcDbLinetypeTableRecord
  2
BYLAYER
 70
     0
  3

 72
    65
 73
     0
 40
0.0
  0
LTYPE
  5
16
330
5
100
AcDbSymbolTableRecord
100
AcDbLinetypeTableRecord
  2
CONTINUOUS
 70
     0
  3
Solid line
 72
    65
 73
     0
 40
0.0
  0
ENDTAB
  0
TABLE
  2
LAYER
  5
2
100
AcDbSymbolTable
 70
2
  0
LAYER
  5
50
100
AcDbSymbolTableRecord
100
AcDbLayerTableRecord
  2
0
 70
0
  6
CONTINUOUS
  0
LAYER
  5
51
100
AcDbSymbolTableRecord
100
AcDbLayerTableRecord
  2
LAYER_1
 70
0
  6
CONTINUOUS
  0
ENDTAB
  0
TABLE
  2
STYLE
  5
3
330
0
100
AcDbSymbolTable
 70
     1
  0
STYLE
  5
11
330
3
100
AcDbSymbolTableRecord
100
AcDbTextStyleTableRecord
  2
STANDARD
 70
     0
 40
0.0
 41
1.0
 50
0.0
 71
     0
 42
2.5
  3
txt
  4

  0
ENDTAB
  0
TABLE
  2
VIEW
  5
6
330
0
100
AcDbSymbolTable
 70
     0
  0
ENDTAB
  0
TABLE
  2
UCS
  5
7
330
0
100
AcDbSymbolTable
 70
     0
  0
ENDTAB
  0
TABLE
  2
APPID
  5
9
330
0
100
AcDbSymbolTable
 70
     2
  0
APPID
  5
12
330
9
100
AcDbSymbolTableRecord
100
AcDbRegAppTableRecord
  2
ACAD
 70
     0
  0
ENDTAB
  0
TABLE
  2
DIMSTYLE
  5
A
330
0
100
AcDbSymbolTable
 70
     1
  0
DIMSTYLE
105
27
330
A
100
AcDbSymbolTableRecord
100
AcDbDimStyleTableRecord
  2
ISO-25
 70
     0
  3

  4

  5

  6

  7

 40
1.0
 41
2.5
 42
0.625
 43
3.75
 44
1.25
 45
0.0
 46
0.0
 47
0.0
 48
0.0
140
2.5
141
2.5
142
0.0
143
0.03937007874016
144
1.0
145
0.0
146
1.0
147
0.625
 71
     0
 72
     0
 73
     0
 74
     0
 75
     0
 76
     0
 77
     1
 78
     8
170
     0
171
     3
172
     1
173
     0
174
     0
175
     0
176
     0
177
     0
178
     0
270
     2
271
     2
272
     2
273
     2
274
     3
340
11
275
     0
280
     0
281
     0
282
     0
283
     0
284
     8
285
     0
286
     0
287
     3
288
     0
  0
ENDTAB
  0
TABLE
  2
BLOCK_RECORD
  5
1
330
0
100
AcDbSymbolTable
 70
     1
  0
BLOCK_RECORD
  5
1F
330
1
100
AcDbSymbolTableRecord
100
AcDbBlockTableRecord
  2
*MODEL_SPACE
  0
BLOCK_RECORD
  5
1B
330
1
100
AcDbSymbolTableRecord
100
AcDbBlockTableRecord
  2
*PAPER_SPACE
  0
ENDTAB
  0
ENDSEC
  0
SECTION
  2
BLOCKS
  0
BLOCK
  5
20
330
1F
100
AcDbEntity
  8
0
100
AcDbBlockBegin
  2
*MODEL_SPACE
 70
     0
 10
0.0
 20
0.0
 30
0.0
  3
*MODEL_SPACE
  1

  0
ENDBLK
  5
21
330
1F
100
AcDbEntity
  8
0
100
AcDbBlockEnd
  0
BLOCK
  5
1C
330
1B
100
AcDbEntity
 67
     1
  8
0
100
AcDbBlockBegin
  2
*PAPER_SPACE
  1

  0
ENDBLK
  5
1D
330
1B
100
AcDbEntity
 67
     1
  8
0
100
AcDbBlockEnd
  0
ENDSEC
  0
SECTION
  2
ENTITIES
  0
LWPOLYLINE
  5
100
100
AcDbEntity
  8
LAYER_1
 62
7
100
AcDbPolyline
 90
2
 70
0
 10
-5.420700
 20
3.927600
 30
0.0
 10
-4.639700
 20
4.705100
 30
0.0
  0
LWPOLYLINE
  5
101
100
AcDbEntity
  8
LAYER_1
 62
7
100
AcDbPolyline
 90
2
 70
0
 10
-4.639700
 20
3.150000
 30
0.0
 10
-5.420700
 20
3.927600
 30
0.0
  0
LWPOLYLINE
  5
102
100
AcDbEntity
  8
LAYER_1
 62
7
100
AcDbPolyline
 90
2
 70
0
 10
-3.858700
 20
3.927600
 30
0.0
 10
-4.639700
 20
3.150000
 30
0.0
  0
LWPOLYLINE
  5
103
100
AcDbEntity
  8
LAYER_1
 62
7
100
AcDbPolyline
 90
2
 70
0
 10
-4.639700
 20
4.705100
 30
0.0
 10
-3.858700
 20
3.927600
 30
0.0
  0
LWPOLYLINE
  5
104
100
AcDbEntity
  8
LAYER_1
 62
7
100
AcDbPolyline
 90
2
 70
0
 10
-5.163500
 20
-1.377900
 30
0.0
 10
-4.382400
 20
-0.600400
 30
0.0
  0
LWPOLYLINE
  5
105
100
AcDbEntity
  8
LAYER_1
 62
7
100
AcDbPolyline
 90
2
 70
0
 10
-4.382400
 20
-2.155400
 30
0.0
 10
-5.163500
 20
-1.377900
 30
0.0
  0
LWPOLYLINE
  5
106
100
AcDbEntity
  8
LAYER_1
 62
7
100
AcDbPolyline
 90
2
 70
0
 10
-3.601400
 20
-1.377900
 30
0.0
 10
-4.382400
 20
-2.155400
 30
0.0
  0
LWPOLYLINE
  5
107
100
AcDbEntity
  8
LAYER_1
 62
7
100
AcDbPolyline
 90
2
 70
0
 10
-4.382400
 20
-0.600400
 30
0.0
 10
-3.601400
 20
-1.377900
 30
0.0
  0
LWPOLYLINE
  5
108
100
AcDbEntity
  8
LAYER_1
 62
7
100
AcDbPolyline
 90
2
 70
0
 10
-1.929000
 20
-3.719700
 30
0.0
 10
-1.148000
 20
-2.942200
 30
0.0
  0
LWPOLYLINE
  5
109
100
AcDbEntity
  8
LAYER_1
 62
7
100
AcDbPolyline
 90
2
 70
0
 10
-1.148000
 20
-4.497100
 30
0.0
 10
-1.929000
 20
-3.719700
 30
0.0
  0
LWPOLYLINE
  5
10a
100
AcDbEntity
  8
LAYER_1
 62
7
100
AcDbPolyline
 90
2
 70
0
 10
-0.367100
 20
-3.719700
 30
0.0
 10
-1.148000
 20
-4.497100
 30
0.0
  0
LWPOLYLINE
  5
10b
100
AcDbEntity
  8
LAYER_1
 62
7
100
AcDbPolyline
 90
2
 70
0
 10
-1.148000
 20
-2.942200
 30
0.0
 10
-0.367100
 20
-3.719700
 30
0.0
  0
LWPOLYLINE
  5
10c
100
AcDbEntity
  8
LAYER_1
 62
7
100
AcDbPolyline
 90
2
 70
0
 10
3.914800
 20
6.122900
 30
0.0
 10
4.695800
 20
6.900500
 30
0.0
  0
LWPOLYLINE
  5
10d
100
AcDbEntity
  8
LAYER_1
 62
7
100
AcDbPolyline
 90
2
 70
0
 10
4.695800
 20
5.345400
 30
0.0
 10
3.914800
 20
6.122900
 30
0.0
  0
LWPOLYLINE
  5
10e
100
AcDbEntity
  8
LAYER_1
 62
7
100
AcDbPolyline
 90
2
 70
0
 10
5.476800
 20
6.122900
 30
0.0
 10
4.695800
 20
5.345400
 30
0.0
  0
LWPOLYLINE
  5
10f
100
AcDbEntity
  8
LAYER_1
 62
7
100
AcDbPolyline
 90
2
 70
0
 10
4.695800
 20
6.900500
 30
0.0
 10
5.476800
 20
6.122900
 30
0.0
  0
LWPOLYLINE
  5
110
100
AcDbEntity
  8
LAYER_1
 62
7
100
AcDbPolyline
 90
2
 70
0
 10
0.754000
 20
7.659700
 30
0.0
 10
1.534900
 20
8.437200
 30
0.0
  0
LWPOLYLINE
  5
111
100
AcDbEntity
  8
LAYER_1
 62
7
100
AcDbPolyline
 90
2
 70
0
 10
1.534900
 20
6.882200
 30
0.0
 10
0.754000
 20
7.659700
 30
0.0
  0
LWPOLYLINE
  5
112
100
AcDbEntity
  8
LAYER_1
 62
7
100
AcDbPolyline
 90
2
 70
0
 10
2.316000
 20
7.659700
 30
0.0
 10
1.534900
 20
6.882200
 30
0.0
  0
LWPOLYLINE
  5
113
100
AcDbEntity
  8
LAYER_1
 62
7
100
AcDbPolyline
 90
2
 70
0
 10
1.534900
 20
8.437200
 30
0.0
 10
2.316000
 20
7.659700
 30
0.0
  0
LWPOLYLINE
  5
114
100
AcDbEntity
  8
LAYER_1
 62
7
100
AcDbPolyline
 90
2
 70
0
 10
-2.958200
 20
6.964500
 30
0.0
 10
-2.177200
 20
7.742000
 30
0.0
  0
LWPOLYLINE
  5
115
100
AcDbEntity
  8
LAYER_1
 62
7
100
AcDbPolyline
 90
2
 70
0
 10
-2.177200
 20
6.187000
 30
0.0
 10
-2.958200
 20
6.964500
 30
0.0
  0
LWPOLYLINE
  5
116
100
AcDbEntity
  8
LAYER_1
 62
7
100
AcDbPolyline
 90
2
 70
0
 10
-1.396200
 20
6.964500
 30
0.0
 10
-2.177200
 20
6.187000
 30
0.0
  0
LWPOLYLINE
  5
117
100
AcDbEntity
  8
LAYER_1
 62
7
100
AcDbPolyline
 90
2
 70
0
 10
-2.177200
 20
7.742000
 30
0.0
 10
-1.396200
 20
6.964500
 30
0.0
  0
LWPOLYLINE
  5
118
100
AcDbEntity
  8
LAYER_1
 62
7
100
AcDbPolyline
 90
2
 70
0
 10
-7.699500
 20
26.210500
 30
0.0
 10
-6.918500
 20
26.988100
 30
0.0
  0
LWPOLYLINE
  5
119
100
AcDbEntity
  8
LAYER_1
 62
7
100
AcDbPolyline
 90
2
 70
0
 10
-6.918500
 20
25.433100
 30
0.0
 10
-7.699500
 20
26.210500
 30
0.0
  0
LWPOLYLINE
  5
11a
100
AcDbEntity
  8
LAYER_1
 62
7
100
AcDbPolyline
 90
2
 70
0
 10
-6.137400
 20
26.210500
 30
0.0
 10
-6.918500
 20
25.433100
 30
0.0
  0
LWPOLYLINE
  5
11b
100
AcDbEntity
  8
LAYER_1
 62
7
100
AcDbPolyline
 90
2
 70
0
 10
-6.918500
 20
26.988100
 30
0.0
 10
-6.137400
 20
26.210500
 30
0.0
  0
LWPOLYLINE
  5
11c
100
AcDbEntity
  8
LAYER_1
 62
7
100
AcDbPolyline
 90
2
 70
0
 10
-9.610700
 20
26.210500
 30
0.0
 10
-8.829600
 20
26.988100
 30
0.0
  0
LWPOLYLINE
  5
11d
100
AcDbEntity
  8
LAYER_1
 62
7
100
AcDbPolyline
 90
2
 70
0
 10
-8.829600
 20
25.433100
 30
0.0
 10
-9.610700
 20
26.210500
 30
0.0
  0
LWPOLYLINE
  5
11e
100
AcDbEntity
  8
LAYER_1
 62
7
100
AcDbPolyline
 90
2
 70
0
 10
-8.048600
 20
26.210500
 30
0.0
 10
-8.829600
 20
25.433100
 30
0.0
  0
LWPOLYLINE
  5
11f
100
AcDbEntity
  8
LAYER_1
 62
7
100
AcDbPolyline
 90
2
 70
0
 10
-8.829600
 20
26.988100
 30
0.0
 10
-8.048600
 20
26.210500
 30
0.0
  0
LWPOLYLINE
  5
120
100
AcDbEntity
  8
LAYER_1
 62
7
100
AcDbPolyline
 90
2
 70
0
 10
25.528900
 20
-6.322000
 30
0.0
 10
25.528900
 20
-5.301800
 30
0.0
  0
LWPOLYLINE
  5
121
100
AcDbEntity
  8
LAYER_1
 62
7
100
AcDbPolyline
 90
2
 70
0
 10
26.019000
 20
-6.322000
 30
0.0
 10
25.528900
 20
-6.322000
 30
0.0
  0
LWPOLYLINE
  5
122
100
AcDbEntity
  8
LAYER_1
 62
7
100
AcDbPolyline
 90
2
 70
0
 10
26.019000
 20
-5.301800
 30
0.0
 10
26.019000
 20
-6.322000
 30
0.0
  0
LWPOLYLINE
  5
123
100
AcDbEntity
  8
LAYER_1
 62
7
100
AcDbPolyline
 90
2
 70
0
 10
25.528900
 20
-5.301800
 30
0.0
 10
26.019000
 20
-5.301800
 30
0.0
  0
LWPOLYLINE
  5
124
100
AcDbEntity
  8
LAYER_1
 62
7
100
AcDbPolyline
 90
2
 70
0
 10
-11.519100
 20
-10.584700
 30
0.0
 10
-11.519100
 20
-9.564500
 30
0.0
  0
LWPOLYLINE
  5
125
100
AcDbEntity
  8
LAYER_1
 62
7
100
AcDbPolyline
 90
2
 70
0
 10
-11.029000
 20
-10.584700
 30
0.0
 10
-11.519100
 20
-10.584700
 30
0.0
  0
LWPOLYLINE
  5
126
100
AcDbEntity
  8
LAYER_1
 62
7
100
AcDbPolyline
 90
2
 70
0
 10
-11.029000
 20
-9.564500
 30
0.0
 10
-11.029000
 20
-10.584700
 30
0.0
  0
LWPOLYLINE
  5
127
100
AcDbEntity
  8
LAYER_1
 62
7
100
AcDbPolyline
 90
2
 70
0
 10
-11.519100
 20
-9.564500
 30
0.0
 10
-11.029000
 20
-9.564500
 30
0.0
  0
LWPOLYLINE
  5
128
100
AcDbEntity
  8
LAYER_1
 62
7
100
AcDbPolyline
 90
2
 70
0
 10
-11.555800
 20
-16.622000
 30
0.0
 10
-11.555800
 20
-15.601800
 30
0.0
  0
LWPOLYLINE
  5
129
100
AcDbEntity
  8
LAYER_1
 62
7
100
AcDbPolyline
 90
2
 70
0
 10
-11.065700
 20
-16.622000
 30
0.0
 10
-11.555800
 20
-16.622000
 30
0.0
  0
LWPOLYLINE
  5
12a
100
AcDbEntity
  8
LAYER_1
 62
7
100
AcDbPolyline
 90
2
 70
0
 10
-11.065700
 20
-15.601800
 30
0.0
 10
-11.065700
 20
-16.622000
 30
0.0
  0
LWPOLYLINE
  5
12b
100
AcDbEntity
  8
LAYER_1
 62
7
100
AcDbPolyline
 90
2
 70
0
 10
-11.555800
 20
-15.601800
 30
0.0
 10
-11.065700
 20
-15.601800
 30
0.0
  0
LWPOLYLINE
  5
12c
100
AcDbEntity
  8
LAYER_1
 62
7
100
AcDbPolyline
 90
2
 70
0
 10
-16.844500
 20
26.838000
 30
0.0
 10
-17.869300
 20
26.838000
 30
0.0
  0
LWPOLYLINE
  5
12d
100
AcDbEntity
  8
LAYER_1
 62
7
100
AcDbPolyline
 90
2
 70
0
 10
-16.844500
 20
27.325900
 30
0.0
 10
-16.844500
 20
26.838000
 30
0.0
  0
LWPOLYLINE
  5
12e
100
AcDbEntity
  8
LAYER_1
 62
7
100
AcDbPolyline
 90
2
 70
0
 10
-17.869300
 20
27.325900
 30
0.0
 10
-16.844500
 20
27.325900
 30
0.0
  0
LWPOLYLINE
  5
12f
100
AcDbEntity
  8
LAYER_1
 62
7
100
AcDbPolyline
 90
2
 70
0
 10
-17.869300
 20
26.838000
 30
0.0
 10
-17.869300
 20
27.325900
 30
0.0
  0
LWPOLYLINE
  5
130
100
AcDbEntity
  8
LAYER_1
 62
7
100
AcDbPolyline
 90
2
 70
0
 10
17.663600
 20
-1.602100
 30
0.0
 10
17.663600
 20
-0.581900
 30
0.0
  0
LWPOLYLINE
  5
131
100
AcDbEntity
  8
LAYER_1
 62
7
100
AcDbPolyline
 90
2
 70
0
 10
18.153700
 20
-1.602100
 30
0.0
 10
17.663600
 20
-1.602100
 30
0.0
  0
LWPOLYLINE
  5
132
100
AcDbEntity
  8
LAYER_1
 62
7
100
AcDbPolyline
 90
2
 70
0
 10
18.153700
 20
-0.581900
 30
0.0
 10
18.153700
 20
-1.602100
 30
0.0
  0
LWPOLYLINE
  5
133
100
AcDbEntity
  8
LAYER_1
 62
7
100
AcDbPolyline
 90
2
 70
0
 10
17.663600
 20
-0.581900
 30
0.0
 10
18.153700
 20
-0.581900
 30
0.0
  0
LWPOLYLINE
  5
134
100
AcDbEntity
  8
LAYER_1
 62
7
100
AcDbPolyline
 90
2
 70
0
 10
22.206700
 20
6.494300
 30
0.0
 10
21.181900
 20
6.494300
 30
0.0
  0
LWPOLYLINE
  5
135
100
AcDbEntity
  8
LAYER_1
 62
7
100
AcDbPolyline
 90
2
 70
0
 10
22.206700
 20
6.982200
 30
0.0
 10
22.206700
 20
6.494300
 30
0.0
  0
LWPOLYLINE
  5
136
100
AcDbEntity
  8
LAYER_1
 62
7
100
AcDbPolyline
 90
2
 70
0
 10
21.181900
 20
6.982200
 30
0.0
 10
22.206700
 20
6.982200
 30
0.0
  0
LWPOLYLINE
  5
137
100
AcDbEntity
  8
LAYER_1
 62
7
100
AcDbPolyline
 90
2
 70
0
 10
21.181900
 20
6.494300
 30
0.0
 10
21.181900
 20
6.982200
 30
0.0
  0
LWPOLYLINE
  5
138
100
AcDbEntity
  8
LAYER_1
 62
7
100
AcDbPolyline
 90
2
 70
0
 10
21.008200
 20
4.801100
 30
0.0
 10
21.008200
 20
5.821300
 30
0.0
  0
LWPOLYLINE
  5
139
100
AcDbEntity
  8
LAYER_1
 62
7
100
AcDbPolyline
 90
2
 70
0
 10
21.498300
 20
4.801100
 30
0.0
 10
21.008200
 20
4.801100
 30
0.0
  0
LWPOLYLINE
  5
13a
100
AcDbEntity
  8
LAYER_1
 62
7
100
AcDbPolyline
 90
2
 70
0
 10
21.498300
 20
5.821300
 30
0.0
 10
21.498300
 20
4.801100
 30
0.0
  0
LWPOLYLINE
  5
13b
100
AcDbEntity
  8
LAYER_1
 62
7
100
AcDbPolyline
 90
2
 70
0
 10
21.008200
 20
5.821300
 30
0.0
 10
21.498300
 20
5.821300
 30
0.0
  0
LWPOLYLINE
  5
13c
100
AcDbEntity
  8
LAYER_1
 62
7
100
AcDbPolyline
 90
2
 70
0
 10
17.920900
 20
23.974000
 30
0.0
 10
17.920900
 20
24.994200
 30
0.0
  0
LWPOLYLINE
  5
13d
100
AcDbEntity
  8
LAYER_1
 62
7
100
AcDbPolyline
 90
2
 70
0
 10
18.411000
 20
23.974000
 30
0.0
 10
17.920900
 20
23.974000
 30
0.0
  0
LWPOLYLINE
  5
13e
100
AcDbEntity
  8
LAYER_1
 62
7
100
AcDbPolyline
 90
2
 70
0
 10
18.411000
 20
24.994200
 30
0.0
 10
18.411000
 20
23.974000
 30
0.0
  0
LWPOLYLINE
  5
13f
100
AcDbEntity
  8
LAYER_1
 62
7
100
AcDbPolyline
 90
2
 70
0
 10
17.920900
 20
24.994200
 30
0.0
 10
18.411000
 20
24.994200
 30
0.0
  0
LWPOLYLINE
  5
140
100
AcDbEntity
  8
LAYER_1
 62
7
100
AcDbPolyline
 90
2
 70
0
 10
0.172600
 20
9.128800
 30
0.0
 10
-0.852200
 20
9.128800
 30
0.0
  0
LWPOLYLINE
  5
141
100
AcDbEntity
  8
LAYER_1
 62
7
100
AcDbPolyline
 90
2
 70
0
 10
0.172600
 20
9.616600
 30
0.0
 10
0.172600
 20
9.128800
 30
0.0
  0
LWPOLYLINE
  5
142
100
AcDbEntity
  8
LAYER_1
 62
7
100
AcDbPolyline
 90
2
 70
0
 10
-0.852200
 20
9.616600
 30
0.0
 10
0.172600
 20
9.616600
 30
0.0
  0
LWPOLYLINE
  5
143
100
AcDbEntity
  8
LAYER_1
 62
7
100
AcDbPolyline
 90
2
 70
0
 10
-0.852200
 20
9.128800
 30
0.0
 10
-0.852200
 20
9.616600
 30
0.0
  0
LWPOLYLINE
  5
144
100
AcDbEntity
  8
LAYER_1
 62
7
100
AcDbPolyline
 90
2
 70
0
 10
31.873000
 20
-11.763800
 30
0.0
 10
30.848200
 20
-11.763800
 30
0.0
  0
LWPOLYLINE
  5
145
100
AcDbEntity
  8
LAYER_1
 62
7
100
AcDbPolyline
 90
2
 70
0
 10
31.873000
 20
-11.275900
 30
0.0
 10
31.873000
 20
-11.763800
 30
0.0
  0
LWPOLYLINE
  5
146
100
AcDbEntity
  8
LAYER_1
 62
7
100
AcDbPolyline
 90
2
 70
0
 10
30.848200
 20
-11.275900
 30
0.0
 10
31.873000
 20
-11.275900
 30
0.0
  0
LWPOLYLINE
  5
147
100
AcDbEntity
  8
LAYER_1
 62
7
100
AcDbPolyline
 90
2
 70
0
 10
30.848200
 20
-11.763800
 30
0.0
 10
30.848200
 20
-11.275900
 30
0.0
  0
LWPOLYLINE
  5
148
100
AcDbEntity
  8
LAYER_1
 62
7
100
AcDbPolyline
 90
2
 70
0
 10
5.939100
 20
-3.687600
 30
0.0
 10
5.939100
 20
-2.667400
 30
0.0
  0
LWPOLYLINE
  5
149
100
AcDbEntity
  8
LAYER_1
 62
7
100
AcDbPolyline
 90
2
 70
0
 10
6.429200
 20
-3.687600
 30
0.0
 10
5.939100
 20
-3.687600
 30
0.0
  0
LWPOLYLINE
  5
14a
100
AcDbEntity
  8
LAYER_1
 62
7
100
AcDbPolyline
 90
2
 70
0
 10
6.429200
 20
-2.667400
 30
0.0
 10
6.429200
 20
-3.687600
 30
0.0
  0
LWPOLYLINE
  5
14b
100
AcDbEntity
  8
LAYER_1
 62
7
100
AcDbPolyline
 90
2
 70
0
 10
5.939100
 20
-2.667400
 30
0.0
 10
6.429200
 20
-2.667400
 30
0.0
  0
LWPOLYLINE
  5
14c
100
AcDbEntity
  8
LAYER_1
 62
7
100
AcDbPolyline
 90
2
 70
0
 10
8.695600
 20
-2.187400
 30
0.0
 10
8.695600
 20
-1.167200
 30
0.0
  0
LWPOLYLINE
  5
14d
100
AcDbEntity
  8
LAYER_1
 62
7
100
AcDbPolyline
 90
2
 70
0
 10
9.185700
 20
-2.187400
 30
0.0
 10
8.695600
 20
-2.187400
 30
0.0
  0
LWPOLYLINE
  5
14e
100
AcDbEntity
  8
LAYER_1
 62
7
100
AcDbPolyline
 90
2
 70
0
 10
9.185700
 20
-1.167200
 30
0.0
 10
9.185700
 20
-2.187400
 30
0.0
  0
LWPOLYLINE
  5
14f
100
AcDbEntity
  8
LAYER_1
 62
7
100
AcDbPolyline
 90
2
 70
0
 10
8.695600
 20
-1.167200
 30
0.0
 10
9.185700
 20
-1.167200
 30
0.0
  0
LWPOLYLINE
  5
150
100
AcDbEntity
  8
LAYER_1
 62
7
100
AcDbPolyline
 90
2
 70
0
 10
11.415400
 20
-2.260600
 30
0.0
 10
11.415400
 20
-1.240400
 30
0.0
  0
LWPOLYLINE
  5
151
100
AcDbEntity
  8
LAYER_1
 62
7
100
AcDbPolyline
 90
2
 70
0
 10
11.905500
 20
-2.260600
 30
0.0
 10
11.415400
 20
-2.260600
 30
0.0
  0
LWPOLYLINE
  5
152
100
AcDbEntity
  8
LAYER_1
 62
7
100
AcDbPolyline
 90
2
 70
0
 10
11.905500
 20
-1.240400
 30
0.0
 10
11.905500
 20
-2.260600
 30
0.0
  0
LWPOLYLINE
  5
153
100
AcDbEntity
  8
LAYER_1
 62
7
100
AcDbPolyline
 90
2
 70
0
 10
11.415400
 20
-1.240400
 30
0.0
 10
11.905500
 20
-1.240400
 30
0.0
  0
LWPOLYLINE
  5
154
100
AcDbEntity
  8
LAYER_1
 62
7
100
AcDbPolyline
 90
2
 70
0
 10
12.297500
 20
-2.260600
 30
0.0
 10
12.297500
 20
-1.240400
 30
0.0
  0
LWPOLYLINE
  5
155
100
AcDbEntity
  8
LAYER_1
 62
7
100
AcDbPolyline
 90
2
 70
0
 10
12.787600
 20
-2.260600
 30
0.0
 10
12.297500
 20
-2.260600
 30
0.0
  0
LWPOLYLINE
  5
156
100
AcDbEntity
  8
LAYER_1
 62
7
100
AcDbPolyline
 90
2
 70
0
 10
12.787600
 20
-1.240400
 30
0.0
 10
12.787600
 20
-2.260600
 30
0.0
  0
LWPOLYLINE
  5
157
100
AcDbEntity
  8
LAYER_1
 62
7
100
AcDbPolyline
 90
2
 70
0
 10
12.297500
 20
-1.240400
 30
0.0
 10
12.787600
 20
-1.240400
 30
0.0
  0
LWPOLYLINE
  5
158
100
AcDbEntity
  8
LAYER_1
 62
7
100
AcDbPolyline
 90
2
 70
0
 10
13.326600
 20
-2.260600
 30
0.0
 10
13.326600
 20
-1.240400
 30
0.0
  0
LWPOLYLINE
  5
159
100
AcDbEntity
  8
LAYER_1
 62
7
100
AcDbPolyline
 90
2
 70
0
 10
13.816700
 20
-2.260600
 30
0.0
 10
13.326600
 20
-2.260600
 30
0.0
  0
LWPOLYLINE
  5
15a
100
AcDbEntity
  8
LAYER_1
 62
7
100
AcDbPolyline
 90
2
 70
0
 10
13.816700
 20
-1.240400
 30
0.0
 10
13.816700
 20
-2.260600
 30
0.0
  0
LWPOLYLINE
  5
15b
100
AcDbEntity
  8
LAYER_1
 62
7
100
AcDbPolyline
 90
2
 70
0
 10
13.326600
 20
-1.240400
 30
0.0
 10
13.816700
 20
-1.240400
 30
0.0
  0
LWPOLYLINE
  5
15c
100
AcDbEntity
  8
LAYER_1
 62
7
100
AcDbPolyline
 90
2
 70
0
 10
17.149000
 20
-5.443900
 30
0.0
 10
17.149000
 20
-4.423700
 30
0.0
  0
LWPOLYLINE
  5
15d
100
AcDbEntity
  8
LAYER_1
 62
7
100
AcDbPolyline
 90
2
 70
0
 10
17.639100
 20
-5.443900
 30
0.0
 10
17.149000
 20
-5.443900
 30
0.0
  0
LWPOLYLINE
  5
15e
100
AcDbEntity
  8
LAYER_1
 62
7
100
AcDbPolyline
 90
2
 70
0
 10
17.639100
 20
-4.423700
 30
0.0
 10
17.639100
 20
-5.443900
 30
0.0
  0
LWPOLYLINE
  5
15f
100
AcDbEntity
  8
LAYER_1
 62
7
100
AcDbPolyline
 90
2
 70
0
 10
17.149000
 20
-4.423700
 30
0.0
 10
17.639100
 20
-4.423700
 30
0.0
  0
LWPOLYLINE
  5
160
100
AcDbEntity
  8
LAYER_1
 62
7
100
AcDbPolyline
 90
2
 70
0
 10
6.146300
 20
-5.466500
 30
0.0
 10
4.422700
 20
-5.466500
 30
0.0
  0
LWPOLYLINE
  5
161
100
AcDbEntity
  8
LAYER_1
 62
7
100
AcDbPolyline
 90
2
 70
0
 10
6.146300
 20
-4.639500
 30
0.0
 10
6.146300
 20
-5.466500
 30
0.0
  0
LWPOLYLINE
  5
162
100
AcDbEntity
  8
LAYER_1
 62
7
100
AcDbPolyline
 90
2
 70
0
 10
4.422700
 20
-4.639500
 30
0.0
 10
6.146300
 20
-4.639500
 30
0.0
  0
LWPOLYLINE
  5
163
100
AcDbEntity
  8
LAYER_1
 62
7
100
AcDbPolyline
 90
2
 70
0
 10
4.422700
 20
-5.466500
 30
0.0
 10
4.422700
 20
-4.639500
 30
0.0
  0
LWPOLYLINE
  5
164
100
AcDbEntity
  8
LAYER_1
 62
7
100
AcDbPolyline
 90
2
 70
0
 10
3.572400
 20
-5.982800
 30
0.0
 10
2.547700
 20
-5.982800
 30
0.0
  0
LWPOLYLINE
  5
165
100
AcDbEntity
  8
LAYER_1
 62
7
100
AcDbPolyline
 90
2
 70
0
 10
3.572400
 20
-5.494900
 30
0.0
 10
3.572400
 20
-5.982800
 30
0.0
  0
LWPOLYLINE
  5
166
100
AcDbEntity
  8
LAYER_1
 62
7
100
AcDbPolyline
 90
2
 70
0
 10
2.547700
 20
-5.494900
 30
0.0
 10
3.572400
 20
-5.494900
 30
0.0
  0
LWPOLYLINE
  5
167
100
AcDbEntity
  8
LAYER_1
 62
7
100
AcDbPolyline
 90
2
 70
0
 10
2.547700
 20
-5.982800
 30
0.0
 10
2.547700
 20
-5.494900
 30
0.0
  0
LWPOLYLINE
  5
168
100
AcDbEntity
  8
LAYER_1
 62
7
100
AcDbPolyline
 90
2
 70
0
 10
3.572400
 20
-7.007300
 30
0.0
 10
2.547700
 20
-7.007300
 30
0.0
  0
LWPOLYLINE
  5
169
100
AcDbEntity
  8
LAYER_1
 62
7
100
AcDbPolyline
 90
2
 70
0
 10
3.572400
 20
-6.519400
 30
0.0
 10
3.572400
 20
-7.007300
 30
0.0
  0
LWPOLYLINE
  5
16a
100
AcDbEntity
  8
LAYER_1
 62
7
100
AcDbPolyline
 90
2
 70
0
 10
2.547700
 20
-6.519400
 30
0.0
 10
3.572400
 20
-6.519400
 30
0.0
  0
LWPOLYLINE
  5
16b
100
AcDbEntity
  8
LAYER_1
 62
7
100
AcDbPolyline
 90
2
 70
0
 10
2.547700
 20
-7.007300
 30
0.0
 10
2.547700
 20
-6.519400
 30
0.0
  0
LWPOLYLINE
  5
16c
100
AcDbEntity
  8
LAYER_1
 62
7
100
AcDbPolyline
 90
2
 70
0
 10
23.764800
 20
-8.627200
 30
0.0
 10
23.764800
 20
-7.607000
 30
0.0
  0
LWPOLYLINE
  5
16d
100
AcDbEntity
  8
LAYER_1
 62
7
100
AcDbPolyline
 90
2
 70
0
 10
24.254800
 20
-8.627200
 30
0.0
 10
23.764800
 20
-8.627200
 30
0.0
  0
LWPOLYLINE
  5
16e
100
AcDbEntity
  8
LAYER_1
 62
7
100
AcDbPolyline
 90
2
 70
0
 10
24.254800
 20
-7.607000
 30
0.0
 10
24.254800
 20
-8.627200
 30
0.0
  0
LWPOLYLINE
  5
16f
100
AcDbEntity
  8
LAYER_1
 62
7
100
AcDbPolyline
 90
2
 70
0
 10
23.764800
 20
-7.607000
 30
0.0
 10
24.254800
 20
-7.607000
 30
0.0
  0
LWPOLYLINE
  5
170
100
AcDbEntity
  8
LAYER_1
 62
7
100
AcDbPolyline
 90
2
 70
0
 10
24.720400
 20
-8.627200
 30
0.0
 10
24.720400
 20
-7.607000
 30
0.0
  0
LWPOLYLINE
  5
171
100
AcDbEntity
  8
LAYER_1
 62
7
100
AcDbPolyline
 90
2
 70
0
 10
25.210500
 20
-8.627200
 30
0.0
 10
24.720400
 20
-8.627200
 30
0.0
  0
LWPOLYLINE
  5
172
100
AcDbEntity
  8
LAYER_1
 62
7
100
AcDbPolyline
 90
2
 70
0
 10
25.210500
 20
-7.607000
 30
0.0
 10
25.210500
 20
-8.627200
 30
0.0
  0
LWPOLYLINE
  5
173
100
AcDbEntity
  8
LAYER_1
 62
7
100
AcDbPolyline
 90
2
 70
0
 10
24.720400
 20
-7.607000
 30
0.0
 10
25.210500
 20
-7.607000
 30
0.0
  0
LWPOLYLINE
  5
174
100
AcDbEntity
  8
LAYER_1
 62
7
100
AcDbPolyline
 90
2
 70
0
 10
25.933300
 20
-8.627200
 30
0.0
 10
25.933300
 20
-7.607000
 30
0.0
  0
LWPOLYLINE
  5
175
100
AcDbEntity
  8
LAYER_1
 62
7
100
AcDbPolyline
 90
2
 70
0
 10
26.423300
 20
-8.627200
 30
0.0
 10
25.933300
 20
-8.627200
 30
0.0
  0
LWPOLYLINE
  5
176
100
AcDbEntity
  8
LAYER_1
 62
7
100
AcDbPolyline
 90
2
 70
0
 10
26.423300
 20
-7.607000
 30
0.0
 10
26.423300
 20
-8.627200
 30
0.0
  0
LWPOLYLINE
  5
177
100
AcDbEntity
  8
LAYER_1
 62
7
100
AcDbPolyline
 90
2
 70
0
 10
25.933300
 20
-7.607000
 30
0.0
 10
26.423300
 20
-7.607000
 30
0.0
  0
LWPOLYLINE
  5
178
100
AcDbEntity
  8
LAYER_1
 62
7
100
AcDbPolyline
 90
2
 70
0
 10
27.793300
 20
-6.385200
 30
0.0
 10
26.768500
 20
-6.385200
 30
0.0
  0
LWPOLYLINE
  5
179
100
AcDbEntity
  8
LAYER_1
 62
7
100
AcDbPolyline
 90
2
 70
0
 10
27.793300
 20
-5.897300
 30
0.0
 10
27.793300
 20
-6.385200
 30
0.0
  0
LWPOLYLINE
  5
17a
100
AcDbEntity
  8
LAYER_1
 62
7
100
AcDbPolyline
 90
2
 70
0
 10
26.768500
 20
-5.897300
 30
0.0
 10
27.793300
 20
-5.897300
 30
0.0
  0
LWPOLYLINE
  5
17b
100
AcDbEntity
  8
LAYER_1
 62
7
100
AcDbPolyline
 90
2
 70
0
 10
26.768500
 20
-6.385200
 30
0.0
 10
26.768500
 20
-5.897300
 30
0.0
  0
LWPOLYLINE
  5
17c
100
AcDbEntity
  8
LAYER_1
 62
7
100
AcDbPolyline
 90
2
 70
0
 10
27.683100
 20
-5.470500
 30
0.0
 10
26.658300
 20
-5.470500
 30
0.0
  0
LWPOLYLINE
  5
17d
100
AcDbEntity
  8
LAYER_1
 62
7
100
AcDbPolyline
 90
2
 70
0
 10
27.683100
 20
-4.982600
 30
0.0
 10
27.683100
 20
-5.470500
 30
0.0
  0
LWPOLYLINE
  5
17e
100
AcDbEntity
  8
LAYER_1
 62
7
100
AcDbPolyline
 90
2
 70
0
 10
26.658300
 20
-4.982600
 30
0.0
 10
27.683100
 20
-4.982600
 30
0.0
  0
LWPOLYLINE
  5
17f
100
AcDbEntity
  8
LAYER_1
 62
7
100
AcDbPolyline
 90
2
 70
0
 10
26.658300
 20
-5.470500
 30
0.0
 10
26.658300
 20
-4.982600
 30
0.0
  0
LWPOLYLINE
  5
180
100
AcDbEntity
  8
LAYER_1
 62
7
100
AcDbPolyline
 90
2
 70
0
 10
27.095000
 20
2.432900
 30
0.0
 10
26.070200
 20
2.432900
 30
0.0
  0
LWPOLYLINE
  5
181
100
AcDbEntity
  8
LAYER_1
 62
7
100
AcDbPolyline
 90
2
 70
0
 10
27.095000
 20
2.920700
 30
0.0
 10
27.095000
 20
2.432900
 30
0.0
  0
LWPOLYLINE
  5
182
100
AcDbEntity
  8
LAYER_1
 62
7
100
AcDbPolyline
 90
2
 70
0
 10
26.070200
 20
2.920700
 30
0.0
 10
27.095000
 20
2.920700
 30
0.0
  0
LWPOLYLINE
  5
183
100
AcDbEntity
  8
LAYER_1
 62
7
100
AcDbPolyline
 90
2
 70
0
 10
26.070200
 20
2.432900
 30
0.0
 10
26.070200
 20
2.920700
 30
0.0
  0
LWPOLYLINE
  5
184
100
AcDbEntity
  8
LAYER_1
 62
7
100
AcDbPolyline
 90
2
 70
0
 10
-1.632200
 20
15.924400
 30
0.0
 10
-1.632200
 20
16.944600
 30
0.0
  0
LWPOLYLINE
  5
185
100
AcDbEntity
  8
LAYER_1
 62
7
100
AcDbPolyline
 90
2
 70
0
 10
-1.142100
 20
15.924400
 30
0.0
 10
-1.632200
 20
15.924400
 30
0.0
  0
LWPOLYLINE
  5
186
100
AcDbEntity
  8
LAYER_1
 62
7
100
AcDbPolyline
 90
2
 70
0
 10
-1.142100
 20
16.944600
 30
0.0
 10
-1.142100
 20
15.924400
 30
0.0
  0
LWPOLYLINE
  5
187
100
AcDbEntity
  8
LAYER_1
 62
7
100
AcDbPolyline
 90
2
 70
0
 10
-1.632200
 20
16.944600
 30
0.0
 10
-1.142100
 20
16.944600
 30
0.0
  0
LWPOLYLINE
  5
188
100
AcDbEntity
  8
LAYER_1
 62
7
100
AcDbPolyline
 90
2
 70
0
 10
0.132000
 20
16.583000
 30
0.0
 10
0.132000
 20
17.603200
 30
0.0
  0
LWPOLYLINE
  5
189
100
AcDbEntity
  8
LAYER_1
 62
7
100
AcDbPolyline
 90
2
 70
0
 10
0.622000
 20
16.583000
 30
0.0
 10
0.132000
 20
16.583000
 30
0.0
  0
LWPOLYLINE
  5
18a
100
AcDbEntity
  8
LAYER_1
 62
7
100
AcDbPolyline
 90
2
 70
0
 10
0.622000
 20
17.603200
 30
0.0
 10
0.622000
 20
16.583000
 30
0.0
  0
LWPOLYLINE
  5
18b
100
AcDbEntity
  8
LAYER_1
 62
7
100
AcDbPolyline
 90
2
 70
0
 10
0.132000
 20
17.603200
 30
0.0
 10
0.622000
 20
17.603200
 30
0.0
  0
LWPOLYLINE
  5
18c
100
AcDbEntity
  8
LAYER_1
 62
7
100
AcDbPolyline
 90
2
 70
0
 10
2.741500
 20
16.619600
 30
0.0
 10
2.741500
 20
17.639800
 30
0.0
  0
LWPOLYLINE
  5
18d
100
AcDbEntity
  8
LAYER_1
 62
7
100
AcDbPolyline
 90
2
 70
0
 10
3.231600
 20
16.619600
 30
0.0
 10
2.741500
 20
16.619600
 30
0.0
  0
LWPOLYLINE
  5
18e
100
AcDbEntity
  8
LAYER_1
 62
7
100
AcDbPolyline
 90
2
 70
0
 10
3.231600
 20
17.639800
 30
0.0
 10
3.231600
 20
16.619600
 30
0.0
  0
LWPOLYLINE
  5
18f
100
AcDbEntity
  8
LAYER_1
 62
7
100
AcDbPolyline
 90
2
 70
0
 10
2.741500
 20
17.639800
 30
0.0
 10
3.231600
 20
17.639800
 30
0.0
  0
LWPOLYLINE
  5
190
100
AcDbEntity
  8
LAYER_1
 62
7
100
AcDbPolyline
 90
2
 70
0
 10
14.892700
 20
4.262300
 30
0.0
 10
13.867900
 20
4.262300
 30
0.0
  0
LWPOLYLINE
  5
191
100
AcDbEntity
  8
LAYER_1
 62
7
100
AcDbPolyline
 90
2
 70
0
 10
14.892700
 20
4.750200
 30
0.0
 10
14.892700
 20
4.262300
 30
0.0
  0
LWPOLYLINE
  5
192
100
AcDbEntity
  8
LAYER_1
 62
7
100
AcDbPolyline
 90
2
 70
0
 10
13.867900
 20
4.750200
 30
0.0
 10
14.892700
 20
4.750200
 30
0.0
  0
LWPOLYLINE
  5
193
100
AcDbEntity
  8
LAYER_1
 62
7
100
AcDbPolyline
 90
2
 70
0
 10
13.867900
 20
4.262300
 30
0.0
 10
13.867900
 20
4.750200
 30
0.0
  0
LWPOLYLINE
  5
194
100
AcDbEntity
  8
LAYER_1
 62
7
100
AcDbPolyline
 90
2
 70
0
 10
14.745700
 20
3.128000
 30
0.0
 10
13.720900
 20
3.128000
 30
0.0
  0
LWPOLYLINE
  5
195
100
AcDbEntity
  8
LAYER_1
 62
7
100
AcDbPolyline
 90
2
 70
0
 10
14.745700
 20
3.615900
 30
0.0
 10
14.745700
 20
3.128000
 30
0.0
  0
LWPOLYLINE
  5
196
100
AcDbEntity
  8
LAYER_1
 62
7
100
AcDbPolyline
 90
2
 70
0
 10
13.720900
 20
3.615900
 30
0.0
 10
14.745700
 20
3.615900
 30
0.0
  0
LWPOLYLINE
  5
197
100
AcDbEntity
  8
LAYER_1
 62
7
100
AcDbPolyline
 90
2
 70
0
 10
13.720900
 20
3.128000
 30
0.0
 10
13.720900
 20
3.615900
 30
0.0
  0
LWPOLYLINE
  5
198
100
AcDbEntity
  8
LAYER_1
 62
7
100
AcDbPolyline
 90
2
 70
0
 10
21.287900
 20
0.603400
 30
0.0
 10
20.263100
 20
0.603400
 30
0.0
  0
LWPOLYLINE
  5
199
100
AcDbEntity
  8
LAYER_1
 62
7
100
AcDbPolyline
 90
2
 70
0
 10
21.287900
 20
1.091300
 30
0.0
 10
21.287900
 20
0.603400
 30
0.0
  0
LWPOLYLINE
  5
19a
100
AcDbEntity
  8
LAYER_1
 62
7
100
AcDbPolyline
 90
2
 70
0
 10
20.263100
 20
1.091300
 30
0.0
 10
21.287900
 20
1.091300
 30
0.0
  0
LWPOLYLINE
  5
19b
100
AcDbEntity
  8
LAYER_1
 62
7
100
AcDbPolyline
 90
2
 70
0
 10
20.263100
 20
0.603400
 30
0.0
 10
20.263100
 20
1.091300
 30
0.0
  0
LWPOLYLINE
  5
19c
100
AcDbEntity
  8
LAYER_1
 62
7
100
AcDbPolyline
 90
2
 70
0
 10
24.095600
 20
-2.150800
 30
0.0
 10
24.095600
 20
-1.130600
 30
0.0
  0
LWPOLYLINE
  5
19d
100
AcDbEntity
  8
LAYER_1
 62
7
100
AcDbPolyline
 90
2
 70
0
 10
24.585700
 20
-2.150800
 30
0.0
 10
24.095600
 20
-2.150800
 30
0.0
  0
LWPOLYLINE
  5
19e
100
AcDbEntity
  8
LAYER_1
 62
7
100
AcDbPolyline
 90
2
 70
0
 10
24.585700
 20
-1.130600
 30
0.0
 10
24.585700
 20
-2.150800
 30
0.0
  0
LWPOLYLINE
  5
19f
100
AcDbEntity
  8
LAYER_1
 62
7
100
AcDbPolyline
 90
2
 70
0
 10
24.095600
 20
-1.130600
 30
0.0
 10
24.585700
 20
-1.130600
 30
0.0
  0
LWPOLYLINE
  5
1a0
100
AcDbEntity
  8
LAYER_1
 62
7
100
AcDbPolyline
 90
2
 70
0
 10
25.147000
 20
-0.347900
 30
0.0
 10
24.122200
 20
-0.347900
 30
0.0
  0
LWPOLYLINE
  5
1a1
100
AcDbEntity
  8
LAYER_1
 62
7
100
AcDbPolyline
 90
2
 70
0
 10
25.147000
 20
0.140000
 30
0.0
 10
25.147000
 20
-0.347900
 30
0.0
  0
LWPOLYLINE
  5
1a2
100
AcDbEntity
  8
LAYER_1
 62
7
100
AcDbPolyline
 90
2
 70
0
 10
24.122200
 20
0.140000
 30
0.0
 10
25.147000
 20
0.140000
 30
0.0
  0
LWPOLYLINE
  5
1a3
100
AcDbEntity
  8
LAYER_1
 62
7
100
AcDbPolyline
 90
2
 70
0
 10
24.122200
 20
-0.347900
 30
0.0
 10
24.122200
 20
0.140000
 30
0.0
  0
LWPOLYLINE
  5
1a4
100
AcDbEntity
  8
LAYER_1
 62
7
100
AcDbPolyline
 90
2
 70
0
 10
25.087900
 20
-2.187400
 30
0.0
 10
25.087900
 20
-1.167200
 30
0.0
  0
LWPOLYLINE
  5
1a5
100
AcDbEntity
  8
LAYER_1
 62
7
100
AcDbPolyline
 90
2
 70
0
 10
25.578000
 20
-2.187400
 30
0.0
 10
25.087900
 20
-2.187400
 30
0.0
  0
LWPOLYLINE
  5
1a6
100
AcDbEntity
  8
LAYER_1
 62
7
100
AcDbPolyline
 90
2
 70
0
 10
25.578000
 20
-1.167200
 30
0.0
 10
25.578000
 20
-2.187400
 30
0.0
  0
LWPOLYLINE
  5
1a7
100
AcDbEntity
  8
LAYER_1
 62
7
100
AcDbPolyline
 90
2
 70
0
 10
25.087900
 20
-1.167200
 30
0.0
 10
25.578000
 20
-1.167200
 30
0.0
  0
LWPOLYLINE
  5
1a8
100
AcDbEntity
  8
LAYER_1
 62
7
100
AcDbPolyline
 90
2
 70
0
 10
13.510400
 20
9.667600
 30
0.0
 10
13.510400
 20
10.687800
 30
0.0
  0
LWPOLYLINE
  5
1a9
100
AcDbEntity
  8
LAYER_1
 62
7
100
AcDbPolyline
 90
2
 70
0
 10
14.000500
 20
9.667600
 30
0.0
 10
13.510400
 20
9.667600
 30
0.0
  0
LWPOLYLINE
  5
1aa
100
AcDbEntity
  8
LAYER_1
 62
7
100
AcDbPolyline
 90
2
 70
0
 10
14.000500
 20
10.687800
 30
0.0
 10
14.000500
 20
9.667600
 30
0.0
  0
LWPOLYLINE
  5
1ab
100
AcDbEntity
  8
LAYER_1
 62
7
100
AcDbPolyline
 90
2
 70
0
 10
13.510400
 20
10.687800
 30
0.0
 10
14.000500
 20
10.687800
 30
0.0
  0
LWPOLYLINE
  5
1ac
100
AcDbEntity
  8
LAYER_1
 62
7
100
AcDbPolyline
 90
2
 70
0
 10
12.628300
 20
9.667600
 30
0.0
 10
12.628300
 20
10.687800
 30
0.0
  0
LWPOLYLINE
  5
1ad
100
AcDbEntity
  8
LAYER_1
 62
7
100
AcDbPolyline
 90
2
 70
0
 10
13.118400
 20
9.667600
 30
0.0
 10
12.628300
 20
9.667600
 30
0.0
  0
LWPOLYLINE
  5
1ae
100
AcDbEntity
  8
LAYER_1
 62
7
100
AcDbPolyline
 90
2
 70
0
 10
13.118400
 20
10.687800
 30
0.0
 10
13.118400
 20
9.667600
 30
0.0
  0
LWPOLYLINE
  5
1af
100
AcDbEntity
  8
LAYER_1
 62
7
100
AcDbPolyline
 90
2
 70
0
 10
12.628300
 20
10.687800
 30
0.0
 10
13.118400
 20
10.687800
 30
0.0
  0
LWPOLYLINE
  5
1b0
100
AcDbEntity
  8
LAYER_1
 62
7
100
AcDbPolyline
 90
2
 70
0
 10
14.723300
 20
1.434900
 30
0.0
 10
14.723300
 20
2.455100
 30
0.0
  0
LWPOLYLINE
  5
1b1
100
AcDbEntity
  8
LAYER_1
 62
7
100
AcDbPolyline
 90
2
 70
0
 10
15.213400
 20
1.434900
 30
0.0
 10
14.723300
 20
1.434900
 30
0.0
  0
LWPOLYLINE
  5
1b2
100
AcDbEntity
  8
LAYER_1
 62
7
100
AcDbPolyline
 90
2
 70
0
 10
15.213400
 20
2.455100
 30
0.0
 10
15.213400
 20
1.434900
 30
0.0
  0
LWPOLYLINE
  5
1b3
100
AcDbEntity
  8
LAYER_1
 62
7
100
AcDbPolyline
 90
2
 70
0
 10
14.723300
 20
2.455100
 30
0.0
 10
15.213400
 20
2.455100
 30
0.0
  0
LWPOLYLINE
  5
1b4
100
AcDbEntity
  8
LAYER_1
 62
7
100
AcDbPolyline
 90
2
 70
0
 10
15.642100
 20
1.471500
 30
0.0
 10
15.642100
 20
2.491700
 30
0.0
  0
LWPOLYLINE
  5
1b5
100
AcDbEntity
  8
LAYER_1
 62
7
100
AcDbPolyline
 90
2
 70
0
 10
16.132200
 20
1.471500
 30
0.0
 10
15.642100
 20
1.471500
 30
0.0
  0
LWPOLYLINE
  5
1b6
100
AcDbEntity
  8
LAYER_1
 62
7
100
AcDbPolyline
 90
2
 70
0
 10
16.132200
 20
2.491700
 30
0.0
 10
16.132200
 20
1.471500
 30
0.0
  0
LWPOLYLINE
  5
1b7
100
AcDbEntity
  8
LAYER_1
 62
7
100
AcDbPolyline
 90
2
 70
0
 10
15.642100
 20
2.491700
 30
0.0
 10
16.132200
 20
2.491700
 30
0.0
  0
LWPOLYLINE
  5
1b8
100
AcDbEntity
  8
LAYER_1
 62
7
100
AcDbPolyline
 90
2
 70
0
 10
16.597700
 20
1.508100
 30
0.0
 10
16.597700
 20
2.528300
 30
0.0
  0
LWPOLYLINE
  5
1b9
100
AcDbEntity
  8
LAYER_1
 62
7
100
AcDbPolyline
 90
2
 70
0
 10
17.087800
 20
1.508100
 30
0.0
 10
16.597700
 20
1.508100
 30
0.0
  0
LWPOLYLINE
  5
1ba
100
AcDbEntity
  8
LAYER_1
 62
7
100
AcDbPolyline
 90
2
 70
0
 10
17.087800
 20
2.528300
 30
0.0
 10
17.087800
 20
1.508100
 30
0.0
  0
LWPOLYLINE
  5
1bb
100
AcDbEntity
  8
LAYER_1
 62
7
100
AcDbPolyline
 90
2
 70
0
 10
16.597700
 20
2.528300
 30
0.0
 10
17.087800
 20
2.528300
 30
0.0
  0
LWPOLYLINE
  5
1bc
100
AcDbEntity
  8
LAYER_1
 62
7
100
AcDbPolyline
 90
2
 70
0
 10
8.111500
 20
5.122200
 30
0.0
 10
7.086700
 20
5.122200
 30
0.0
  0
LWPOLYLINE
  5
1bd
100
AcDbEntity
  8
LAYER_1
 62
7
100
AcDbPolyline
 90
2
 70
0
 10
8.111500
 20
5.610100
 30
0.0
 10
8.111500
 20
5.122200
 30
0.0
  0
LWPOLYLINE
  5
1be
100
AcDbEntity
  8
LAYER_1
 62
7
100
AcDbPolyline
 90
2
 70
0
 10
7.086700
 20
5.610100
 30
0.0
 10
8.111500
 20
5.610100
 30
0.0
  0
LWPOLYLINE
  5
1bf
100
AcDbEntity
  8
LAYER_1
 62
7
100
AcDbPolyline
 90
2
 70
0
 10
7.086700
 20
5.122200
 30
0.0
 10
7.086700
 20
5.610100
 30
0.0
  0
LWPOLYLINE
  5
1c0
100
AcDbEntity
  8
LAYER_1
 62
7
100
AcDbPolyline
 90
2
 70
0
 10
9.839000
 20
5.085600
 30
0.0
 10
8.814200
 20
5.085600
 30
0.0
  0
LWPOLYLINE
  5
1c1
100
AcDbEntity
  8
LAYER_1
 62
7
100
AcDbPolyline
 90
2
 70
0
 10
9.839000
 20
5.573500
 30
0.0
 10
9.839000
 20
5.085600
 30
0.0
  0
LWPOLYLINE
  5
1c2
100
AcDbEntity
  8
LAYER_1
 62
7
100
AcDbPolyline
 90
2
 70
0
 10
8.814200
 20
5.573500
 30
0.0
 10
9.839000
 20
5.573500
 30
0.0
  0
LWPOLYLINE
  5
1c3
100
AcDbEntity
  8
LAYER_1
 62
7
100
AcDbPolyline
 90
2
 70
0
 10
8.814200
 20
5.085600
 30
0.0
 10
8.814200
 20
5.573500
 30
0.0
  0
LWPOLYLINE
  5
1c4
100
AcDbEntity
  8
LAYER_1
 62
7
100
AcDbPolyline
 90
2
 70
0
 10
-5.344400
 20
12.375200
 30
0.0
 10
-5.344400
 20
13.395400
 30
0.0
  0
LWPOLYLINE
  5
1c5
100
AcDbEntity
  8
LAYER_1
 62
7
100
AcDbPolyline
 90
2
 70
0
 10
-4.854300
 20
12.375200
 30
0.0
 10
-5.344400
 20
12.375200
 30
0.0
  0
LWPOLYLINE
  5
1c6
100
AcDbEntity
  8
LAYER_1
 62
7
100
AcDbPolyline
 90
2
 70
0
 10
-4.854300
 20
13.395400
 30
0.0
 10
-4.854300
 20
12.375200
 30
0.0
  0
LWPOLYLINE
  5
1c7
100
AcDbEntity
  8
LAYER_1
 62
7
100
AcDbPolyline
 90
2
 70
0
 10
-5.344400
 20
13.395400
 30
0.0
 10
-4.854300
 20
13.395400
 30
0.0
  0
LWPOLYLINE
  5
1c8
100
AcDbEntity
  8
LAYER_1
 62
7
100
AcDbPolyline
 90
2
 70
0
 10
-4.425500
 20
12.375200
 30
0.0
 10
-4.425500
 20
13.395400
 30
0.0
  0
LWPOLYLINE
  5
1c9
100
AcDbEntity
  8
LAYER_1
 62
7
100
AcDbPolyline
 90
2
 70
0
 10
-3.935500
 20
12.375200
 30
0.0
 10
-4.425500
 20
12.375200
 30
0.0
  0
LWPOLYLINE
  5
1ca
100
AcDbEntity
  8
LAYER_1
 62
7
100
AcDbPolyline
 90
2
 70
0
 10
-3.935500
 20
13.395400
 30
0.0
 10
-3.935500
 20
12.375200
 30
0.0
  0
LWPOLYLINE
  5
1cb
100
AcDbEntity
  8
LAYER_1
 62
7
100
AcDbPolyline
 90
2
 70
0
 10
-4.425500
 20
13.395400
 30
0.0
 10
-3.935500
 20
13.395400
 30
0.0
  0
LWPOLYLINE
  5
1cc
100
AcDbEntity
  8
LAYER_1
 62
7
100
AcDbPolyline
 90
2
 70
0
 10
4.726200
 20
11.862900
 30
0.0
 10
4.726200
 20
12.883100
 30
0.0
  0
LWPOLYLINE
  5
1cd
100
AcDbEntity
  8
LAYER_1
 62
7
100
AcDbPolyline
 90
2
 70
0
 10
5.216300
 20
11.862900
 30
0.0
 10
4.726200
 20
11.862900
 30
0.0
  0
LWPOLYLINE
  5
1ce
100
AcDbEntity
  8
LAYER_1
 62
7
100
AcDbPolyline
 90
2
 70
0
 10
5.216300
 20
12.883100
 30
0.0
 10
5.216300
 20
11.862900
 30
0.0
  0
LWPOLYLINE
  5
1cf
100
AcDbEntity
  8
LAYER_1
 62
7
100
AcDbPolyline
 90
2
 70
0
 10
4.726200
 20
12.883100
 30
0.0
 10
5.216300
 20
12.883100
 30
0.0
  0
LWPOLYLINE
  5
1d0
100
AcDbEntity
  8
LAYER_1
 62
7
100
AcDbPolyline
 90
2
 70
0
 10
5.130500
 20
9.045500
 30
0.0
 10
5.130500
 20
10.065700
 30
0.0
  0
LWPOLYLINE
  5
1d1
100
AcDbEntity
  8
LAYER_1
 62
7
100
AcDbPolyline
 90
2
 70
0
 10
5.620600
 20
9.045500
 30
0.0
 10
5.130500
 20
9.045500
 30
0.0
  0
LWPOLYLINE
  5
1d2
100
AcDbEntity
  8
LAYER_1
 62
7
100
AcDbPolyline
 90
2
 70
0
 10
5.620600
 20
10.065700
 30
0.0
 10
5.620600
 20
9.045500
 30
0.0
  0
LWPOLYLINE
  5
1d3
100
AcDbEntity
  8
LAYER_1
 62
7
100
AcDbPolyline
 90
2
 70
0
 10
5.130500
 20
10.065700
 30
0.0
 10
5.620600
 20
10.065700
 30
0.0
  0
LWPOLYLINE
  5
1d4
100
AcDbEntity
  8
LAYER_1
 62
7
100
AcDbPolyline
 90
2
 70
0
 10
26.231200
 20
9.238500
 30
0.0
 10
25.206400
 20
9.238500
 30
0.0
  0
LWPOLYLINE
  5
1d5
100
AcDbEntity
  8
LAYER_1
 62
7
100
AcDbPolyline
 90
2
 70
0
 10
26.231200
 20
9.726400
 30
0.0
 10
26.231200
 20
9.238500
 30
0.0
  0
LWPOLYLINE
  5
1d6
100
AcDbEntity
  8
LAYER_1
 62
7
100
AcDbPolyline
 90
2
 70
0
 10
25.206400
 20
9.726400
 30
0.0
 10
26.231200
 20
9.726400
 30
0.0
  0
LWPOLYLINE
  5
1d7
100
AcDbEntity
  8
LAYER_1
 62
7
100
AcDbPolyline
 90
2
 70
0
 10
25.206400
 20
9.238500
 30
0.0
 10
25.206400
 20
9.726400
 30
0.0
  0
LWPOLYLINE
  5
1d8
100
AcDbEntity
  8
LAYER_1
 62
7
100
AcDbPolyline
 90
2
 70
0
 10
16.561000
 20
16.765900
 30
0.0
 10
16.561000
 20
17.786100
 30
0.0
  0
LWPOLYLINE
  5
1d9
100
AcDbEntity
  8
LAYER_1
 62
7
100
AcDbPolyline
 90
2
 70
0
 10
17.051100
 20
16.765900
 30
0.0
 10
16.561000
 20
16.765900
 30
0.0
  0
LWPOLYLINE
  5
1da
100
AcDbEntity
  8
LAYER_1
 62
7
100
AcDbPolyline
 90
2
 70
0
 10
17.051100
 20
17.786100
 30
0.0
 10
17.051100
 20
16.765900
 30
0.0
  0
LWPOLYLINE
  5
1db
100
AcDbEntity
  8
LAYER_1
 62
7
100
AcDbPolyline
 90
2
 70
0
 10
16.561000
 20
17.786100
 30
0.0
 10
17.051100
 20
17.786100
 30
0.0
  0
LWPOLYLINE
  5
1dc
100
AcDbEntity
  8
LAYER_1
 62
7
100
AcDbPolyline
 90
2
 70
0
 10
15.866600
 20
17.690700
 30
0.0
 10
14.841800
 20
17.690700
 30
0.0
  0
LWPOLYLINE
  5
1dd
100
AcDbEntity
  8
LAYER_1
 62
7
100
AcDbPolyline
 90
2
 70
0
 10
15.866600
 20
18.178600
 30
0.0
 10
15.866600
 20
17.690700
 30
0.0
  0
LWPOLYLINE
  5
1de
100
AcDbEntity
  8
LAYER_1
 62
7
100
AcDbPolyline
 90
2
 70
0
 10
14.841800
 20
18.178600
 30
0.0
 10
15.866600
 20
18.178600
 30
0.0
  0
LWPOLYLINE
  5
1df
100
AcDbEntity
  8
LAYER_1
 62
7
100
AcDbPolyline
 90
2
 70
0
 10
14.841800
 20
17.690700
 30
0.0
 10
14.841800
 20
18.178600
 30
0.0
  0
LWPOLYLINE
  5
1e0
100
AcDbEntity
  8
LAYER_1
 62
7
100
AcDbPolyline
 90
2
 70
0
 10
15.866600
 20
18.678600
 30
0.0
 10
14.841800
 20
18.678600
 30
0.0
  0
LWPOLYLINE
  5
1e1
100
AcDbEntity
  8
LAYER_1
 62
7
100
AcDbPolyline
 90
2
 70
0
 10
15.866600
 20
19.166500
 30
0.0
 10
15.866600
 20
18.678600
 30
0.0
  0
LWPOLYLINE
  5
1e2
100
AcDbEntity
  8
LAYER_1
 62
7
100
AcDbPolyline
 90
2
 70
0
 10
14.841800
 20
19.166500
 30
0.0
 10
15.866600
 20
19.166500
 30
0.0
  0
LWPOLYLINE
  5
1e3
100
AcDbEntity
  8
LAYER_1
 62
7
100
AcDbPolyline
 90
2
 70
0
 10
14.841800
 20
18.678600
 30
0.0
 10
14.841800
 20
19.166500
 30
0.0
  0
LWPOLYLINE
  5
1e4
100
AcDbEntity
  8
LAYER_1
 62
7
100
AcDbPolyline
 90
2
 70
0
 10
11.970700
 20
18.715200
 30
0.0
 10
10.945900
 20
18.715200
 30
0.0
  0
LWPOLYLINE
  5
1e5
100
AcDbEntity
  8
LAYER_1
 62
7
100
AcDbPolyline
 90
2
 70
0
 10
11.970700
 20
19.203100
 30
0.0
 10
11.970700
 20
18.715200
 30
0.0
  0
LWPOLYLINE
  5
1e6
100
AcDbEntity
  8
LAYER_1
 62
7
100
AcDbPolyline
 90
2
 70
0
 10
10.945900
 20
19.203100
 30
0.0
 10
11.970700
 20
19.203100
 30
0.0
  0
LWPOLYLINE
  5
1e7
100
AcDbEntity
  8
LAYER_1
 62
7
100
AcDbPolyline
 90
2
 70
0
 10
10.945900
 20
18.715200
 30
0.0
 10
10.945900
 20
19.203100
 30
0.0
  0
LWPOLYLINE
  5
1e8
100
AcDbEntity
  8
LAYER_1
 62
7
100
AcDbPolyline
 90
2
 70
0
 10
11.970700
 20
17.617500
 30
0.0
 10
10.945900
 20
17.617500
 30
0.0
  0
LWPOLYLINE
  5
1e9
100
AcDbEntity
  8
LAYER_1
 62
7
100
AcDbPolyline
 90
2
 70
0
 10
11.970700
 20
18.105400
 30
0.0
 10
11.970700
 20
17.617500
 30
0.0
  0
LWPOLYLINE
  5
1ea
100
AcDbEntity
  8
LAYER_1
 62
7
100
AcDbPolyline
 90
2
 70
0
 10
10.945900
 20
18.105400
 30
0.0
 10
11.970700
 20
18.105400
 30
0.0
  0
LWPOLYLINE
  5
1eb
100
AcDbEntity
  8
LAYER_1
 62
7
100
AcDbPolyline
 90
2
 70
0
 10
10.945900
 20
17.617500
 30
0.0
 10
10.945900
 20
18.105400
 30
0.0
  0
LWPOLYLINE
  5
1ec
100
AcDbEntity
  8
LAYER_1
 62
7
100
AcDbPolyline
 90
2
 70
0
 10
12.591600
 20
17.936700
 30
0.0
 10
12.591600
 20
18.956900
 30
0.0
  0
LWPOLYLINE
  5
1ed
100
AcDbEntity
  8
LAYER_1
 62
7
100
AcDbPolyline
 90
2
 70
0
 10
13.081600
 20
17.936700
 30
0.0
 10
12.591600
 20
17.936700
 30
0.0
  0
LWPOLYLINE
  5
1ee
100
AcDbEntity
  8
LAYER_1
 62
7
100
AcDbPolyline
 90
2
 70
0
 10
13.081600
 20
18.956900
 30
0.0
 10
13.081600
 20
17.936700
 30
0.0
  0
LWPOLYLINE
  5
1ef
100
AcDbEntity
  8
LAYER_1
 62
7
100
AcDbPolyline
 90
2
 70
0
 10
12.591600
 20
18.956900
 30
0.0
 10
13.081600
 20
18.956900
 30
0.0
  0
LWPOLYLINE
  5
1f0
100
AcDbEntity
  8
LAYER_1
 62
7
100
AcDbPolyline
 90
2
 70
0
 10
13.731000
 20
18.851500
 30
0.0
 10
13.731000
 20
19.871700
 30
0.0
  0
LWPOLYLINE
  5
1f1
100
AcDbEntity
  8
LAYER_1
 62
7
100
AcDbPolyline
 90
2
 70
0
 10
14.221000
 20
18.851500
 30
0.0
 10
13.731000
 20
18.851500
 30
0.0
  0
LWPOLYLINE
  5
1f2
100
AcDbEntity
  8
LAYER_1
 62
7
100
AcDbPolyline
 90
2
 70
0
 10
14.221000
 20
19.871700
 30
0.0
 10
14.221000
 20
18.851500
 30
0.0
  0
LWPOLYLINE
  5
1f3
100
AcDbEntity
  8
LAYER_1
 62
7
100
AcDbPolyline
 90
2
 70
0
 10
13.731000
 20
19.871700
 30
0.0
 10
14.221000
 20
19.871700
 30
0.0
  0
LWPOLYLINE
  5
1f4
100
AcDbEntity
  8
LAYER_1
 62
7
100
AcDbPolyline
 90
2
 70
0
 10
13.767700
 20
17.058600
 30
0.0
 10
13.767700
 20
18.078800
 30
0.0
  0
LWPOLYLINE
  5
1f5
100
AcDbEntity
  8
LAYER_1
 62
7
100
AcDbPolyline
 90
2
 70
0
 10
14.257800
 20
17.058600
 30
0.0
 10
13.767700
 20
17.058600
 30
0.0
  0
LWPOLYLINE
  5
1f6
100
AcDbEntity
  8
LAYER_1
 62
7
100
AcDbPolyline
 90
2
 70
0
 10
14.257800
 20
18.078800
 30
0.0
 10
14.257800
 20
17.058600
 30
0.0
  0
LWPOLYLINE
  5
1f7
100
AcDbEntity
  8
LAYER_1
 62
7
100
AcDbPolyline
 90
2
 70
0
 10
13.767700
 20
18.078800
 30
0.0
 10
14.257800
 20
18.078800
 30
0.0
  0
LWPOLYLINE
  5
1f8
100
AcDbEntity
  8
LAYER_1
 62
7
100
AcDbPolyline
 90
2
 70
0
 10
16.487500
 20
18.595400
 30
0.0
 10
16.487500
 20
19.615600
 30
0.0
  0
LWPOLYLINE
  5
1f9
100
AcDbEntity
  8
LAYER_1
 62
7
100
AcDbPolyline
 90
2
 70
0
 10
16.977600
 20
18.595400
 30
0.0
 10
16.487500
 20
18.595400
 30
0.0
  0
LWPOLYLINE
  5
1fa
100
AcDbEntity
  8
LAYER_1
 62
7
100
AcDbPolyline
 90
2
 70
0
 10
16.977600
 20
19.615600
 30
0.0
 10
16.977600
 20
18.595400
 30
0.0
  0
LWPOLYLINE
  5
1fb
100
AcDbEntity
  8
LAYER_1
 62
7
100
AcDbPolyline
 90
2
 70
0
 10
16.487500
 20
19.615600
 30
0.0
 10
16.977600
 20
19.615600
 30
0.0
  0
LWPOLYLINE
  5
1fc
100
AcDbEntity
  8
LAYER_1
 62
7
100
AcDbPolyline
 90
2
 70
0
 10
-11.054600
 20
19.030200
 30
0.0
 10
-12.778200
 20
19.030200
 30
0.0
  0
LWPOLYLINE
  5
1fd
100
AcDbEntity
  8
LAYER_1
 62
7
100
AcDbPolyline
 90
2
 70
0
 10
-11.054600
 20
19.857100
 30
0.0
 10
-11.054600
 20
19.030200
 30
0.0
  0
LWPOLYLINE
  5
1fe
100
AcDbEntity
  8
LAYER_1
 62
7
100
AcDbPolyline
 90
2
 70
0
 10
-12.778200
 20
19.857100
 30
0.0
 10
-11.054600
 20
19.857100
 30
0.0
  0
LWPOLYLINE
  5
1ff
100
AcDbEntity
  8
LAYER_1
 62
7
100
AcDbPolyline
 90
2
 70
0
 10
-12.778200
 20
19.030200
 30
0.0
 10
-12.778200
 20
19.857100
 30
0.0
  0
LWPOLYLINE
  5
200
100
AcDbEntity
  8
LAYER_1
 62
7
100
AcDbPolyline
 90
2
 70
0
 10
-5.192300
 20
19.103400
 30
0.0
 10
-6.915900
 20
19.103400
 30
0.0
  0
LWPOLYLINE
  5
201
100
AcDbEntity
  8
LAYER_1
 62
7
100
AcDbPolyline
 90
2
 70
0
 10
-5.192300
 20
19.930300
 30
0.0
 10
-5.192300
 20
19.103400
 30
0.0
  0
LWPOLYLINE
  5
202
100
AcDbEntity
  8
LAYER_1
 62
7
100
AcDbPolyline
 90
2
 70
0
 10
-6.915900
 20
19.930300
 30
0.0
 10
-5.192300
 20
19.930300
 30
0.0
  0
LWPOLYLINE
  5
203
100
AcDbEntity
  8
LAYER_1
 62
7
100
AcDbPolyline
 90
2
 70
0
 10
-6.915900
 20
19.103400
 30
0.0
 10
-6.915900
 20
19.930300
 30
0.0
  0
LWPOLYLINE
  5
204
100
AcDbEntity
  8
LAYER_1
 62
7
100
AcDbPolyline
 90
2
 70
0
 10
29.682200
 20
24.193600
 30
0.0
 10
29.682200
 20
25.213800
 30
0.0
  0
LWPOLYLINE
  5
205
100
AcDbEntity
  8
LAYER_1
 62
7
100
AcDbPolyline
 90
2
 70
0
 10
30.172200
 20
24.193600
 30
0.0
 10
29.682200
 20
24.193600
 30
0.0
  0
LWPOLYLINE
  5
206
100
AcDbEntity
  8
LAYER_1
 62
7
100
AcDbPolyline
 90
2
 70
0
 10
30.172200
 20
25.213800
 30
0.0
 10
30.172200
 20
24.193600
 30
0.0
  0
LWPOLYLINE
  5
207
100
AcDbEntity
  8
LAYER_1
 62
7
100
AcDbPolyline
 90
2
 70
0
 10
29.682200
 20
25.213800
 30
0.0
 10
30.172200
 20
25.213800
 30
0.0
  0
LWPOLYLINE
  5
208
100
AcDbEntity
  8
LAYER_1
 62
7
100
AcDbPolyline
 90
2
 70
0
 10
25.699400
 20
25.341900
 30
0.0
 10
23.975800
 20
25.341900
 30
0.0
  0
LWPOLYLINE
  5
209
100
AcDbEntity
  8
LAYER_1
 62
7
100
AcDbPolyline
 90
2
 70
0
 10
25.699400
 20
26.168800
 30
0.0
 10
25.699400
 20
25.341900
 30
0.0
  0
LWPOLYLINE
  5
20a
100
AcDbEntity
  8
LAYER_1
 62
7
100
AcDbPolyline
 90
2
 70
0
 10
23.975800
 20
26.168800
 30
0.0
 10
25.699400
 20
26.168800
 30
0.0
  0
LWPOLYLINE
  5
20b
100
AcDbEntity
  8
LAYER_1
 62
7
100
AcDbPolyline
 90
2
 70
0
 10
23.975800
 20
25.341900
 30
0.0
 10
23.975800
 20
26.168800
 30
0.0
  0
LWPOLYLINE
  5
20c
100
AcDbEntity
  8
LAYER_1
 62
7
100
AcDbPolyline
 90
2
 70
0
 10
22.423200
 20
26.681600
 30
0.0
 10
22.423200
 20
27.701800
 30
0.0
  0
LWPOLYLINE
  5
20d
100
AcDbEntity
  8
LAYER_1
 62
7
100
AcDbPolyline
 90
2
 70
0
 10
22.913300
 20
26.681600
 30
0.0
 10
22.423200
 20
26.681600
 30
0.0
  0
LWPOLYLINE
  5
20e
100
AcDbEntity
  8
LAYER_1
 62
7
100
AcDbPolyline
 90
2
 70
0
 10
22.913300
 20
27.701800
 30
0.0
 10
22.913300
 20
26.681600
 30
0.0
  0
LWPOLYLINE
  5
20f
100
AcDbEntity
  8
LAYER_1
 62
7
100
AcDbPolyline
 90
2
 70
0
 10
22.423200
 20
27.701800
 30
0.0
 10
22.913300
 20
27.701800
 30
0.0
  0
LWPOLYLINE
  5
210
100
AcDbEntity
  8
LAYER_1
 62
7
100
AcDbPolyline
 90
2
 70
0
 10
21.394100
 20
26.681600
 30
0.0
 10
21.394100
 20
27.701800
 30
0.0
  0
LWPOLYLINE
  5
211
100
AcDbEntity
  8
LAYER_1
 62
7
100
AcDbPolyline
 90
2
 70
0
 10
21.884200
 20
26.681600
 30
0.0
 10
21.394100
 20
26.681600
 30
0.0
  0
LWPOLYLINE
  5
212
100
AcDbEntity
  8
LAYER_1
 62
7
100
AcDbPolyline
 90
2
 70
0
 10
21.884200
 20
27.701800
 30
0.0
 10
21.884200
 20
26.681600
 30
0.0
  0
LWPOLYLINE
  5
213
100
AcDbEntity
  8
LAYER_1
 62
7
100
AcDbPolyline
 90
2
 70
0
 10
21.394100
 20
27.701800
 30
0.0
 10
21.884200
 20
27.701800
 30
0.0
  0
LWPOLYLINE
  5
214
100
AcDbEntity
  8
LAYER_1
 62
7
100
AcDbPolyline
 90
2
 70
0
 10
21.357400
 20
24.870500
 30
0.0
 10
21.357400
 20
25.890700
 30
0.0
  0
LWPOLYLINE
  5
215
100
AcDbEntity
  8
LAYER_1
 62
7
100
AcDbPolyline
 90
2
 70
0
 10
21.847400
 20
24.870500
 30
0.0
 10
21.357400
 20
24.870500
 30
0.0
  0
LWPOLYLINE
  5
216
100
AcDbEntity
  8
LAYER_1
 62
7
100
AcDbPolyline
 90
2
 70
0
 10
21.847400
 20
25.890700
 30
0.0
 10
21.847400
 20
24.870500
 30
0.0
  0
LWPOLYLINE
  5
217
100
AcDbEntity
  8
LAYER_1
 62
7
100
AcDbPolyline
 90
2
 70
0
 10
21.357400
 20
25.890700
 30
0.0
 10
21.847400
 20
25.890700
 30
0.0
  0
LWPOLYLINE
  5
218
100
AcDbEntity
  8
LAYER_1
 62
7
100
AcDbPolyline
 90
2
 70
0
 10
16.142200
 20
23.581600
 30
0.0
 10
15.117400
 20
23.581600
 30
0.0
  0
LWPOLYLINE
  5
219
100
AcDbEntity
  8
LAYER_1
 62
7
100
AcDbPolyline
 90
2
 70
0
 10
16.142200
 20
24.069500
 30
0.0
 10
16.142200
 20
23.581600
 30
0.0
  0
LWPOLYLINE
  5
21a
100
AcDbEntity
  8
LAYER_1
 62
7
100
AcDbPolyline
 90
2
 70
0
 10
15.117400
 20
24.069500
 30
0.0
 10
16.142200
 20
24.069500
 30
0.0
  0
LWPOLYLINE
  5
21b
100
AcDbEntity
  8
LAYER_1
 62
7
100
AcDbPolyline
 90
2
 70
0
 10
15.117400
 20
23.581600
 30
0.0
 10
15.117400
 20
24.069500
 30
0.0
  0
LWPOLYLINE
  5
21c
100
AcDbEntity
  8
LAYER_1
 62
7
100
AcDbPolyline
 90
2
 70
0
 10
16.142200
 20
22.520500
 30
0.0
 10
15.117400
 20
22.520500
 30
0.0
  0
LWPOLYLINE
  5
21d
100
AcDbEntity
  8
LAYER_1
 62
7
100
AcDbPolyline
 90
2
 70
0
 10
16.142200
 20
23.008400
 30
0.0
 10
16.142200
 20
22.520500
 30
0.0
  0
LWPOLYLINE
  5
21e
100
AcDbEntity
  8
LAYER_1
 62
7
100
AcDbPolyline
 90
2
 70
0
 10
15.117400
 20
23.008400
 30
0.0
 10
16.142200
 20
23.008400
 30
0.0
  0
LWPOLYLINE
  5
21f
100
AcDbEntity
  8
LAYER_1
 62
7
100
AcDbPolyline
 90
2
 70
0
 10
15.117400
 20
22.520500
 30
0.0
 10
15.117400
 20
23.008400
 30
0.0
  0
LWPOLYLINE
  5
220
100
AcDbEntity
  8
LAYER_1
 62
7
100
AcDbPolyline
 90
2
 70
0
 10
12.724100
 20
23.179100
 30
0.0
 10
11.699300
 20
23.179100
 30
0.0
  0
LWPOLYLINE
  5
221
100
AcDbEntity
  8
LAYER_1
 62
7
100
AcDbPolyline
 90
2
 70
0
 10
12.724100
 20
23.667000
 30
0.0
 10
12.724100
 20
23.179100
 30
0.0
  0
LWPOLYLINE
  5
222
100
AcDbEntity
  8
LAYER_1
 62
7
100
AcDbPolyline
 90
2
 70
0
 10
11.699300
 20
23.667000
 30
0.0
 10
12.724100
 20
23.667000
 30
0.0
  0
LWPOLYLINE
  5
223
100
AcDbEntity
  8
LAYER_1
 62
7
100
AcDbPolyline
 90
2
 70
0
 10
11.699300
 20
23.179100
 30
0.0
 10
11.699300
 20
23.667000
 30
0.0
  0
LWPOLYLINE
  5
224
100
AcDbEntity
  8
LAYER_1
 62
7
100
AcDbPolyline
 90
2
 70
0
 10
12.669000
 20
24.093800
 30
0.0
 10
11.644200
 20
24.093800
 30
0.0
  0
LWPOLYLINE
  5
225
100
AcDbEntity
  8
LAYER_1
 62
7
100
AcDbPolyline
 90
2
 70
0
 10
12.669000
 20
24.581700
 30
0.0
 10
12.669000
 20
24.093800
 30
0.0
  0
LWPOLYLINE
  5
226
100
AcDbEntity
  8
LAYER_1
 62
7
100
AcDbPolyline
 90
2
 70
0
 10
11.644200
 20
24.581700
 30
0.0
 10
12.669000
 20
24.581700
 30
0.0
  0
LWPOLYLINE
  5
227
100
AcDbEntity
  8
LAYER_1
 62
7
100
AcDbPolyline
 90
2
 70
0
 10
11.644200
 20
24.093800
 30
0.0
 10
11.644200
 20
24.581700
 30
0.0
  0
LWPOLYLINE
  5
228
100
AcDbEntity
  8
LAYER_1
 62
7
100
AcDbPolyline
 90
2
 70
0
 10
0.848600
 20
27.596400
 30
0.0
 10
0.848600
 20
28.616600
 30
0.0
  0
LWPOLYLINE
  5
229
100
AcDbEntity
  8
LAYER_1
 62
7
100
AcDbPolyline
 90
2
 70
0
 10
1.338700
 20
27.596400
 30
0.0
 10
0.848600
 20
27.596400
 30
0.0
  0
LWPOLYLINE
  5
22a
100
AcDbEntity
  8
LAYER_1
 62
7
100
AcDbPolyline
 90
2
 70
0
 10
1.338700
 20
28.616600
 30
0.0
 10
1.338700
 20
27.596400
 30
0.0
  0
LWPOLYLINE
  5
22b
100
AcDbEntity
  8
LAYER_1
 62
7
100
AcDbPolyline
 90
2
 70
0
 10
0.848600
 20
28.616600
 30
0.0
 10
1.338700
 20
28.616600
 30
0.0
  0
LWPOLYLINE
  5
22c
100
AcDbEntity
  8
LAYER_1
 62
7
100
AcDbPolyline
 90
2
 70
0
 10
0.282900
 20
27.515000
 30
0.0
 10
-0.741900
 20
27.515000
 30
0.0
  0
LWPOLYLINE
  5
22d
100
AcDbEntity
  8
LAYER_1
 62
7
100
AcDbPolyline
 90
2
 70
0
 10
0.282900
 20
28.002900
 30
0.0
 10
0.282900
 20
27.515000
 30
0.0
  0
LWPOLYLINE
  5
22e
100
AcDbEntity
  8
LAYER_1
 62
7
100
AcDbPolyline
 90
2
 70
0
 10
-0.741900
 20
28.002900
 30
0.0
 10
0.282900
 20
28.002900
 30
0.0
  0
LWPOLYLINE
  5
22f
100
AcDbEntity
  8
LAYER_1
 62
7
100
AcDbPolyline
 90
2
 70
0
 10
-0.741900
 20
27.515000
 30
0.0
 10
-0.741900
 20
28.002900
 30
0.0
  0
LWPOLYLINE
  5
230
100
AcDbEntity
  8
LAYER_1
 62
7
100
AcDbPolyline
 90
2
 70
0
 10
-3.190400
 20
27.496700
 30
0.0
 10
-4.215200
 20
27.496700
 30
0.0
  0
LWPOLYLINE
  5
231
100
AcDbEntity
  8
LAYER_1
 62
7
100
AcDbPolyline
 90
2
 70
0
 10
-3.190400
 20
27.984600
 30
0.0
 10
-3.190400
 20
27.496700
 30
0.0
  0
LWPOLYLINE
  5
232
100
AcDbEntity
  8
LAYER_1
 62
7
100
AcDbPolyline
 90
2
 70
0
 10
-4.215200
 20
27.984600
 30
0.0
 10
-3.190400
 20
27.984600
 30
0.0
  0
LWPOLYLINE
  5
233
100
AcDbEntity
  8
LAYER_1
 62
7
100
AcDbPolyline
 90
2
 70
0
 10
-4.215200
 20
27.496700
 30
0.0
 10
-4.215200
 20
27.984600
 30
0.0
  0
LWPOLYLINE
  5
234
100
AcDbEntity
  8
LAYER_1
 62
7
100
AcDbPolyline
 90
2
 70
0
 10
-10.526700
 20
27.010900
 30
0.0
 10
-10.526700
 20
28.031100
 30
0.0
  0
LWPOLYLINE
  5
235
100
AcDbEntity
  8
LAYER_1
 62
7
100
AcDbPolyline
 90
2
 70
0
 10
-10.036600
 20
27.010900
 30
0.0
 10
-10.526700
 20
27.010900
 30
0.0
  0
LWPOLYLINE
  5
236
100
AcDbEntity
  8
LAYER_1
 62
7
100
AcDbPolyline
 90
2
 70
0
 10
-10.036600
 20
28.031100
 30
0.0
 10
-10.036600
 20
27.010900
 30
0.0
  0
LWPOLYLINE
  5
237
100
AcDbEntity
  8
LAYER_1
 62
7
100
AcDbPolyline
 90
2
 70
0
 10
-10.526700
 20
28.031100
 30
0.0
 10
-10.036600
 20
28.031100
 30
0.0
  0
LWPOLYLINE
  5
238
100
AcDbEntity
  8
LAYER_1
 62
7
100
AcDbPolyline
 90
2
 70
0
 10
-11.427200
 20
27.010900
 30
0.0
 10
-11.427200
 20
28.031100
 30
0.0
  0
LWPOLYLINE
  5
239
100
AcDbEntity
  8
LAYER_1
 62
7
100
AcDbPolyline
 90
2
 70
0
 10
-10.937100
 20
27.010900
 30
0.0
 10
-11.427200
 20
27.010900
 30
0.0
  0
LWPOLYLINE
  5
23a
100
AcDbEntity
  8
LAYER_1
 62
7
100
AcDbPolyline
 90
2
 70
0
 10
-10.937100
 20
28.031100
 30
0.0
 10
-10.937100
 20
27.010900
 30
0.0
  0
LWPOLYLINE
  5
23b
100
AcDbEntity
  8
LAYER_1
 62
7
100
AcDbPolyline
 90
2
 70
0
 10
-11.427200
 20
28.031100
 30
0.0
 10
-10.937100
 20
28.031100
 30
0.0
  0
LWPOLYLINE
  5
23c
100
AcDbEntity
  8
LAYER_1
 62
7
100
AcDbPolyline
 90
2
 70
0
 10
-16.039900
 20
26.517000
 30
0.0
 10
-16.039900
 20
27.537200
 30
0.0
  0
LWPOLYLINE
  5
23d
100
AcDbEntity
  8
LAYER_1
 62
7
100
AcDbPolyline
 90
2
 70
0
 10
-15.549800
 20
26.517000
 30
0.0
 10
-16.039900
 20
26.517000
 30
0.0
  0
LWPOLYLINE
  5
23e
100
AcDbEntity
  8
LAYER_1
 62
7
100
AcDbPolyline
 90
2
 70
0
 10
-15.549800
 20
27.537200
 30
0.0
 10
-15.549800
 20
26.517000
 30
0.0
  0
LWPOLYLINE
  5
23f
100
AcDbEntity
  8
LAYER_1
 62
7
100
AcDbPolyline
 90
2
 70
0
 10
-16.039900
 20
27.537200
 30
0.0
 10
-15.549800
 20
27.537200
 30
0.0
  0
LWPOLYLINE
  5
240
100
AcDbEntity
  8
LAYER_1
 62
7
100
AcDbPolyline
 90
2
 70
0
 10
-16.003100
 20
24.650900
 30
0.0
 10
-16.003100
 20
25.671100
 30
0.0
  0
LWPOLYLINE
  5
241
100
AcDbEntity
  8
LAYER_1
 62
7
100
AcDbPolyline
 90
2
 70
0
 10
-15.513000
 20
24.650900
 30
0.0
 10
-16.003100
 20
24.650900
 30
0.0
  0
LWPOLYLINE
  5
242
100
AcDbEntity
  8
LAYER_1
 62
7
100
AcDbPolyline
 90
2
 70
0
 10
-15.513000
 20
25.671100
 30
0.0
 10
-15.513000
 20
24.650900
 30
0.0
  0
LWPOLYLINE
  5
243
100
AcDbEntity
  8
LAYER_1
 62
7
100
AcDbPolyline
 90
2
 70
0
 10
-16.003100
 20
25.671100
 30
0.0
 10
-15.513000
 20
25.671100
 30
0.0
  0
LWPOLYLINE
  5
244
100
AcDbEntity
  8
LAYER_1
 62
7
100
AcDbPolyline
 90
2
 70
0
 10
-14.827000
 20
22.967800
 30
0.0
 10
-14.827000
 20
23.988000
 30
0.0
  0
LWPOLYLINE
  5
245
100
AcDbEntity
  8
LAYER_1
 62
7
100
AcDbPolyline
 90
2
 70
0
 10
-14.336900
 20
22.967800
 30
0.0
 10
-14.827000
 20
22.967800
 30
0.0
  0
LWPOLYLINE
  5
246
100
AcDbEntity
  8
LAYER_1
 62
7
100
AcDbPolyline
 90
2
 70
0
 10
-14.336900
 20
23.988000
 30
0.0
 10
-14.336900
 20
22.967800
 30
0.0
  0
LWPOLYLINE
  5
247
100
AcDbEntity
  8
LAYER_1
 62
7
100
AcDbPolyline
 90
2
 70
0
 10
-14.827000
 20
23.988000
 30
0.0
 10
-14.336900
 20
23.988000
 30
0.0
  0
LWPOLYLINE
  5
248
100
AcDbEntity
  8
LAYER_1
 62
7
100
AcDbPolyline
 90
2
 70
0
 10
-15.231300
 20
20.479700
 30
0.0
 10
-15.231300
 20
21.499900
 30
0.0
  0
LWPOLYLINE
  5
249
100
AcDbEntity
  8
LAYER_1
 62
7
100
AcDbPolyline
 90
2
 70
0
 10
-14.741200
 20
20.479700
 30
0.0
 10
-15.231300
 20
20.479700
 30
0.0
  0
LWPOLYLINE
  5
24a
100
AcDbEntity
  8
LAYER_1
 62
7
100
AcDbPolyline
 90
2
 70
0
 10
-14.741200
 20
21.499900
 30
0.0
 10
-14.741200
 20
20.479700
 30
0.0
  0
LWPOLYLINE
  5
24b
100
AcDbEntity
  8
LAYER_1
 62
7
100
AcDbPolyline
 90
2
 70
0
 10
-15.231300
 20
21.499900
 30
0.0
 10
-14.741200
 20
21.499900
 30
0.0
  0
LWPOLYLINE
  5
24c
100
AcDbEntity
  8
LAYER_1
 62
7
100
AcDbPolyline
 90
2
 70
0
 10
-15.212900
 20
18.814900
 30
0.0
 10
-15.212900
 20
19.835100
 30
0.0
  0
LWPOLYLINE
  5
24d
100
AcDbEntity
  8
LAYER_1
 62
7
100
AcDbPolyline
 90
2
 70
0
 10
-14.722800
 20
18.814900
 30
0.0
 10
-15.212900
 20
18.814900
 30
0.0
  0
LWPOLYLINE
  5
24e
100
AcDbEntity
  8
LAYER_1
 62
7
100
AcDbPolyline
 90
2
 70
0
 10
-14.722800
 20
19.835100
 30
0.0
 10
-14.722800
 20
18.814900
 30
0.0
  0
LWPOLYLINE
  5
24f
100
AcDbEntity
  8
LAYER_1
 62
7
100
AcDbPolyline
 90
2
 70
0
 10
-15.212900
 20
19.835100
 30
0.0
 10
-14.722800
 20
19.835100
 30
0.0
  0
LWPOLYLINE
  5
250
100
AcDbEntity
  8
LAYER_1
 62
7
100
AcDbPolyline
 90
2
 70
0
 10
-12.048100
 20
23.746200
 30
0.0
 10
-13.072900
 20
23.746200
 30
0.0
  0
LWPOLYLINE
  5
251
100
AcDbEntity
  8
LAYER_1
 62
7
100
AcDbPolyline
 90
2
 70
0
 10
-12.048100
 20
24.234100
 30
0.0
 10
-12.048100
 20
23.746200
 30
0.0
  0
LWPOLYLINE
  5
252
100
AcDbEntity
  8
LAYER_1
 62
7
100
AcDbPolyline
 90
2
 70
0
 10
-13.072900
 20
24.234100
 30
0.0
 10
-12.048100
 20
24.234100
 30
0.0
  0
LWPOLYLINE
  5
253
100
AcDbEntity
  8
LAYER_1
 62
7
100
AcDbPolyline
 90
2
 70
0
 10
-13.072900
 20
23.746200
 30
0.0
 10
-13.072900
 20
24.234100
 30
0.0
  0
LWPOLYLINE
  5
254
100
AcDbEntity
  8
LAYER_1
 62
7
100
AcDbPolyline
 90
2
 70
0
 10
-12.048100
 20
22.685100
 30
0.0
 10
-13.072900
 20
22.685100
 30
0.0
  0
LWPOLYLINE
  5
255
100
AcDbEntity
  8
LAYER_1
 62
7
100
AcDbPolyline
 90
2
 70
0
 10
-12.048100
 20
23.173000
 30
0.0
 10
-12.048100
 20
22.685100
 30
0.0
  0
LWPOLYLINE
  5
256
100
AcDbEntity
  8
LAYER_1
 62
7
100
AcDbPolyline
 90
2
 70
0
 10
-13.072900
 20
23.173000
 30
0.0
 10
-12.048100
 20
23.173000
 30
0.0
  0
LWPOLYLINE
  5
257
100
AcDbEntity
  8
LAYER_1
 62
7
100
AcDbPolyline
 90
2
 70
0
 10
-13.072900
 20
22.685100
 30
0.0
 10
-13.072900
 20
23.173000
 30
0.0
  0
LWPOLYLINE
  5
258
100
AcDbEntity
  8
LAYER_1
 62
7
100
AcDbPolyline
 90
2
 70
0
 10
-12.048100
 20
21.642300
 30
0.0
 10
-13.072900
 20
21.642300
 30
0.0
  0
LWPOLYLINE
  5
259
100
AcDbEntity
  8
LAYER_1
 62
7
100
AcDbPolyline
 90
2
 70
0
 10
-12.048100
 20
22.130200
 30
0.0
 10
-12.048100
 20
21.642300
 30
0.0
  0
LWPOLYLINE
  5
25a
100
AcDbEntity
  8
LAYER_1
 62
7
100
AcDbPolyline
 90
2
 70
0
 10
-13.072900
 20
22.130200
 30
0.0
 10
-12.048100
 20
22.130200
 30
0.0
  0
LWPOLYLINE
  5
25b
100
AcDbEntity
  8
LAYER_1
 62
7
100
AcDbPolyline
 90
2
 70
0
 10
-13.072900
 20
21.642300
 30
0.0
 10
-13.072900
 20
22.130200
 30
0.0
  0
LWPOLYLINE
  5
25c
100
AcDbEntity
  8
LAYER_1
 62
7
100
AcDbPolyline
 90
2
 70
0
 10
-5.652800
 20
18.111500
 30
0.0
 10
-6.677600
 20
18.111500
 30
0.0
  0
LWPOLYLINE
  5
25d
100
AcDbEntity
  8
LAYER_1
 62
7
100
AcDbPolyline
 90
2
 70
0
 10
-5.652800
 20
18.599400
 30
0.0
 10
-5.652800
 20
18.111500
 30
0.0
  0
LWPOLYLINE
  5
25e
100
AcDbEntity
  8
LAYER_1
 62
7
100
AcDbPolyline
 90
2
 70
0
 10
-6.677600
 20
18.599400
 30
0.0
 10
-5.652800
 20
18.599400
 30
0.0
  0
LWPOLYLINE
  5
25f
100
AcDbEntity
  8
LAYER_1
 62
7
100
AcDbPolyline
 90
2
 70
0
 10
-6.677600
 20
18.111500
 30
0.0
 10
-6.677600
 20
18.599400
 30
0.0
  0
LWPOLYLINE
  5
260
100
AcDbEntity
  8
LAYER_1
 62
7
100
AcDbPolyline
 90
2
 70
0
 10
-7.894900
 20
18.294400
 30
0.0
 10
-8.919700
 20
18.294400
 30
0.0
  0
LWPOLYLINE
  5
261
100
AcDbEntity
  8
LAYER_1
 62
7
100
AcDbPolyline
 90
2
 70
0
 10
-7.894900
 20
18.782300
 30
0.0
 10
-7.894900
 20
18.294400
 30
0.0
  0
LWPOLYLINE
  5
262
100
AcDbEntity
  8
LAYER_1
 62
7
100
AcDbPolyline
 90
2
 70
0
 10
-8.919700
 20
18.782300
 30
0.0
 10
-7.894900
 20
18.782300
 30
0.0
  0
LWPOLYLINE
  5
263
100
AcDbEntity
  8
LAYER_1
 62
7
100
AcDbPolyline
 90
2
 70
0
 10
-8.919700
 20
18.294400
 30
0.0
 10
-8.919700
 20
18.782300
 30
0.0
  0
LWPOLYLINE
  5
264
100
AcDbEntity
  8
LAYER_1
 62
7
100
AcDbPolyline
 90
2
 70
0
 10
-11.110800
 20
18.111500
 30
0.0
 10
-12.135600
 20
18.111500
 30
0.0
  0
LWPOLYLINE
  5
265
100
AcDbEntity
  8
LAYER_1
 62
7
100
AcDbPolyline
 90
2
 70
0
 10
-11.110800
 20
18.599400
 30
0.0
 10
-11.110800
 20
18.111500
 30
0.0
  0
LWPOLYLINE
  5
266
100
AcDbEntity
  8
LAYER_1
 62
7
100
AcDbPolyline
 90
2
 70
0
 10
-12.135600
 20
18.599400
 30
0.0
 10
-11.110800
 20
18.599400
 30
0.0
  0
LWPOLYLINE
  5
267
100
AcDbEntity
  8
LAYER_1
 62
7
100
AcDbPolyline
 90
2
 70
0
 10
-12.135600
 20
18.111500
 30
0.0
 10
-12.135600
 20
18.599400
 30
0.0
  0
LWPOLYLINE
  5
268
100
AcDbEntity
  8
LAYER_1
 62
7
100
AcDbPolyline
 90
2
 70
0
 10
-13.573300
 20
12.366900
 30
0.0
 10
-14.598100
 20
12.366900
 30
0.0
  0
LWPOLYLINE
  5
269
100
AcDbEntity
  8
LAYER_1
 62
7
100
AcDbPolyline
 90
2
 70
0
 10
-13.573300
 20
12.854800
 30
0.0
 10
-13.573300
 20
12.366900
 30
0.0
  0
LWPOLYLINE
  5
26a
100
AcDbEntity
  8
LAYER_1
 62
7
100
AcDbPolyline
 90
2
 70
0
 10
-14.598100
 20
12.854800
 30
0.0
 10
-13.573300
 20
12.854800
 30
0.0
  0
LWPOLYLINE
  5
26b
100
AcDbEntity
  8
LAYER_1
 62
7
100
AcDbPolyline
 90
2
 70
0
 10
-14.598100
 20
12.366900
 30
0.0
 10
-14.598100
 20
12.854800
 30
0.0
  0
LWPOLYLINE
  5
26c
100
AcDbEntity
  8
LAYER_1
 62
7
100
AcDbPolyline
 90
2
 70
0
 10
-11.496700
 20
12.586400
 30
0.0
 10
-12.521500
 20
12.586400
 30
0.0
  0
LWPOLYLINE
  5
26d
100
AcDbEntity
  8
LAYER_1
 62
7
100
AcDbPolyline
 90
2
 70
0
 10
-11.496700
 20
13.074300
 30
0.0
 10
-11.496700
 20
12.586400
 30
0.0
  0
LWPOLYLINE
  5
26e
100
AcDbEntity
  8
LAYER_1
 62
7
100
AcDbPolyline
 90
2
 70
0
 10
-12.521500
 20
13.074300
 30
0.0
 10
-11.496700
 20
13.074300
 30
0.0
  0
LWPOLYLINE
  5
26f
100
AcDbEntity
  8
LAYER_1
 62
7
100
AcDbPolyline
 90
2
 70
0
 10
-12.521500
 20
12.586400
 30
0.0
 10
-12.521500
 20
13.074300
 30
0.0
  0
LWPOLYLINE
  5
270
100
AcDbEntity
  8
LAYER_1
 62
7
100
AcDbPolyline
 90
2
 70
0
 10
-9.714200
 20
12.202200
 30
0.0
 10
-10.739000
 20
12.202200
 30
0.0
  0
LWPOLYLINE
  5
271
100
AcDbEntity
  8
LAYER_1
 62
7
100
AcDbPolyline
 90
2
 70
0
 10
-9.714200
 20
12.690100
 30
0.0
 10
-9.714200
 20
12.202200
 30
0.0
  0
LWPOLYLINE
  5
272
100
AcDbEntity
  8
LAYER_1
 62
7
100
AcDbPolyline
 90
2
 70
0
 10
-10.739000
 20
12.690100
 30
0.0
 10
-9.714200
 20
12.690100
 30
0.0
  0
LWPOLYLINE
  5
273
100
AcDbEntity
  8
LAYER_1
 62
7
100
AcDbPolyline
 90
2
 70
0
 10
-10.739000
 20
12.202200
 30
0.0
 10
-10.739000
 20
12.690100
 30
0.0
  0
LWPOLYLINE
  5
274
100
AcDbEntity
  8
LAYER_1
 62
7
100
AcDbPolyline
 90
2
 70
0
 10
-7.086200
 20
12.238800
 30
0.0
 10
-8.111000
 20
12.238800
 30
0.0
  0
LWPOLYLINE
  5
275
100
AcDbEntity
  8
LAYER_1
 62
7
100
AcDbPolyline
 90
2
 70
0
 10
-7.086200
 20
12.726700
 30
0.0
 10
-7.086200
 20
12.238800
 30
0.0
  0
LWPOLYLINE
  5
276
100
AcDbEntity
  8
LAYER_1
 62
7
100
AcDbPolyline
 90
2
 70
0
 10
-8.111000
 20
12.726700
 30
0.0
 10
-7.086200
 20
12.726700
 30
0.0
  0
LWPOLYLINE
  5
277
100
AcDbEntity
  8
LAYER_1
 62
7
100
AcDbPolyline
 90
2
 70
0
 10
-8.111000
 20
12.238800
 30
0.0
 10
-8.111000
 20
12.726700
 30
0.0
  0
LWPOLYLINE
  5
278
100
AcDbEntity
  8
LAYER_1
 62
7
100
AcDbPolyline
 90
2
 70
0
 10
-6.351200
 20
8.982400
 30
0.0
 10
-7.375900
 20
8.982400
 30
0.0
  0
LWPOLYLINE
  5
279
100
AcDbEntity
  8
LAYER_1
 62
7
100
AcDbPolyline
 90
2
 70
0
 10
-6.351200
 20
9.470300
 30
0.0
 10
-6.351200
 20
8.982400
 30
0.0
  0
LWPOLYLINE
  5
27a
100
AcDbEntity
  8
LAYER_1
 62
7
100
AcDbPolyline
 90
2
 70
0
 10
-7.375900
 20
9.470300
 30
0.0
 10
-6.351200
 20
9.470300
 30
0.0
  0
LWPOLYLINE
  5
27b
100
AcDbEntity
  8
LAYER_1
 62
7
100
AcDbPolyline
 90
2
 70
0
 10
-7.375900
 20
8.982400
 30
0.0
 10
-7.375900
 20
9.470300
 30
0.0
  0
LWPOLYLINE
  5
27c
100
AcDbEntity
  8
LAYER_1
 62
7
100
AcDbPolyline
 90
2
 70
0
 10
-8.188800
 20
9.000700
 30
0.0
 10
-9.213600
 20
9.000700
 30
0.0
  0
LWPOLYLINE
  5
27d
100
AcDbEntity
  8
LAYER_1
 62
7
100
AcDbPolyline
 90
2
 70
0
 10
-8.188800
 20
9.488600
 30
0.0
 10
-8.188800
 20
9.000700
 30
0.0
  0
LWPOLYLINE
  5
27e
100
AcDbEntity
  8
LAYER_1
 62
7
100
AcDbPolyline
 90
2
 70
0
 10
-9.213600
 20
9.488600
 30
0.0
 10
-8.188800
 20
9.488600
 30
0.0
  0
LWPOLYLINE
  5
27f
100
AcDbEntity
  8
LAYER_1
 62
7
100
AcDbPolyline
 90
2
 70
0
 10
-9.213600
 20
9.000700
 30
0.0
 10
-9.213600
 20
9.488600
 30
0.0
  0
LWPOLYLINE
  5
280
100
AcDbEntity
  8
LAYER_1
 62
7
100
AcDbPolyline
 90
2
 70
0
 10
-29.583700
 20
4.417000
 30
0.0
 10
-29.583700
 20
5.437200
 30
0.0
  0
LWPOLYLINE
  5
281
100
AcDbEntity
  8
LAYER_1
 62
7
100
AcDbPolyline
 90
2
 70
0
 10
-29.093600
 20
4.417000
 30
0.0
 10
-29.583700
 20
4.417000
 30
0.0
  0
LWPOLYLINE
  5
282
100
AcDbEntity
  8
LAYER_1
 62
7
100
AcDbPolyline
 90
2
 70
0
 10
-29.093600
 20
5.437200
 30
0.0
 10
-29.093600
 20
4.417000
 30
0.0
  0
LWPOLYLINE
  5
283
100
AcDbEntity
  8
LAYER_1
 62
7
100
AcDbPolyline
 90
2
 70
0
 10
-29.583700
 20
5.437200
 30
0.0
 10
-29.093600
 20
5.437200
 30
0.0
  0
LWPOLYLINE
  5
284
100
AcDbEntity
  8
LAYER_1
 62
7
100
AcDbPolyline
 90
2
 70
0
 10
-3.208700
 20
-6.952300
 30
0.0
 10
-4.233500
 20
-6.952300
 30
0.0
  0
LWPOLYLINE
  5
285
100
AcDbEntity
  8
LAYER_1
 62
7
100
AcDbPolyline
 90
2
 70
0
 10
-3.208700
 20
-6.464400
 30
0.0
 10
-3.208700
 20
-6.952300
 30
0.0
  0
LWPOLYLINE
  5
286
100
AcDbEntity
  8
LAYER_1
 62
7
100
AcDbPolyline
 90
2
 70
0
 10
-4.233500
 20
-6.464400
 30
0.0
 10
-3.208700
 20
-6.464400
 30
0.0
  0
LWPOLYLINE
  5
287
100
AcDbEntity
  8
LAYER_1
 62
7
100
AcDbPolyline
 90
2
 70
0
 10
-4.233500
 20
-6.952300
 30
0.0
 10
-4.233500
 20
-6.464400
 30
0.0
  0
LWPOLYLINE
  5
288
100
AcDbEntity
  8
LAYER_1
 62
7
100
AcDbPolyline
 90
2
 70
0
 10
-3.190300
 20
-5.031400
 30
0.0
 10
-4.215100
 20
-5.031400
 30
0.0
  0
LWPOLYLINE
  5
289
100
AcDbEntity
  8
LAYER_1
 62
7
100
AcDbPolyline
 90
2
 70
0
 10
-3.190300
 20
-4.543500
 30
0.0
 10
-3.190300
 20
-5.031400
 30
0.0
  0
LWPOLYLINE
  5
28a
100
AcDbEntity
  8
LAYER_1
 62
7
100
AcDbPolyline
 90
2
 70
0
 10
-4.215100
 20
-4.543500
 30
0.0
 10
-3.190300
 20
-4.543500
 30
0.0
  0
LWPOLYLINE
  5
28b
100
AcDbEntity
  8
LAYER_1
 62
7
100
AcDbPolyline
 90
2
 70
0
 10
-4.215100
 20
-5.031400
 30
0.0
 10
-4.215100
 20
-4.543500
 30
0.0
  0
LWPOLYLINE
  5
28c
100
AcDbEntity
  8
LAYER_1
 62
7
100
AcDbPolyline
 90
2
 70
0
 10
-3.135200
 20
-5.982700
 30
0.0
 10
-4.159900
 20
-5.982700
 30
0.0
  0
LWPOLYLINE
  5
28d
100
AcDbEntity
  8
LAYER_1
 62
7
100
AcDbPolyline
 90
2
 70
0
 10
-3.135200
 20
-5.494800
 30
0.0
 10
-3.135200
 20
-5.982700
 30
0.0
  0
LWPOLYLINE
  5
28e
100
AcDbEntity
  8
LAYER_1
 62
7
100
AcDbPolyline
 90
2
 70
0
 10
-4.159900
 20
-5.494800
 30
0.0
 10
-3.135200
 20
-5.494800
 30
0.0
  0
LWPOLYLINE
  5
28f
100
AcDbEntity
  8
LAYER_1
 62
7
100
AcDbPolyline
 90
2
 70
0
 10
-4.159900
 20
-5.982700
 30
0.0
 10
-4.159900
 20
-5.494800
 30
0.0
  0
LWPOLYLINE
  5
290
100
AcDbEntity
  8
LAYER_1
 62
7
100
AcDbPolyline
 90
2
 70
0
 10
-8.409400
 20
0.438700
 30
0.0
 10
-9.434100
 20
0.438700
 30
0.0
  0
LWPOLYLINE
  5
291
100
AcDbEntity
  8
LAYER_1
 62
7
100
AcDbPolyline
 90
2
 70
0
 10
-8.409400
 20
0.926600
 30
0.0
 10
-8.409400
 20
0.438700
 30
0.0
  0
LWPOLYLINE
  5
292
100
AcDbEntity
  8
LAYER_1
 62
7
100
AcDbPolyline
 90
2
 70
0
 10
-9.434100
 20
0.926600
 30
0.0
 10
-8.409400
 20
0.926600
 30
0.0
  0
LWPOLYLINE
  5
293
100
AcDbEntity
  8
LAYER_1
 62
7
100
AcDbPolyline
 90
2
 70
0
 10
-9.434100
 20
0.438700
 30
0.0
 10
-9.434100
 20
0.926600
 30
0.0
  0
LWPOLYLINE
  5
294
100
AcDbEntity
  8
LAYER_1
 62
7
100
AcDbPolyline
 90
2
 70
0
 10
-8.335800
 20
-0.585800
 30
0.0
 10
-9.360600
 20
-0.585800
 30
0.0
  0
LWPOLYLINE
  5
295
100
AcDbEntity
  8
LAYER_1
 62
7
100
AcDbPolyline
 90
2
 70
0
 10
-8.335800
 20
-0.097900
 30
0.0
 10
-8.335800
 20
-0.585800
 30
0.0
  0
LWPOLYLINE
  5
296
100
AcDbEntity
  8
LAYER_1
 62
7
100
AcDbPolyline
 90
2
 70
0
 10
-9.360600
 20
-0.097900
 30
0.0
 10
-8.335800
 20
-0.097900
 30
0.0
  0
LWPOLYLINE
  5
297
100
AcDbEntity
  8
LAYER_1
 62
7
100
AcDbPolyline
 90
2
 70
0
 10
-9.360600
 20
-0.585800
 30
0.0
 10
-9.360600
 20
-0.097900
 30
0.0
  0
LWPOLYLINE
  5
298
100
AcDbEntity
  8
LAYER_1
 62
7
100
AcDbPolyline
 90
2
 70
0
 10
-8.391000
 20
-1.592000
 30
0.0
 10
-9.415800
 20
-1.592000
 30
0.0
  0
LWPOLYLINE
  5
299
100
AcDbEntity
  8
LAYER_1
 62
7
100
AcDbPolyline
 90
2
 70
0
 10
-8.391000
 20
-1.104100
 30
0.0
 10
-8.391000
 20
-1.592000
 30
0.0
  0
LWPOLYLINE
  5
29a
100
AcDbEntity
  8
LAYER_1
 62
7
100
AcDbPolyline
 90
2
 70
0
 10
-9.415800
 20
-1.104100
 30
0.0
 10
-8.391000
 20
-1.104100
 30
0.0
  0
LWPOLYLINE
  5
29b
100
AcDbEntity
  8
LAYER_1
 62
7
100
AcDbPolyline
 90
2
 70
0
 10
-9.415800
 20
-1.592000
 30
0.0
 10
-9.415800
 20
-1.104100
 30
0.0
  0
LWPOLYLINE
  5
29c
100
AcDbEntity
  8
LAYER_1
 62
7
100
AcDbPolyline
 90
2
 70
0
 10
-8.391000
 20
-2.579900
 30
0.0
 10
-9.415800
 20
-2.579900
 30
0.0
  0
LWPOLYLINE
  5
29d
100
AcDbEntity
  8
LAYER_1
 62
7
100
AcDbPolyline
 90
2
 70
0
 10
-8.391000
 20
-2.092000
 30
0.0
 10
-8.391000
 20
-2.579900
 30
0.0
  0
LWPOLYLINE
  5
29e
100
AcDbEntity
  8
LAYER_1
 62
7
100
AcDbPolyline
 90
2
 70
0
 10
-9.415800
 20
-2.092000
 30
0.0
 10
-8.391000
 20
-2.092000
 30
0.0
  0
LWPOLYLINE
  5
29f
100
AcDbEntity
  8
LAYER_1
 62
7
100
AcDbPolyline
 90
2
 70
0
 10
-9.415800
 20
-2.579900
 30
0.0
 10
-9.415800
 20
-2.092000
 30
0.0
  0
LWPOLYLINE
  5
2a0
100
AcDbEntity
  8
LAYER_1
 62
7
100
AcDbPolyline
 90
2
 70
0
 10
-8.372600
 20
-3.586100
 30
0.0
 10
-9.397400
 20
-3.586100
 30
0.0
  0
LWPOLYLINE
  5
2a1
100
AcDbEntity
  8
LAYER_1
 62
7
100
AcDbPolyline
 90
2
 70
0
 10
-8.372600
 20
-3.098200
 30
0.0
 10
-8.372600
 20
-3.586100
 30
0.0
  0
LWPOLYLINE
  5
2a2
100
AcDbEntity
  8
LAYER_1
 62
7
100
AcDbPolyline
 90
2
 70
0
 10
-9.397400
 20
-3.098200
 30
0.0
 10
-8.372600
 20
-3.098200
 30
0.0
  0
LWPOLYLINE
  5
2a3
100
AcDbEntity
  8
LAYER_1
 62
7
100
AcDbPolyline
 90
2
 70
0
 10
-9.397400
 20
-3.586100
 30
0.0
 10
-9.397400
 20
-3.098200
 30
0.0
  0
LWPOLYLINE
  5
2a4
100
AcDbEntity
  8
LAYER_1
 62
7
100
AcDbPolyline
 90
2
 70
0
 10
-26.680100
 20
1.508100
 30
0.0
 10
-26.680100
 20
2.528300
 30
0.0
  0
LWPOLYLINE
  5
2a5
100
AcDbEntity
  8
LAYER_1
 62
7
100
AcDbPolyline
 90
2
 70
0
 10
-26.190000
 20
1.508100
 30
0.0
 10
-26.680100
 20
1.508100
 30
0.0
  0
LWPOLYLINE
  5
2a6
100
AcDbEntity
  8
LAYER_1
 62
7
100
AcDbPolyline
 90
2
 70
0
 10
-26.190000
 20
2.528300
 30
0.0
 10
-26.190000
 20
1.508100
 30
0.0
  0
LWPOLYLINE
  5
2a7
100
AcDbEntity
  8
LAYER_1
 62
7
100
AcDbPolyline
 90
2
 70
0
 10
-26.680100
 20
2.528300
 30
0.0
 10
-26.190000
 20
2.528300
 30
0.0
  0
LWPOLYLINE
  5
2a8
100
AcDbEntity
  8
LAYER_1
 62
7
100
AcDbPolyline
 90
2
 70
0
 10
-29.248900
 20
2.249900
 30
0.0
 10
-30.273700
 20
2.249900
 30
0.0
  0
LWPOLYLINE
  5
2a9
100
AcDbEntity
  8
LAYER_1
 62
7
100
AcDbPolyline
 90
2
 70
0
 10
-29.248900
 20
2.737800
 30
0.0
 10
-29.248900
 20
2.249900
 30
0.0
  0
LWPOLYLINE
  5
2aa
100
AcDbEntity
  8
LAYER_1
 62
7
100
AcDbPolyline
 90
2
 70
0
 10
-30.273700
 20
2.737800
 30
0.0
 10
-29.248900
 20
2.737800
 30
0.0
  0
LWPOLYLINE
  5
2ab
100
AcDbEntity
  8
LAYER_1
 62
7
100
AcDbPolyline
 90
2
 70
0
 10
-30.273700
 20
2.249900
 30
0.0
 10
-30.273700
 20
2.737800
 30
0.0
  0
LWPOLYLINE
  5
2ac
100
AcDbEntity
  8
LAYER_1
 62
7
100
AcDbPolyline
 90
2
 70
0
 10
-29.285600
 20
3.292700
 30
0.0
 10
-30.310400
 20
3.292700
 30
0.0
  0
LWPOLYLINE
  5
2ad
100
AcDbEntity
  8
LAYER_1
 62
7
100
AcDbPolyline
 90
2
 70
0
 10
-29.285600
 20
3.780600
 30
0.0
 10
-29.285600
 20
3.292700
 30
0.0
  0
LWPOLYLINE
  5
2ae
100
AcDbEntity
  8
LAYER_1
 62
7
100
AcDbPolyline
 90
2
 70
0
 10
-30.310400
 20
3.780600
 30
0.0
 10
-29.285600
 20
3.780600
 30
0.0
  0
LWPOLYLINE
  5
2af
100
AcDbEntity
  8
LAYER_1
 62
7
100
AcDbPolyline
 90
2
 70
0
 10
-30.310400
 20
3.292700
 30
0.0
 10
-30.310400
 20
3.780600
 30
0.0
  0
LWPOLYLINE
  5
2b0
100
AcDbEntity
  8
LAYER_1
 62
7
100
AcDbPolyline
 90
2
 70
0
 10
-27.282500
 20
2.743900
 30
0.0
 10
-28.307300
 20
2.743900
 30
0.0
  0
LWPOLYLINE
  5
2b1
100
AcDbEntity
  8
LAYER_1
 62
7
100
AcDbPolyline
 90
2
 70
0
 10
-27.282500
 20
3.231800
 30
0.0
 10
-27.282500
 20
2.743900
 30
0.0
  0
LWPOLYLINE
  5
2b2
100
AcDbEntity
  8
LAYER_1
 62
7
100
AcDbPolyline
 90
2
 70
0
 10
-28.307300
 20
3.231800
 30
0.0
 10
-27.282500
 20
3.231800
 30
0.0
  0
LWPOLYLINE
  5
2b3
100
AcDbEntity
  8
LAYER_1
 62
7
100
AcDbPolyline
 90
2
 70
0
 10
-28.307300
 20
2.743900
 30
0.0
 10
-28.307300
 20
3.231800
 30
0.0
  0
LWPOLYLINE
  5
2b4
100
AcDbEntity
  8
LAYER_1
 62
7
100
AcDbPolyline
 90
2
 70
0
 10
-27.319300
 20
1.829100
 30
0.0
 10
-28.344100
 20
1.829100
 30
0.0
  0
LWPOLYLINE
  5
2b5
100
AcDbEntity
  8
LAYER_1
 62
7
100
AcDbPolyline
 90
2
 70
0
 10
-27.319300
 20
2.317000
 30
0.0
 10
-27.319300
 20
1.829100
 30
0.0
  0
LWPOLYLINE
  5
2b6
100
AcDbEntity
  8
LAYER_1
 62
7
100
AcDbPolyline
 90
2
 70
0
 10
-28.344100
 20
2.317000
 30
0.0
 10
-27.319300
 20
2.317000
 30
0.0
  0
LWPOLYLINE
  5
2b7
100
AcDbEntity
  8
LAYER_1
 62
7
100
AcDbPolyline
 90
2
 70
0
 10
-28.344100
 20
1.829100
 30
0.0
 10
-28.344100
 20
2.317000
 30
0.0
  0
LWPOLYLINE
  5
2b8
100
AcDbEntity
  8
LAYER_1
 62
7
100
AcDbPolyline
 90
2
 70
0
 10
-28.807800
 20
0.713200
 30
0.0
 10
-29.832600
 20
0.713200
 30
0.0
  0
LWPOLYLINE
  5
2b9
100
AcDbEntity
  8
LAYER_1
 62
7
100
AcDbPolyline
 90
2
 70
0
 10
-28.807800
 20
1.201100
 30
0.0
 10
-28.807800
 20
0.713200
 30
0.0
  0
LWPOLYLINE
  5
2ba
100
AcDbEntity
  8
LAYER_1
 62
7
100
AcDbPolyline
 90
2
 70
0
 10
-29.832600
 20
1.201100
 30
0.0
 10
-28.807800
 20
1.201100
 30
0.0
  0
LWPOLYLINE
  5
2bb
100
AcDbEntity
  8
LAYER_1
 62
7
100
AcDbPolyline
 90
2
 70
0
 10
-29.832600
 20
0.713200
 30
0.0
 10
-29.832600
 20
1.201100
 30
0.0
  0
LWPOLYLINE
  5
2bc
100
AcDbEntity
  8
LAYER_1
 62
7
100
AcDbPolyline
 90
2
 70
0
 10
-28.789500
 20
-0.128400
 30
0.0
 10
-29.814300
 20
-0.128400
 30
0.0
  0
LWPOLYLINE
  5
2bd
100
AcDbEntity
  8
LAYER_1
 62
7
100
AcDbPolyline
 90
2
 70
0
 10
-28.789500
 20
0.359500
 30
0.0
 10
-28.789500
 20
-0.128400
 30
0.0
  0
LWPOLYLINE
  5
2be
100
AcDbEntity
  8
LAYER_1
 62
7
100
AcDbPolyline
 90
2
 70
0
 10
-29.814300
 20
0.359500
 30
0.0
 10
-28.789500
 20
0.359500
 30
0.0
  0
LWPOLYLINE
  5
2bf
100
AcDbEntity
  8
LAYER_1
 62
7
100
AcDbPolyline
 90
2
 70
0
 10
-29.814300
 20
-0.128400
 30
0.0
 10
-29.814300
 20
0.359500
 30
0.0
  0
LWPOLYLINE
  5
2c0
100
AcDbEntity
  8
LAYER_1
 62
7
100
AcDbPolyline
 90
2
 70
0
 10
-28.826200
 20
-1.134600
 30
0.0
 10
-29.851000
 20
-1.134600
 30
0.0
  0
LWPOLYLINE
  5
2c1
100
AcDbEntity
  8
LAYER_1
 62
7
100
AcDbPolyline
 90
2
 70
0
 10
-28.826200
 20
-0.646700
 30
0.0
 10
-28.826200
 20
-1.134600
 30
0.0
  0
LWPOLYLINE
  5
2c2
100
AcDbEntity
  8
LAYER_1
 62
7
100
AcDbPolyline
 90
2
 70
0
 10
-29.851000
 20
-0.646700
 30
0.0
 10
-28.826200
 20
-0.646700
 30
0.0
  0
LWPOLYLINE
  5
2c3
100
AcDbEntity
  8
LAYER_1
 62
7
100
AcDbPolyline
 90
2
 70
0
 10
-29.851000
 20
-1.134600
 30
0.0
 10
-29.851000
 20
-0.646700
 30
0.0
  0
LWPOLYLINE
  5
2c4
100
AcDbEntity
  8
LAYER_1
 62
7
100
AcDbPolyline
 90
2
 70
0
 10
-28.863000
 20
-2.964100
 30
0.0
 10
-29.887800
 20
-2.964100
 30
0.0
  0
LWPOLYLINE
  5
2c5
100
AcDbEntity
  8
LAYER_1
 62
7
100
AcDbPolyline
 90
2
 70
0
 10
-28.863000
 20
-2.476200
 30
0.0
 10
-28.863000
 20
-2.964100
 30
0.0
  0
LWPOLYLINE
  5
2c6
100
AcDbEntity
  8
LAYER_1
 62
7
100
AcDbPolyline
 90
2
 70
0
 10
-29.887800
 20
-2.476200
 30
0.0
 10
-28.863000
 20
-2.476200
 30
0.0
  0
LWPOLYLINE
  5
2c7
100
AcDbEntity
  8
LAYER_1
 62
7
100
AcDbPolyline
 90
2
 70
0
 10
-29.887800
 20
-2.964100
 30
0.0
 10
-29.887800
 20
-2.476200
 30
0.0
  0
LWPOLYLINE
  5
2c8
100
AcDbEntity
  8
LAYER_1
 62
7
100
AcDbPolyline
 90
2
 70
0
 10
-28.863000
 20
-2.085900
 30
0.0
 10
-29.887800
 20
-2.085900
 30
0.0
  0
LWPOLYLINE
  5
2c9
100
AcDbEntity
  8
LAYER_1
 62
7
100
AcDbPolyline
 90
2
 70
0
 10
-28.863000
 20
-1.598000
 30
0.0
 10
-28.863000
 20
-2.085900
 30
0.0
  0
LWPOLYLINE
  5
2ca
100
AcDbEntity
  8
LAYER_1
 62
7
100
AcDbPolyline
 90
2
 70
0
 10
-29.887800
 20
-1.598000
 30
0.0
 10
-28.863000
 20
-1.598000
 30
0.0
  0
LWPOLYLINE
  5
2cb
100
AcDbEntity
  8
LAYER_1
 62
7
100
AcDbPolyline
 90
2
 70
0
 10
-29.887800
 20
-2.085900
 30
0.0
 10
-29.887800
 20
-1.598000
 30
0.0
  0
LWPOLYLINE
  5
2cc
100
AcDbEntity
  8
LAYER_1
 62
7
100
AcDbPolyline
 90
2
 70
0
 10
-26.161600
 20
-2.488400
 30
0.0
 10
-27.186300
 20
-2.488400
 30
0.0
  0
LWPOLYLINE
  5
2cd
100
AcDbEntity
  8
LAYER_1
 62
7
100
AcDbPolyline
 90
2
 70
0
 10
-26.161600
 20
-2.000500
 30
0.0
 10
-26.161600
 20
-2.488400
 30
0.0
  0
LWPOLYLINE
  5
2ce
100
AcDbEntity
  8
LAYER_1
 62
7
100
AcDbPolyline
 90
2
 70
0
 10
-27.186300
 20
-2.000500
 30
0.0
 10
-26.161600
 20
-2.000500
 30
0.0
  0
LWPOLYLINE
  5
2cf
100
AcDbEntity
  8
LAYER_1
 62
7
100
AcDbPolyline
 90
2
 70
0
 10
-27.186300
 20
-2.488400
 30
0.0
 10
-27.186300
 20
-2.000500
 30
0.0
  0
LWPOLYLINE
  5
2d0
100
AcDbEntity
  8
LAYER_1
 62
7
100
AcDbPolyline
 90
2
 70
0
 10
-26.161600
 20
-3.586100
 30
0.0
 10
-27.186300
 20
-3.586100
 30
0.0
  0
LWPOLYLINE
  5
2d1
100
AcDbEntity
  8
LAYER_1
 62
7
100
AcDbPolyline
 90
2
 70
0
 10
-26.161600
 20
-3.098200
 30
0.0
 10
-26.161600
 20
-3.586100
 30
0.0
  0
LWPOLYLINE
  5
2d2
100
AcDbEntity
  8
LAYER_1
 62
7
100
AcDbPolyline
 90
2
 70
0
 10
-27.186300
 20
-3.098200
 30
0.0
 10
-26.161600
 20
-3.098200
 30
0.0
  0
LWPOLYLINE
  5
2d3
100
AcDbEntity
  8
LAYER_1
 62
7
100
AcDbPolyline
 90
2
 70
0
 10
-27.186300
 20
-3.586100
 30
0.0
 10
-27.186300
 20
-3.098200
 30
0.0
  0
LWPOLYLINE
  5
2d4
100
AcDbEntity
  8
LAYER_1
 62
7
100
AcDbPolyline
 90
2
 70
0
 10
-26.179900
 20
-4.464300
 30
0.0
 10
-27.204700
 20
-4.464300
 30
0.0
  0
LWPOLYLINE
  5
2d5
100
AcDbEntity
  8
LAYER_1
 62
7
100
AcDbPolyline
 90
2
 70
0
 10
-26.179900
 20
-3.976400
 30
0.0
 10
-26.179900
 20
-4.464300
 30
0.0
  0
LWPOLYLINE
  5
2d6
100
AcDbEntity
  8
LAYER_1
 62
7
100
AcDbPolyline
 90
2
 70
0
 10
-27.204700
 20
-3.976400
 30
0.0
 10
-26.179900
 20
-3.976400
 30
0.0
  0
LWPOLYLINE
  5
2d7
100
AcDbEntity
  8
LAYER_1
 62
7
100
AcDbPolyline
 90
2
 70
0
 10
-27.204700
 20
-4.464300
 30
0.0
 10
-27.204700
 20
-3.976400
 30
0.0
  0
LWPOLYLINE
  5
2d8
100
AcDbEntity
  8
LAYER_1
 62
7
100
AcDbPolyline
 90
2
 70
0
 10
-26.179900
 20
-5.250900
 30
0.0
 10
-27.204700
 20
-5.250900
 30
0.0
  0
LWPOLYLINE
  5
2d9
100
AcDbEntity
  8
LAYER_1
 62
7
100
AcDbPolyline
 90
2
 70
0
 10
-26.179900
 20
-4.763000
 30
0.0
 10
-26.179900
 20
-5.250900
 30
0.0
  0
LWPOLYLINE
  5
2da
100
AcDbEntity
  8
LAYER_1
 62
7
100
AcDbPolyline
 90
2
 70
0
 10
-27.204700
 20
-4.763000
 30
0.0
 10
-26.179900
 20
-4.763000
 30
0.0
  0
LWPOLYLINE
  5
2db
100
AcDbEntity
  8
LAYER_1
 62
7
100
AcDbPolyline
 90
2
 70
0
 10
-27.204700
 20
-5.250900
 30
0.0
 10
-27.204700
 20
-4.763000
 30
0.0
  0
LWPOLYLINE
  5
2dc
100
AcDbEntity
  8
LAYER_1
 62
7
100
AcDbPolyline
 90
2
 70
0
 10
-26.235000
 20
-6.183900
 30
0.0
 10
-27.259800
 20
-6.183900
 30
0.0
  0
LWPOLYLINE
  5
2dd
100
AcDbEntity
  8
LAYER_1
 62
7
100
AcDbPolyline
 90
2
 70
0
 10
-26.235000
 20
-5.696100
 30
0.0
 10
-26.235000
 20
-6.183900
 30
0.0
  0
LWPOLYLINE
  5
2de
100
AcDbEntity
  8
LAYER_1
 62
7
100
AcDbPolyline
 90
2
 70
0
 10
-27.259800
 20
-5.696100
 30
0.0
 10
-26.235000
 20
-5.696100
 30
0.0
  0
LWPOLYLINE
  5
2df
100
AcDbEntity
  8
LAYER_1
 62
7
100
AcDbPolyline
 90
2
 70
0
 10
-27.259800
 20
-6.183900
 30
0.0
 10
-27.259800
 20
-5.696100
 30
0.0
  0
LWPOLYLINE
  5
2e0
100
AcDbEntity
  8
LAYER_1
 62
7
100
AcDbPolyline
 90
2
 70
0
 10
-26.235000
 20
-7.135300
 30
0.0
 10
-27.259800
 20
-7.135300
 30
0.0
  0
LWPOLYLINE
  5
2e1
100
AcDbEntity
  8
LAYER_1
 62
7
100
AcDbPolyline
 90
2
 70
0
 10
-26.235000
 20
-6.647400
 30
0.0
 10
-26.235000
 20
-7.135300
 30
0.0
  0
LWPOLYLINE
  5
2e2
100
AcDbEntity
  8
LAYER_1
 62
7
100
AcDbPolyline
 90
2
 70
0
 10
-27.259800
 20
-6.647400
 30
0.0
 10
-26.235000
 20
-6.647400
 30
0.0
  0
LWPOLYLINE
  5
2e3
100
AcDbEntity
  8
LAYER_1
 62
7
100
AcDbPolyline
 90
2
 70
0
 10
-27.259800
 20
-7.135300
 30
0.0
 10
-27.259800
 20
-6.647400
 30
0.0
  0
LWPOLYLINE
  5
2e4
100
AcDbEntity
  8
LAYER_1
 62
7
100
AcDbPolyline
 90
2
 70
0
 10
-9.571100
 20
3.721800
 30
0.0
 10
-9.571100
 20
4.742000
 30
0.0
  0
LWPOLYLINE
  5
2e5
100
AcDbEntity
  8
LAYER_1
 62
7
100
AcDbPolyline
 90
2
 70
0
 10
-9.081000
 20
3.721800
 30
0.0
 10
-9.571100
 20
3.721800
 30
0.0
  0
LWPOLYLINE
  5
2e6
100
AcDbEntity
  8
LAYER_1
 62
7
100
AcDbPolyline
 90
2
 70
0
 10
-9.081000
 20
4.742000
 30
0.0
 10
-9.081000
 20
3.721800
 30
0.0
  0
LWPOLYLINE
  5
2e7
100
AcDbEntity
  8
LAYER_1
 62
7
100
AcDbPolyline
 90
2
 70
0
 10
-9.571100
 20
4.742000
 30
0.0
 10
-9.081000
 20
4.742000
 30
0.0
  0
LWPOLYLINE
  5
2e8
100
AcDbEntity
  8
LAYER_1
 62
7
100
AcDbPolyline
 90
2
 70
0
 10
-9.571100
 20
1.782500
 30
0.0
 10
-9.571100
 20
2.802700
 30
0.0
  0
LWPOLYLINE
  5
2e9
100
AcDbEntity
  8
LAYER_1
 62
7
100
AcDbPolyline
 90
2
 70
0
 10
-9.081000
 20
1.782500
 30
0.0
 10
-9.571100
 20
1.782500
 30
0.0
  0
LWPOLYLINE
  5
2ea
100
AcDbEntity
  8
LAYER_1
 62
7
100
AcDbPolyline
 90
2
 70
0
 10
-9.081000
 20
2.802700
 30
0.0
 10
-9.081000
 20
1.782500
 30
0.0
  0
LWPOLYLINE
  5
2eb
100
AcDbEntity
  8
LAYER_1
 62
7
100
AcDbPolyline
 90
2
 70
0
 10
-9.571100
 20
2.802700
 30
0.0
 10
-9.081000
 20
2.802700
 30
0.0
  0
LWPOLYLINE
  5
2ec
100
AcDbEntity
  8
LAYER_1
 62
7
100
AcDbPolyline
 90
2
 70
0
 10
-9.626200
 20
-5.041400
 30
0.0
 10
-9.626200
 20
-4.021200
 30
0.0
  0
LWPOLYLINE
  5
2ed
100
AcDbEntity
  8
LAYER_1
 62
7
100
AcDbPolyline
 90
2
 70
0
 10
-9.136100
 20
-5.041400
 30
0.0
 10
-9.626200
 20
-5.041400
 30
0.0
  0
LWPOLYLINE
  5
2ee
100
AcDbEntity
  8
LAYER_1
 62
7
100
AcDbPolyline
 90
2
 70
0
 10
-9.136100
 20
-4.021200
 30
0.0
 10
-9.136100
 20
-5.041400
 30
0.0
  0
LWPOLYLINE
  5
2ef
100
AcDbEntity
  8
LAYER_1
 62
7
100
AcDbPolyline
 90
2
 70
0
 10
-9.626200
 20
-4.021200
 30
0.0
 10
-9.136100
 20
-4.021200
 30
0.0
  0
LWPOLYLINE
  5
2f0
100
AcDbEntity
  8
LAYER_1
 62
7
100
AcDbPolyline
 90
2
 70
0
 10
-26.143200
 20
-8.159800
 30
0.0
 10
-27.167900
 20
-8.159800
 30
0.0
  0
LWPOLYLINE
  5
2f1
100
AcDbEntity
  8
LAYER_1
 62
7
100
AcDbPolyline
 90
2
 70
0
 10
-26.143200
 20
-7.671900
 30
0.0
 10
-26.143200
 20
-8.159800
 30
0.0
  0
LWPOLYLINE
  5
2f2
100
AcDbEntity
  8
LAYER_1
 62
7
100
AcDbPolyline
 90
2
 70
0
 10
-27.167900
 20
-7.671900
 30
0.0
 10
-26.143200
 20
-7.671900
 30
0.0
  0
LWPOLYLINE
  5
2f3
100
AcDbEntity
  8
LAYER_1
 62
7
100
AcDbPolyline
 90
2
 70
0
 10
-27.167900
 20
-8.159800
 30
0.0
 10
-27.167900
 20
-7.671900
 30
0.0
  0
LWPOLYLINE
  5
2f4
100
AcDbEntity
  8
LAYER_1
 62
7
100
AcDbPolyline
 90
2
 70
0
 10
-12.158300
 20
-9.751400
 30
0.0
 10
-13.183100
 20
-9.751400
 30
0.0
  0
LWPOLYLINE
  5
2f5
100
AcDbEntity
  8
LAYER_1
 62
7
100
AcDbPolyline
 90
2
 70
0
 10
-12.158300
 20
-9.263500
 30
0.0
 10
-12.158300
 20
-9.751400
 30
0.0
  0
LWPOLYLINE
  5
2f6
100
AcDbEntity
  8
LAYER_1
 62
7
100
AcDbPolyline
 90
2
 70
0
 10
-13.183100
 20
-9.263500
 30
0.0
 10
-12.158300
 20
-9.263500
 30
0.0
  0
LWPOLYLINE
  5
2f7
100
AcDbEntity
  8
LAYER_1
 62
7
100
AcDbPolyline
 90
2
 70
0
 10
-13.183100
 20
-9.751400
 30
0.0
 10
-13.183100
 20
-9.263500
 30
0.0
  0
LWPOLYLINE
  5
2f8
100
AcDbEntity
  8
LAYER_1
 62
7
100
AcDbPolyline
 90
2
 70
0
 10
-18.700500
 20
-10.117300
 30
0.0
 10
-19.725300
 20
-10.117300
 30
0.0
  0
LWPOLYLINE
  5
2f9
100
AcDbEntity
  8
LAYER_1
 62
7
100
AcDbPolyline
 90
2
 70
0
 10
-18.700500
 20
-9.629400
 30
0.0
 10
-18.700500
 20
-10.117300
 30
0.0
  0
LWPOLYLINE
  5
2fa
100
AcDbEntity
  8
LAYER_1
 62
7
100
AcDbPolyline
 90
2
 70
0
 10
-19.725300
 20
-9.629400
 30
0.0
 10
-18.700500
 20
-9.629400
 30
0.0
  0
LWPOLYLINE
  5
2fb
100
AcDbEntity
  8
LAYER_1
 62
7
100
AcDbPolyline
 90
2
 70
0
 10
-19.725300
 20
-10.117300
 30
0.0
 10
-19.725300
 20
-9.629400
 30
0.0
  0
LWPOLYLINE
  5
2fc
100
AcDbEntity
  8
LAYER_1
 62
7
100
AcDbPolyline
 90
2
 70
0
 10
-9.607900
 20
-7.840500
 30
0.0
 10
-9.607900
 20
-6.820300
 30
0.0
  0
LWPOLYLINE
  5
2fd
100
AcDbEntity
  8
LAYER_1
 62
7
100
AcDbPolyline
 90
2
 70
0
 10
-9.117800
 20
-7.840500
 30
0.0
 10
-9.607900
 20
-7.840500
 30
0.0
  0
LWPOLYLINE
  5
2fe
100
AcDbEntity
  8
LAYER_1
 62
7
100
AcDbPolyline
 90
2
 70
0
 10
-9.117800
 20
-6.820300
 30
0.0
 10
-9.117800
 20
-7.840500
 30
0.0
  0
LWPOLYLINE
  5
2ff
100
AcDbEntity
  8
LAYER_1
 62
7
100
AcDbPolyline
 90
2
 70
0
 10
-9.607900
 20
-6.820300
 30
0.0
 10
-9.117800
 20
-6.820300
 30
0.0
  0
LWPOLYLINE
  5
300
100
AcDbEntity
  8
LAYER_1
 62
7
100
AcDbPolyline
 90
2
 70
0
 10
-25.375300
 20
-15.304700
 30
0.0
 10
-25.375300
 20
-14.284500
 30
0.0
  0
LWPOLYLINE
  5
301
100
AcDbEntity
  8
LAYER_1
 62
7
100
AcDbPolyline
 90
2
 70
0
 10
-24.885200
 20
-15.304700
 30
0.0
 10
-25.375300
 20
-15.304700
 30
0.0
  0
LWPOLYLINE
  5
302
100
AcDbEntity
  8
LAYER_1
 62
7
100
AcDbPolyline
 90
2
 70
0
 10
-24.885200
 20
-14.284500
 30
0.0
 10
-24.885200
 20
-15.304700
 30
0.0
  0
LWPOLYLINE
  5
303
100
AcDbEntity
  8
LAYER_1
 62
7
100
AcDbPolyline
 90
2
 70
0
 10
-25.375300
 20
-14.284500
 30
0.0
 10
-24.885200
 20
-14.284500
 30
0.0
  0
LWPOLYLINE
  5
304
100
AcDbEntity
  8
LAYER_1
 62
7
100
AcDbPolyline
 90
2
 70
0
 10
-8.615500
 20
-8.846700
 30
0.0
 10
-8.615500
 20
-7.826500
 30
0.0
  0
LWPOLYLINE
  5
305
100
AcDbEntity
  8
LAYER_1
 62
7
100
AcDbPolyline
 90
2
 70
0
 10
-8.125500
 20
-8.846700
 30
0.0
 10
-8.615500
 20
-8.846700
 30
0.0
  0
LWPOLYLINE
  5
306
100
AcDbEntity
  8
LAYER_1
 62
7
100
AcDbPolyline
 90
2
 70
0
 10
-8.125500
 20
-7.826500
 30
0.0
 10
-8.125500
 20
-8.846700
 30
0.0
  0
LWPOLYLINE
  5
307
100
AcDbEntity
  8
LAYER_1
 62
7
100
AcDbPolyline
 90
2
 70
0
 10
-8.615500
 20
-7.826500
 30
0.0
 10
-8.125500
 20
-7.826500
 30
0.0
  0
LWPOLYLINE
  5
308
100
AcDbEntity
  8
LAYER_1
 62
7
100
AcDbPolyline
 90
2
 70
0
 10
-5.303600
 20
-23.344400
 30
0.0
 10
-6.328400
 20
-23.344400
 30
0.0
  0
LWPOLYLINE
  5
309
100
AcDbEntity
  8
LAYER_1
 62
7
100
AcDbPolyline
 90
2
 70
0
 10
-5.303600
 20
-22.856500
 30
0.0
 10
-5.303600
 20
-23.344400
 30
0.0
  0
LWPOLYLINE
  5
30a
100
AcDbEntity
  8
LAYER_1
 62
7
100
AcDbPolyline
 90
2
 70
0
 10
-6.328400
 20
-22.856500
 30
0.0
 10
-5.303600
 20
-22.856500
 30
0.0
  0
LWPOLYLINE
  5
30b
100
AcDbEntity
  8
LAYER_1
 62
7
100
AcDbPolyline
 90
2
 70
0
 10
-6.328400
 20
-23.344400
 30
0.0
 10
-6.328400
 20
-22.856500
 30
0.0
  0
LWPOLYLINE
  5
30c
100
AcDbEntity
  8
LAYER_1
 62
7
100
AcDbPolyline
 90
2
 70
0
 10
-3.392400
 20
-23.362700
 30
0.0
 10
-4.417200
 20
-23.362700
 30
0.0
  0
LWPOLYLINE
  5
30d
100
AcDbEntity
  8
LAYER_1
 62
7
100
AcDbPolyline
 90
2
 70
0
 10
-3.392400
 20
-22.874800
 30
0.0
 10
-3.392400
 20
-23.362700
 30
0.0
  0
LWPOLYLINE
  5
30e
100
AcDbEntity
  8
LAYER_1
 62
7
100
AcDbPolyline
 90
2
 70
0
 10
-4.417200
 20
-22.874800
 30
0.0
 10
-3.392400
 20
-22.874800
 30
0.0
  0
LWPOLYLINE
  5
30f
100
AcDbEntity
  8
LAYER_1
 62
7
100
AcDbPolyline
 90
2
 70
0
 10
-4.417200
 20
-23.362700
 30
0.0
 10
-4.417200
 20
-22.874800
 30
0.0
  0
LWPOLYLINE
  5
310
100
AcDbEntity
  8
LAYER_1
 62
7
100
AcDbPolyline
 90
2
 70
0
 10
-0.562400
 20
-23.289500
 30
0.0
 10
-1.587100
 20
-23.289500
 30
0.0
  0
LWPOLYLINE
  5
311
100
AcDbEntity
  8
LAYER_1
 62
7
100
AcDbPolyline
 90
2
 70
0
 10
-0.562400
 20
-22.801600
 30
0.0
 10
-0.562400
 20
-23.289500
 30
0.0
  0
LWPOLYLINE
  5
312
100
AcDbEntity
  8
LAYER_1
 62
7
100
AcDbPolyline
 90
2
 70
0
 10
-1.587100
 20
-22.801600
 30
0.0
 10
-0.562400
 20
-22.801600
 30
0.0
  0
LWPOLYLINE
  5
313
100
AcDbEntity
  8
LAYER_1
 62
7
100
AcDbPolyline
 90
2
 70
0
 10
-1.587100
 20
-23.289500
 30
0.0
 10
-1.587100
 20
-22.801600
 30
0.0
  0
LWPOLYLINE
  5
314
100
AcDbEntity
  8
LAYER_1
 62
7
100
AcDbPolyline
 90
2
 70
0
 10
-0.470500
 20
-22.246700
 30
0.0
 10
-1.495300
 20
-22.246700
 30
0.0
  0
LWPOLYLINE
  5
315
100
AcDbEntity
  8
LAYER_1
 62
7
100
AcDbPolyline
 90
2
 70
0
 10
-0.470500
 20
-21.758800
 30
0.0
 10
-0.470500
 20
-22.246700
 30
0.0
  0
LWPOLYLINE
  5
316
100
AcDbEntity
  8
LAYER_1
 62
7
100
AcDbPolyline
 90
2
 70
0
 10
-1.495300
 20
-21.758800
 30
0.0
 10
-0.470500
 20
-21.758800
 30
0.0
  0
LWPOLYLINE
  5
317
100
AcDbEntity
  8
LAYER_1
 62
7
100
AcDbPolyline
 90
2
 70
0
 10
-1.495300
 20
-22.246700
 30
0.0
 10
-1.495300
 20
-21.758800
 30
0.0
  0
LWPOLYLINE
  5
318
100
AcDbEntity
  8
LAYER_1
 62
7
100
AcDbPolyline
 90
2
 70
0
 10
-1.448400
 20
-17.774500
 30
0.0
 10
-1.448400
 20
-16.754300
 30
0.0
  0
LWPOLYLINE
  5
319
100
AcDbEntity
  8
LAYER_1
 62
7
100
AcDbPolyline
 90
2
 70
0
 10
-0.958400
 20
-17.774500
 30
0.0
 10
-1.448400
 20
-17.774500
 30
0.0
  0
LWPOLYLINE
  5
31a
100
AcDbEntity
  8
LAYER_1
 62
7
100
AcDbPolyline
 90
2
 70
0
 10
-0.958400
 20
-16.754300
 30
0.0
 10
-0.958400
 20
-17.774500
 30
0.0
  0
LWPOLYLINE
  5
31b
100
AcDbEntity
  8
LAYER_1
 62
7
100
AcDbPolyline
 90
2
 70
0
 10
-1.448400
 20
-16.754300
 30
0.0
 10
-0.958400
 20
-16.754300
 30
0.0
  0
LWPOLYLINE
  5
31c
100
AcDbEntity
  8
LAYER_1
 62
7
100
AcDbPolyline
 90
2
 70
0
 10
-0.695000
 20
-13.182600
 30
0.0
 10
-0.695000
 20
-12.162400
 30
0.0
  0
LWPOLYLINE
  5
31d
100
AcDbEntity
  8
LAYER_1
 62
7
100
AcDbPolyline
 90
2
 70
0
 10
-0.204900
 20
-13.182600
 30
0.0
 10
-0.695000
 20
-13.182600
 30
0.0
  0
LWPOLYLINE
  5
31e
100
AcDbEntity
  8
LAYER_1
 62
7
100
AcDbPolyline
 90
2
 70
0
 10
-0.204900
 20
-12.162400
 30
0.0
 10
-0.204900
 20
-13.182600
 30
0.0
  0
LWPOLYLINE
  5
31f
100
AcDbEntity
  8
LAYER_1
 62
7
100
AcDbPolyline
 90
2
 70
0
 10
-0.695000
 20
-12.162400
 30
0.0
 10
-0.204900
 20
-12.162400
 30
0.0
  0
LWPOLYLINE
  5
320
100
AcDbEntity
  8
LAYER_1
 62
7
100
AcDbPolyline
 90
2
 70
0
 10
-0.713400
 20
-11.261600
 30
0.0
 10
-0.713400
 20
-10.241400
 30
0.0
  0
LWPOLYLINE
  5
321
100
AcDbEntity
  8
LAYER_1
 62
7
100
AcDbPolyline
 90
2
 70
0
 10
-0.223300
 20
-11.261600
 30
0.0
 10
-0.713400
 20
-11.261600
 30
0.0
  0
LWPOLYLINE
  5
322
100
AcDbEntity
  8
LAYER_1
 62
7
100
AcDbPolyline
 90
2
 70
0
 10
-0.223300
 20
-10.241400
 30
0.0
 10
-0.223300
 20
-11.261600
 30
0.0
  0
LWPOLYLINE
  5
323
100
AcDbEntity
  8
LAYER_1
 62
7
100
AcDbPolyline
 90
2
 70
0
 10
-0.713400
 20
-10.241400
 30
0.0
 10
-0.223300
 20
-10.241400
 30
0.0
  0
LWPOLYLINE
  5
324
100
AcDbEntity
  8
LAYER_1
 62
7
100
AcDbPolyline
 90
2
 70
0
 10
-8.725800
 20
-6.870900
 30
0.0
 10
-8.725800
 20
-5.850700
 30
0.0
  0
LWPOLYLINE
  5
325
100
AcDbEntity
  8
LAYER_1
 62
7
100
AcDbPolyline
 90
2
 70
0
 10
-8.235700
 20
-6.870900
 30
0.0
 10
-8.725800
 20
-6.870900
 30
0.0
  0
LWPOLYLINE
  5
326
100
AcDbEntity
  8
LAYER_1
 62
7
100
AcDbPolyline
 90
2
 70
0
 10
-8.235700
 20
-5.850700
 30
0.0
 10
-8.235700
 20
-6.870900
 30
0.0
  0
LWPOLYLINE
  5
327
100
AcDbEntity
  8
LAYER_1
 62
7
100
AcDbPolyline
 90
2
 70
0
 10
-8.725800
 20
-5.850700
 30
0.0
 10
-8.235700
 20
-5.850700
 30
0.0
  0
LWPOLYLINE
  5
328
100
AcDbEntity
  8
LAYER_1
 62
7
100
AcDbPolyline
 90
2
 70
0
 10
-25.853100
 20
-19.494300
 30
0.0
 10
-25.853100
 20
-18.474100
 30
0.0
  0
LWPOLYLINE
  5
329
100
AcDbEntity
  8
LAYER_1
 62
7
100
AcDbPolyline
 90
2
 70
0
 10
-25.363100
 20
-19.494300
 30
0.0
 10
-25.853100
 20
-19.494300
 30
0.0
  0
LWPOLYLINE
  5
32a
100
AcDbEntity
  8
LAYER_1
 62
7
100
AcDbPolyline
 90
2
 70
0
 10
-25.363100
 20
-18.474100
 30
0.0
 10
-25.363100
 20
-19.494300
 30
0.0
  0
LWPOLYLINE
  5
32b
100
AcDbEntity
  8
LAYER_1
 62
7
100
AcDbPolyline
 90
2
 70
0
 10
-25.853100
 20
-18.474100
 30
0.0
 10
-25.363100
 20
-18.474100
 30
0.0
  0
LWPOLYLINE
  5
32c
100
AcDbEntity
  8
LAYER_1
 62
7
100
AcDbPolyline
 90
2
 70
0
 10
29.544300
 20
-12.460000
 30
0.0
 10
29.544300
 20
-11.439800
 30
0.0
  0
LWPOLYLINE
  5
32d
100
AcDbEntity
  8
LAYER_1
 62
7
100
AcDbPolyline
 90
2
 70
0
 10
30.034400
 20
-12.460000
 30
0.0
 10
29.544300
 20
-12.460000
 30
0.0
  0
LWPOLYLINE
  5
32e
100
AcDbEntity
  8
LAYER_1
 62
7
100
AcDbPolyline
 90
2
 70
0
 10
30.034400
 20
-11.439800
 30
0.0
 10
30.034400
 20
-12.460000
 30
0.0
  0
LWPOLYLINE
  5
32f
100
AcDbEntity
  8
LAYER_1
 62
7
100
AcDbPolyline
 90
2
 70
0
 10
29.544300
 20
-11.439800
 30
0.0
 10
30.034400
 20
-11.439800
 30
0.0
  0
LWPOLYLINE
  5
330
100
AcDbEntity
  8
LAYER_1
 62
7
100
AcDbPolyline
 90
2
 70
0
 10
28.680600
 20
-12.441700
 30
0.0
 10
28.680600
 20
-11.421500
 30
0.0
  0
LWPOLYLINE
  5
331
100
AcDbEntity
  8
LAYER_1
 62
7
100
AcDbPolyline
 90
2
 70
0
 10
29.170700
 20
-12.441700
 30
0.0
 10
28.680600
 20
-12.441700
 30
0.0
  0
LWPOLYLINE
  5
332
100
AcDbEntity
  8
LAYER_1
 62
7
100
AcDbPolyline
 90
2
 70
0
 10
29.170700
 20
-11.421500
 30
0.0
 10
29.170700
 20
-12.441700
 30
0.0
  0
LWPOLYLINE
  5
333
100
AcDbEntity
  8
LAYER_1
 62
7
100
AcDbPolyline
 90
2
 70
0
 10
28.680600
 20
-11.421500
 30
0.0
 10
29.170700
 20
-11.421500
 30
0.0
  0
LWPOLYLINE
  5
334
100
AcDbEntity
  8
LAYER_1
 62
7
100
AcDbPolyline
 90
2
 70
0
 10
27.471500
 20
-25.833000
 30
0.0
 10
16.702700
 20
-25.833000
 30
0.0
  0
LWPOLYLINE
  5
335
100
AcDbEntity
  8
LAYER_1
 62
7
100
AcDbPolyline
 90
2
 70
0
 10
27.471500
 20
-21.497200
 30
0.0
 10
27.471500
 20
-25.833000
 30
0.0
  0
LWPOLYLINE
  5
336
100
AcDbEntity
  8
LAYER_1
 62
7
100
AcDbPolyline
 90
2
 70
0
 10
16.702700
 20
-21.497200
 30
0.0
 10
27.471500
 20
-21.497200
 30
0.0
  0
LWPOLYLINE
  5
337
100
AcDbEntity
  8
LAYER_1
 62
7
100
AcDbPolyline
 90
2
 70
0
 10
16.702700
 20
-25.833000
 30
0.0
 10
16.702700
 20
-21.497200
 30
0.0
  0
LWPOLYLINE
  5
338
100
AcDbEntity
  8
LAYER_1
 62
7
100
AcDbPolyline
 90
2
 70
0
 10
17.695100
 20
-19.905500
 30
0.0
 10
17.695100
 20
-9.934900
 30
0.0
  0
LWPOLYLINE
  5
339
100
AcDbEntity
  8
LAYER_1
 62
7
100
AcDbPolyline
 90
2
 70
0
 10
27.772100
 20
-19.905500
 30
0.0
 10
17.695100
 20
-19.905500
 30
0.0
  0
LWPOLYLINE
  5
33a
100
AcDbEntity
  8
LAYER_1
 62
7
100
AcDbPolyline
 90
2
 70
0
 10
27.772100
 20
-9.934900
 30
0.0
 10
27.772100
 20
-19.905500
 30
0.0
  0
LWPOLYLINE
  5
33b
100
AcDbEntity
  8
LAYER_1
 62
7
100
AcDbPolyline
 90
2
 70
0
 10
17.695100
 20
-9.934900
 30
0.0
 10
27.772100
 20
-9.934900
 30
0.0
  0
LWPOLYLINE
  5
33c
100
AcDbEntity
  8
LAYER_1
 62
7
100
AcDbPolyline
 90
2
 70
0
 10
13.253100
 20
23.388600
 30
0.0
 10
13.253100
 20
24.408800
 30
0.0
  0
LWPOLYLINE
  5
33d
100
AcDbEntity
  8
LAYER_1
 62
7
100
AcDbPolyline
 90
2
 70
0
 10
13.743200
 20
23.388600
 30
0.0
 10
13.253100
 20
23.388600
 30
0.0
  0
LWPOLYLINE
  5
33e
100
AcDbEntity
  8
LAYER_1
 62
7
100
AcDbPolyline
 90
2
 70
0
 10
13.743200
 20
24.408800
 30
0.0
 10
13.743200
 20
23.388600
 30
0.0
  0
LWPOLYLINE
  5
33f
100
AcDbEntity
  8
LAYER_1
 62
7
100
AcDbPolyline
 90
2
 70
0
 10
13.253100
 20
24.408800
 30
0.0
 10
13.743200
 20
24.408800
 30
0.0
  0
LWPOLYLINE
  5
340
100
AcDbEntity
  8
LAYER_1
 62
7
100
AcDbPolyline
 90
2
 70
0
 10
14.208700
 20
24.413100
 30
0.0
 10
14.208700
 20
25.433300
 30
0.0
  0
LWPOLYLINE
  5
341
100
AcDbEntity
  8
LAYER_1
 62
7
100
AcDbPolyline
 90
2
 70
0
 10
14.698800
 20
24.413100
 30
0.0
 10
14.208700
 20
24.413100
 30
0.0
  0
LWPOLYLINE
  5
342
100
AcDbEntity
  8
LAYER_1
 62
7
100
AcDbPolyline
 90
2
 70
0
 10
14.698800
 20
25.433300
 30
0.0
 10
14.698800
 20
24.413100
 30
0.0
  0
LWPOLYLINE
  5
343
100
AcDbEntity
  8
LAYER_1
 62
7
100
AcDbPolyline
 90
2
 70
0
 10
14.208700
 20
25.433300
 30
0.0
 10
14.698800
 20
25.433300
 30
0.0
  0
LWPOLYLINE
  5
344
100
AcDbEntity
  8
LAYER_1
 62
7
100
AcDbPolyline
 90
2
 70
0
 10
14.245500
 20
22.473900
 30
0.0
 10
14.245500
 20
23.494100
 30
0.0
  0
LWPOLYLINE
  5
345
100
AcDbEntity
  8
LAYER_1
 62
7
100
AcDbPolyline
 90
2
 70
0
 10
14.735600
 20
22.473900
 30
0.0
 10
14.245500
 20
22.473900
 30
0.0
  0
LWPOLYLINE
  5
346
100
AcDbEntity
  8
LAYER_1
 62
7
100
AcDbPolyline
 90
2
 70
0
 10
14.735600
 20
23.494100
 30
0.0
 10
14.735600
 20
22.473900
 30
0.0
  0
LWPOLYLINE
  5
347
100
AcDbEntity
  8
LAYER_1
 62
7
100
AcDbPolyline
 90
2
 70
0
 10
14.245500
 20
23.494100
 30
0.0
 10
14.735600
 20
23.494100
 30
0.0
  0
LWPOLYLINE
  5
348
100
AcDbEntity
  8
LAYER_1
 62
7
100
AcDbPolyline
 90
2
 70
0
 10
16.928500
 20
24.010600
 30
0.0
 10
16.928500
 20
25.030800
 30
0.0
  0
LWPOLYLINE
  5
349
100
AcDbEntity
  8
LAYER_1
 62
7
100
AcDbPolyline
 90
2
 70
0
 10
17.418600
 20
24.010600
 30
0.0
 10
16.928500
 20
24.010600
 30
0.0
  0
LWPOLYLINE
  5
34a
100
AcDbEntity
  8
LAYER_1
 62
7
100
AcDbPolyline
 90
2
 70
0
 10
17.418600
 20
25.030800
 30
0.0
 10
17.418600
 20
24.010600
 30
0.0
  0
LWPOLYLINE
  5
34b
100
AcDbEntity
  8
LAYER_1
 62
7
100
AcDbPolyline
 90
2
 70
0
 10
16.928500
 20
25.030800
 30
0.0
 10
17.418600
 20
25.030800
 30
0.0
  0
LWPOLYLINE
  5
34c
100
AcDbEntity
  8
LAYER_1
 62
7
100
AcDbPolyline
 90
2
 70
0
 10
18.876500
 20
21.815200
 30
0.0
 10
18.876500
 20
22.835400
 30
0.0
  0
LWPOLYLINE
  5
34d
100
AcDbEntity
  8
LAYER_1
 62
7
100
AcDbPolyline
 90
2
 70
0
 10
19.366500
 20
21.815200
 30
0.0
 10
18.876500
 20
21.815200
 30
0.0
  0
LWPOLYLINE
  5
34e
100
AcDbEntity
  8
LAYER_1
 62
7
100
AcDbPolyline
 90
2
 70
0
 10
19.366500
 20
22.835400
 30
0.0
 10
19.366500
 20
21.815200
 30
0.0
  0
LWPOLYLINE
  5
34f
100
AcDbEntity
  8
LAYER_1
 62
7
100
AcDbPolyline
 90
2
 70
0
 10
18.876500
 20
22.835400
 30
0.0
 10
19.366500
 20
22.835400
 30
0.0
  0
LWPOLYLINE
  5
350
100
AcDbEntity
  8
LAYER_1
 62
7
100
AcDbPolyline
 90
2
 70
0
 10
31.762800
 20
17.032000
 30
0.0
 10
30.738000
 20
17.032000
 30
0.0
  0
LWPOLYLINE
  5
351
100
AcDbEntity
  8
LAYER_1
 62
7
100
AcDbPolyline
 90
2
 70
0
 10
31.762800
 20
17.519900
 30
0.0
 10
31.762800
 20
17.032000
 30
0.0
  0
LWPOLYLINE
  5
352
100
AcDbEntity
  8
LAYER_1
 62
7
100
AcDbPolyline
 90
2
 70
0
 10
30.738000
 20
17.519900
 30
0.0
 10
31.762800
 20
17.519900
 30
0.0
  0
LWPOLYLINE
  5
353
100
AcDbEntity
  8
LAYER_1
 62
7
100
AcDbPolyline
 90
2
 70
0
 10
30.738000
 20
17.032000
 30
0.0
 10
30.738000
 20
17.519900
 30
0.0
  0
LWPOLYLINE
  5
354
100
AcDbEntity
  8
LAYER_1
 62
7
100
AcDbPolyline
 90
2
 70
0
 10
31.762800
 20
17.946800
 30
0.0
 10
30.738000
 20
17.946800
 30
0.0
  0
LWPOLYLINE
  5
355
100
AcDbEntity
  8
LAYER_1
 62
7
100
AcDbPolyline
 90
2
 70
0
 10
31.762800
 20
18.434700
 30
0.0
 10
31.762800
 20
17.946800
 30
0.0
  0
LWPOLYLINE
  5
356
100
AcDbEntity
  8
LAYER_1
 62
7
100
AcDbPolyline
 90
2
 70
0
 10
30.738000
 20
18.434700
 30
0.0
 10
31.762800
 20
18.434700
 30
0.0
  0
LWPOLYLINE
  5
357
100
AcDbEntity
  8
LAYER_1
 62
7
100
AcDbPolyline
 90
2
 70
0
 10
30.738000
 20
17.946800
 30
0.0
 10
30.738000
 20
18.434700
 30
0.0
  0
LWPOLYLINE
  5
358
100
AcDbEntity
  8
LAYER_1
 62
7
100
AcDbPolyline
 90
2
 70
0
 10
31.799500
 20
18.934700
 30
0.0
 10
30.774700
 20
18.934700
 30
0.0
  0
LWPOLYLINE
  5
359
100
AcDbEntity
  8
LAYER_1
 62
7
100
AcDbPolyline
 90
2
 70
0
 10
31.799500
 20
19.422600
 30
0.0
 10
31.799500
 20
18.934700
 30
0.0
  0
LWPOLYLINE
  5
35a
100
AcDbEntity
  8
LAYER_1
 62
7
100
AcDbPolyline
 90
2
 70
0
 10
30.774700
 20
19.422600
 30
0.0
 10
31.799500
 20
19.422600
 30
0.0
  0
LWPOLYLINE
  5
35b
100
AcDbEntity
  8
LAYER_1
 62
7
100
AcDbPolyline
 90
2
 70
0
 10
30.774700
 20
18.934700
 30
0.0
 10
30.774700
 20
19.422600
 30
0.0
  0
LWPOLYLINE
  5
35c
100
AcDbEntity
  8
LAYER_1
 62
7
100
AcDbPolyline
 90
2
 70
0
 10
31.799500
 20
19.886100
 30
0.0
 10
30.774700
 20
19.886100
 30
0.0
  0
LWPOLYLINE
  5
35d
100
AcDbEntity
  8
LAYER_1
 62
7
100
AcDbPolyline
 90
2
 70
0
 10
31.799500
 20
20.373900
 30
0.0
 10
31.799500
 20
19.886100
 30
0.0
  0
LWPOLYLINE
  5
35e
100
AcDbEntity
  8
LAYER_1
 62
7
100
AcDbPolyline
 90
2
 70
0
 10
30.774700
 20
20.373900
 30
0.0
 10
31.799500
 20
20.373900
 30
0.0
  0
LWPOLYLINE
  5
35f
100
AcDbEntity
  8
LAYER_1
 62
7
100
AcDbPolyline
 90
2
 70
0
 10
30.774700
 20
19.886100
 30
0.0
 10
30.774700
 20
20.373900
 30
0.0
  0
LWPOLYLINE
  5
360
100
AcDbEntity
  8
LAYER_1
 62
7
100
AcDbPolyline
 90
2
 70
0
 10
31.726000
 20
20.910500
 30
0.0
 10
30.701200
 20
20.910500
 30
0.0
  0
LWPOLYLINE
  5
361
100
AcDbEntity
  8
LAYER_1
 62
7
100
AcDbPolyline
 90
2
 70
0
 10
31.726000
 20
21.398400
 30
0.0
 10
31.726000
 20
20.910500
 30
0.0
  0
LWPOLYLINE
  5
362
100
AcDbEntity
  8
LAYER_1
 62
7
100
AcDbPolyline
 90
2
 70
0
 10
30.701200
 20
21.398400
 30
0.0
 10
31.726000
 20
21.398400
 30
0.0
  0
LWPOLYLINE
  5
363
100
AcDbEntity
  8
LAYER_1
 62
7
100
AcDbPolyline
 90
2
 70
0
 10
30.701200
 20
20.910500
 30
0.0
 10
30.701200
 20
21.398400
 30
0.0
  0
LWPOLYLINE
  5
364
100
AcDbEntity
  8
LAYER_1
 62
7
100
AcDbPolyline
 90
2
 70
0
 10
31.726000
 20
21.935100
 30
0.0
 10
30.701200
 20
21.935100
 30
0.0
  0
LWPOLYLINE
  5
365
100
AcDbEntity
  8
LAYER_1
 62
7
100
AcDbPolyline
 90
2
 70
0
 10
31.726000
 20
22.423000
 30
0.0
 10
31.726000
 20
21.935100
 30
0.0
  0
LWPOLYLINE
  5
366
100
AcDbEntity
  8
LAYER_1
 62
7
100
AcDbPolyline
 90
2
 70
0
 10
30.701200
 20
22.423000
 30
0.0
 10
31.726000
 20
22.423000
 30
0.0
  0
LWPOLYLINE
  5
367
100
AcDbEntity
  8
LAYER_1
 62
7
100
AcDbPolyline
 90
2
 70
0
 10
30.701200
 20
21.935100
 30
0.0
 10
30.701200
 20
22.423000
 30
0.0
  0
LWPOLYLINE
  5
368
100
AcDbEntity
  8
LAYER_1
 62
7
100
AcDbPolyline
 90
2
 70
0
 10
31.799500
 20
22.849800
 30
0.0
 10
30.774700
 20
22.849800
 30
0.0
  0
LWPOLYLINE
  5
369
100
AcDbEntity
  8
LAYER_1
 62
7
100
AcDbPolyline
 90
2
 70
0
 10
31.799500
 20
23.337700
 30
0.0
 10
31.799500
 20
22.849800
 30
0.0
  0
LWPOLYLINE
  5
36a
100
AcDbEntity
  8
LAYER_1
 62
7
100
AcDbPolyline
 90
2
 70
0
 10
30.774700
 20
23.337700
 30
0.0
 10
31.799500
 20
23.337700
 30
0.0
  0
LWPOLYLINE
  5
36b
100
AcDbEntity
  8
LAYER_1
 62
7
100
AcDbPolyline
 90
2
 70
0
 10
30.774700
 20
22.849800
 30
0.0
 10
30.774700
 20
23.337700
 30
0.0
  0
LWPOLYLINE
  5
36c
100
AcDbEntity
  8
LAYER_1
 62
7
100
AcDbPolyline
 90
2
 70
0
 10
31.762800
 20
23.984100
 30
0.0
 10
30.738000
 20
23.984100
 30
0.0
  0
LWPOLYLINE
  5
36d
100
AcDbEntity
  8
LAYER_1
 62
7
100
AcDbPolyline
 90
2
 70
0
 10
31.762800
 20
24.471900
 30
0.0
 10
31.762800
 20
23.984100
 30
0.0
  0
LWPOLYLINE
  5
36e
100
AcDbEntity
  8
LAYER_1
 62
7
100
AcDbPolyline
 90
2
 70
0
 10
30.738000
 20
24.471900
 30
0.0
 10
31.762800
 20
24.471900
 30
0.0
  0
LWPOLYLINE
  5
36f
100
AcDbEntity
  8
LAYER_1
 62
7
100
AcDbPolyline
 90
2
 70
0
 10
30.738000
 20
23.984100
 30
0.0
 10
30.738000
 20
24.471900
 30
0.0
  0
LWPOLYLINE
  5
370
100
AcDbEntity
  8
LAYER_1
 62
7
100
AcDbPolyline
 90
2
 70
0
 10
25.147000
 20
0.676600
 30
0.0
 10
24.122200
 20
0.676600
 30
0.0
  0
LWPOLYLINE
  5
371
100
AcDbEntity
  8
LAYER_1
 62
7
100
AcDbPolyline
 90
2
 70
0
 10
25.147000
 20
1.164500
 30
0.0
 10
25.147000
 20
0.676600
 30
0.0
  0
LWPOLYLINE
  5
372
100
AcDbEntity
  8
LAYER_1
 62
7
100
AcDbPolyline
 90
2
 70
0
 10
24.122200
 20
1.164500
 30
0.0
 10
25.147000
 20
1.164500
 30
0.0
  0
LWPOLYLINE
  5
373
100
AcDbEntity
  8
LAYER_1
 62
7
100
AcDbPolyline
 90
2
 70
0
 10
24.122200
 20
0.676600
 30
0.0
 10
24.122200
 20
1.164500
 30
0.0
  0
LWPOLYLINE
  5
374
100
AcDbEntity
  8
LAYER_1
 62
7
100
AcDbPolyline
 90
2
 70
0
 10
23.382800
 20
0.640000
 30
0.0
 10
22.358100
 20
0.640000
 30
0.0
  0
LWPOLYLINE
  5
375
100
AcDbEntity
  8
LAYER_1
 62
7
100
AcDbPolyline
 90
2
 70
0
 10
23.382800
 20
1.127900
 30
0.0
 10
23.382800
 20
0.640000
 30
0.0
  0
LWPOLYLINE
  5
376
100
AcDbEntity
  8
LAYER_1
 62
7
100
AcDbPolyline
 90
2
 70
0
 10
22.358100
 20
1.127900
 30
0.0
 10
23.382800
 20
1.127900
 30
0.0
  0
LWPOLYLINE
  5
377
100
AcDbEntity
  8
LAYER_1
 62
7
100
AcDbPolyline
 90
2
 70
0
 10
22.358100
 20
0.640000
 30
0.0
 10
22.358100
 20
1.127900
 30
0.0
  0
LWPOLYLINE
  5
378
100
AcDbEntity
  8
LAYER_1
 62
7
100
AcDbPolyline
 90
2
 70
0
 10
16.928500
 20
21.815200
 30
0.0
 10
16.928500
 20
22.835400
 30
0.0
  0
LWPOLYLINE
  5
379
100
AcDbEntity
  8
LAYER_1
 62
7
100
AcDbPolyline
 90
2
 70
0
 10
17.418600
 20
21.815200
 30
0.0
 10
16.928500
 20
21.815200
 30
0.0
  0
LWPOLYLINE
  5
37a
100
AcDbEntity
  8
LAYER_1
 62
7
100
AcDbPolyline
 90
2
 70
0
 10
17.418600
 20
22.835400
 30
0.0
 10
17.418600
 20
21.815200
 30
0.0
  0
LWPOLYLINE
  5
37b
100
AcDbEntity
  8
LAYER_1
 62
7
100
AcDbPolyline
 90
2
 70
0
 10
16.928500
 20
22.835400
 30
0.0
 10
17.418600
 20
22.835400
 30
0.0
  0
LWPOLYLINE
  5
37c
100
AcDbEntity
  8
LAYER_1
 62
7
100
AcDbPolyline
 90
2
 70
0
 10
17.920900
 20
21.778700
 30
0.0
 10
17.920900
 20
22.798900
 30
0.0
  0
LWPOLYLINE
  5
37d
100
AcDbEntity
  8
LAYER_1
 62
7
100
AcDbPolyline
 90
2
 70
0
 10
18.411000
 20
21.778700
 30
0.0
 10
17.920900
 20
21.778700
 30
0.0
  0
LWPOLYLINE
  5
37e
100
AcDbEntity
  8
LAYER_1
 62
7
100
AcDbPolyline
 90
2
 70
0
 10
18.411000
 20
22.798900
 30
0.0
 10
18.411000
 20
21.778700
 30
0.0
  0
LWPOLYLINE
  5
37f
100
AcDbEntity
  8
LAYER_1
 62
7
100
AcDbPolyline
 90
2
 70
0
 10
17.920900
 20
22.798900
 30
0.0
 10
18.411000
 20
22.798900
 30
0.0
  0
LWPOLYLINE
  5
380
100
AcDbEntity
  8
LAYER_1
 62
7
100
AcDbPolyline
 90
2
 70
0
 10
17.590100
 20
18.595400
 30
0.0
 10
17.590100
 20
19.615600
 30
0.0
  0
LWPOLYLINE
  5
381
100
AcDbEntity
  8
LAYER_1
 62
7
100
AcDbPolyline
 90
2
 70
0
 10
18.080200
 20
18.595400
 30
0.0
 10
17.590100
 20
18.595400
 30
0.0
  0
LWPOLYLINE
  5
382
100
AcDbEntity
  8
LAYER_1
 62
7
100
AcDbPolyline
 90
2
 70
0
 10
18.080200
 20
19.615600
 30
0.0
 10
18.080200
 20
18.595400
 30
0.0
  0
LWPOLYLINE
  5
383
100
AcDbEntity
  8
LAYER_1
 62
7
100
AcDbPolyline
 90
2
 70
0
 10
17.590100
 20
19.615600
 30
0.0
 10
18.080200
 20
19.615600
 30
0.0
  0
LWPOLYLINE
  5
384
100
AcDbEntity
  8
LAYER_1
 62
7
100
AcDbPolyline
 90
2
 70
0
 10
17.700400
 20
16.839100
 30
0.0
 10
17.700400
 20
17.859300
 30
0.0
  0
LWPOLYLINE
  5
385
100
AcDbEntity
  8
LAYER_1
 62
7
100
AcDbPolyline
 90
2
 70
0
 10
18.190400
 20
16.839100
 30
0.0
 10
17.700400
 20
16.839100
 30
0.0
  0
LWPOLYLINE
  5
386
100
AcDbEntity
  8
LAYER_1
 62
7
100
AcDbPolyline
 90
2
 70
0
 10
18.190400
 20
17.859300
 30
0.0
 10
18.190400
 20
16.839100
 30
0.0
  0
LWPOLYLINE
  5
387
100
AcDbEntity
  8
LAYER_1
 62
7
100
AcDbPolyline
 90
2
 70
0
 10
17.700400
 20
17.859300
 30
0.0
 10
18.190400
 20
17.859300
 30
0.0
  0
LWPOLYLINE
  5
388
100
AcDbEntity
  8
LAYER_1
 62
7
100
AcDbPolyline
 90
2
 70
0
 10
18.656000
 20
16.912200
 30
0.0
 10
18.656000
 20
17.932500
 30
0.0
  0
LWPOLYLINE
  5
389
100
AcDbEntity
  8
LAYER_1
 62
7
100
AcDbPolyline
 90
2
 70
0
 10
19.146000
 20
16.912200
 30
0.0
 10
18.656000
 20
16.912200
 30
0.0
  0
LWPOLYLINE
  5
38a
100
AcDbEntity
  8
LAYER_1
 62
7
100
AcDbPolyline
 90
2
 70
0
 10
19.146000
 20
17.932500
 30
0.0
 10
19.146000
 20
16.912200
 30
0.0
  0
LWPOLYLINE
  5
38b
100
AcDbEntity
  8
LAYER_1
 62
7
100
AcDbPolyline
 90
2
 70
0
 10
18.656000
 20
17.932500
 30
0.0
 10
19.146000
 20
17.932500
 30
0.0
  0
LWPOLYLINE
  5
38c
100
AcDbEntity
  8
LAYER_1
 62
7
100
AcDbPolyline
 90
2
 70
0
 10
15.812600
 20
26.951800
 30
0.0
 10
14.089000
 20
26.951800
 30
0.0
  0
LWPOLYLINE
  5
38d
100
AcDbEntity
  8
LAYER_1
 62
7
100
AcDbPolyline
 90
2
 70
0
 10
15.812600
 20
27.778800
 30
0.0
 10
15.812600
 20
26.951800
 30
0.0
  0
LWPOLYLINE
  5
38e
100
AcDbEntity
  8
LAYER_1
 62
7
100
AcDbPolyline
 90
2
 70
0
 10
14.089000
 20
27.778800
 30
0.0
 10
15.812600
 20
27.778800
 30
0.0
  0
LWPOLYLINE
  5
38f
100
AcDbEntity
  8
LAYER_1
 62
7
100
AcDbPolyline
 90
2
 70
0
 10
14.089000
 20
26.951800
 30
0.0
 10
14.089000
 20
27.778800
 30
0.0
  0
LWPOLYLINE
  5
390
100
AcDbEntity
  8
LAYER_1
 62
7
100
AcDbPolyline
 90
2
 70
0
 10
21.187900
 20
21.055500
 30
0.0
 10
21.187900
 20
22.771400
 30
0.0
  0
LWPOLYLINE
  5
391
100
AcDbEntity
  8
LAYER_1
 62
7
100
AcDbPolyline
 90
2
 70
0
 10
22.018600
 20
21.055500
 30
0.0
 10
21.187900
 20
21.055500
 30
0.0
  0
LWPOLYLINE
  5
392
100
AcDbEntity
  8
LAYER_1
 62
7
100
AcDbPolyline
 90
2
 70
0
 10
22.018600
 20
22.771400
 30
0.0
 10
22.018600
 20
21.055500
 30
0.0
  0
LWPOLYLINE
  5
393
100
AcDbEntity
  8
LAYER_1
 62
7
100
AcDbPolyline
 90
2
 70
0
 10
21.187900
 20
22.771400
 30
0.0
 10
22.018600
 20
22.771400
 30
0.0
  0
LWPOLYLINE
  5
394
100
AcDbEntity
  8
LAYER_1
 62
7
100
AcDbPolyline
 90
2
 70
0
 10
12.587500
 20
20.287200
 30
0.0
 10
12.587500
 20
22.003000
 30
0.0
  0
LWPOLYLINE
  5
395
100
AcDbEntity
  8
LAYER_1
 62
7
100
AcDbPolyline
 90
2
 70
0
 10
13.418200
 20
20.287200
 30
0.0
 10
12.587500
 20
20.287200
 30
0.0
  0
LWPOLYLINE
  5
396
100
AcDbEntity
  8
LAYER_1
 62
7
100
AcDbPolyline
 90
2
 70
0
 10
13.418200
 20
22.003000
 30
0.0
 10
13.418200
 20
20.287200
 30
0.0
  0
LWPOLYLINE
  5
397
100
AcDbEntity
  8
LAYER_1
 62
7
100
AcDbPolyline
 90
2
 70
0
 10
12.587500
 20
22.003000
 30
0.0
 10
13.418200
 20
22.003000
 30
0.0
  0
LWPOLYLINE
  5
398
100
AcDbEntity
  8
LAYER_1
 62
7
100
AcDbPolyline
 90
2
 70
0
 10
6.264600
 20
27.569400
 30
0.0
 10
2.442200
 20
27.569400
 30
0.0
  0
LWPOLYLINE
  5
399
100
AcDbEntity
  8
LAYER_1
 62
7
100
AcDbPolyline
 90
2
 70
0
 10
6.264600
 20
29.837900
 30
0.0
 10
6.264600
 20
27.569400
 30
0.0
  0
LWPOLYLINE
  5
39a
100
AcDbEntity
  8
LAYER_1
 62
7
100
AcDbPolyline
 90
2
 70
0
 10
2.442200
 20
29.837900
 30
0.0
 10
6.264600
 20
29.837900
 30
0.0
  0
LWPOLYLINE
  5
39b
100
AcDbEntity
  8
LAYER_1
 62
7
100
AcDbPolyline
 90
2
 70
0
 10
2.442200
 20
27.569400
 30
0.0
 10
2.442200
 20
29.837900
 30
0.0
  0
LWPOLYLINE
  5
39c
100
AcDbEntity
  8
LAYER_1
 62
7
100
AcDbPolyline
 90
2
 70
0
 10
28.905100
 20
18.610600
 30
0.0
 10
22.836500
 20
18.610600
 30
0.0
  0
LWPOLYLINE
  5
39d
100
AcDbEntity
  8
LAYER_1
 62
7
100
AcDbPolyline
 90
2
 70
0
 10
28.905100
 20
24.741900
 30
0.0
 10
28.905100
 20
18.610600
 30
0.0
  0
LWPOLYLINE
  5
39e
100
AcDbEntity
  8
LAYER_1
 62
7
100
AcDbPolyline
 90
2
 70
0
 10
22.836500
 20
24.741900
 30
0.0
 10
28.905100
 20
24.741900
 30
0.0
  0
LWPOLYLINE
  5
39f
100
AcDbEntity
  8
LAYER_1
 62
7
100
AcDbPolyline
 90
2
 70
0
 10
22.836500
 20
18.610600
 30
0.0
 10
22.836500
 20
24.741900
 30
0.0
  0
LWPOLYLINE
  5
3a0
100
AcDbEntity
  8
LAYER_1
 62
7
100
AcDbPolyline
 90
2
 70
0
 10
5.676500
 20
21.276000
 30
0.0
 10
-4.982100
 20
21.276000
 30
0.0
  0
LWPOLYLINE
  5
3a1
100
AcDbEntity
  8
LAYER_1
 62
7
100
AcDbPolyline
 90
2
 70
0
 10
5.676500
 20
26.179000
 30
0.0
 10
5.676500
 20
21.276000
 30
0.0
  0
LWPOLYLINE
  5
3a2
100
AcDbEntity
  8
LAYER_1
 62
7
100
AcDbPolyline
 90
2
 70
0
 10
-4.982100
 20
26.179000
 30
0.0
 10
5.676500
 20
26.179000
 30
0.0
  0
LWPOLYLINE
  5
3a3
100
AcDbEntity
  8
LAYER_1
 62
7
100
AcDbPolyline
 90
2
 70
0
 10
-4.982100
 20
21.276000
 30
0.0
 10
-4.982100
 20
26.179000
 30
0.0
  0
LWPOLYLINE
  5
3a4
100
AcDbEntity
  8
LAYER_1
 62
7
100
AcDbPolyline
 90
2
 70
0
 10
28.978600
 20
-10.191000
 30
0.0
 10
28.978600
 20
-2.946300
 30
0.0
  0
LWPOLYLINE
  5
3a5
100
AcDbEntity
  8
LAYER_1
 62
7
100
AcDbPolyline
 90
2
 70
0
 10
33.903600
 20
-10.191000
 30
0.0
 10
28.978600
 20
-10.191000
 30
0.0
  0
LWPOLYLINE
  5
3a6
100
AcDbEntity
  8
LAYER_1
 62
7
100
AcDbPolyline
 90
2
 70
0
 10
33.903600
 20
-2.946300
 30
0.0
 10
33.903600
 20
-10.191000
 30
0.0
  0
LWPOLYLINE
  5
3a7
100
AcDbEntity
  8
LAYER_1
 62
7
100
AcDbPolyline
 90
2
 70
0
 10
28.978600
 20
-2.946300
 30
0.0
 10
33.903600
 20
-2.946300
 30
0.0
  0
LWPOLYLINE
  5
3a8
100
AcDbEntity
  8
LAYER_1
 62
7
100
AcDbPolyline
 90
2
 70
0
 10
28.905100
 20
-0.677700
 30
0.0
 10
28.905100
 20
12.567700
 30
0.0
  0
LWPOLYLINE
  5
3a9
100
AcDbEntity
  8
LAYER_1
 62
7
100
AcDbPolyline
 90
2
 70
0
 10
33.830100
 20
-0.677700
 30
0.0
 10
28.905100
 20
-0.677700
 30
0.0
  0
LWPOLYLINE
  5
3aa
100
AcDbEntity
  8
LAYER_1
 62
7
100
AcDbPolyline
 90
2
 70
0
 10
33.830100
 20
12.567700
 30
0.0
 10
33.830100
 20
-0.677700
 30
0.0
  0
LWPOLYLINE
  5
3ab
100
AcDbEntity
  8
LAYER_1
 62
7
100
AcDbPolyline
 90
2
 70
0
 10
28.905100
 20
12.567700
 30
0.0
 10
33.830100
 20
12.567700
 30
0.0
  0
LWPOLYLINE
  5
3ac
100
AcDbEntity
  8
LAYER_1
 62
7
100
AcDbPolyline
 90
2
 70
0
 10
-10.348200
 20
-22.192300
 30
0.0
 10
-10.348200
 20
-9.751900
 30
0.0
  0
LWPOLYLINE
  5
3ad
100
AcDbEntity
  8
LAYER_1
 62
7
100
AcDbPolyline
 90
2
 70
0
 10
-2.335800
 20
-22.192300
 30
0.0
 10
-10.348200
 20
-22.192300
 30
0.0
  0
LWPOLYLINE
  5
3ae
100
AcDbEntity
  8
LAYER_1
 62
7
100
AcDbPolyline
 90
2
 70
0
 10
-2.335800
 20
-9.751900
 30
0.0
 10
-2.335800
 20
-22.192300
 30
0.0
  0
LWPOLYLINE
  5
3af
100
AcDbEntity
  8
LAYER_1
 62
7
100
AcDbPolyline
 90
2
 70
0
 10
-10.348200
 20
-9.751900
 30
0.0
 10
-2.335800
 20
-9.751900
 30
0.0
  0
LWPOLYLINE
  5
3b0
100
AcDbEntity
  8
LAYER_1
 62
7
100
AcDbPolyline
 90
2
 70
0
 10
1.119000
 20
-23.210600
 30
0.0
 10
1.119000
 20
-10.264200
 30
0.0
  0
LWPOLYLINE
  5
3b1
100
AcDbEntity
  8
LAYER_1
 62
7
100
AcDbPolyline
 90
2
 70
0
 10
14.203500
 20
-23.210600
 30
0.0
 10
1.119000
 20
-23.210600
 30
0.0
  0
LWPOLYLINE
  5
3b2
100
AcDbEntity
  8
LAYER_1
 62
7
100
AcDbPolyline
 90
2
 70
0
 10
14.203500
 20
-10.264200
 30
0.0
 10
14.203500
 20
-23.210600
 30
0.0
  0
LWPOLYLINE
  5
3b3
100
AcDbEntity
  8
LAYER_1
 62
7
100
AcDbPolyline
 90
2
 70
0
 10
1.119000
 20
-10.264200
 30
0.0
 10
14.203500
 20
-10.264200
 30
0.0
  0
LWPOLYLINE
  5
3b4
100
AcDbEntity
  8
LAYER_1
 62
7
100
AcDbPolyline
 90
2
 70
0
 10
-24.535200
 20
-22.411900
 30
0.0
 10
-24.535200
 20
-10.483700
 30
0.0
  0
LWPOLYLINE
  5
3b5
100
AcDbEntity
  8
LAYER_1
 62
7
100
AcDbPolyline
 90
2
 70
0
 10
-12.479900
 20
-22.411900
 30
0.0
 10
-24.535200
 20
-22.411900
 30
0.0
  0
LWPOLYLINE
  5
3b6
100
AcDbEntity
  8
LAYER_1
 62
7
100
AcDbPolyline
 90
2
 70
0
 10
-12.479900
 20
-10.483700
 30
0.0
 10
-12.479900
 20
-22.411900
 30
0.0
  0
LWPOLYLINE
  5
3b7
100
AcDbEntity
  8
LAYER_1
 62
7
100
AcDbPolyline
 90
2
 70
0
 10
-24.535200
 20
-10.483700
 30
0.0
 10
-12.479900
 20
-10.483700
 30
0.0
  0
LWPOLYLINE
  5
3b8
100
AcDbEntity
  8
LAYER_1
 62
7
100
AcDbPolyline
 90
2
 70
0
 10
-25.417300
 20
-8.581000
 30
0.0
 10
-25.417300
 20
6.415800
 30
0.0
  0
LWPOLYLINE
  5
3b9
100
AcDbEntity
  8
LAYER_1
 62
7
100
AcDbPolyline
 90
2
 70
0
 10
-10.421700
 20
-8.581000
 30
0.0
 10
-25.417300
 20
-8.581000
 30
0.0
  0
LWPOLYLINE
  5
3ba
100
AcDbEntity
  8
LAYER_1
 62
7
100
AcDbPolyline
 90
2
 70
0
 10
-10.421700
 20
6.415800
 30
0.0
 10
-10.421700
 20
-8.581000
 30
0.0
  0
LWPOLYLINE
  5
3bb
100
AcDbEntity
  8
LAYER_1
 62
7
100
AcDbPolyline
 90
2
 70
0
 10
-25.417300
 20
6.415800
 30
0.0
 10
-10.421700
 20
6.415800
 30
0.0
  0
LWPOLYLINE
  5
3bc
100
AcDbEntity
  8
LAYER_1
 62
7
100
AcDbPolyline
 90
2
 70
0
 10
-30.856900
 20
9.494200
 30
0.0
 10
-30.856900
 20
23.393300
 30
0.0
  0
LWPOLYLINE
  5
3bd
100
AcDbEntity
  8
LAYER_1
 62
7
100
AcDbPolyline
 90
2
 70
0
 10
-16.426000
 20
9.494200
 30
0.0
 10
-30.856900
 20
9.494200
 30
0.0
  0
LWPOLYLINE
  5
3be
100
AcDbEntity
  8
LAYER_1
 62
7
100
AcDbPolyline
 90
2
 70
0
 10
-16.426000
 20
23.393300
 30
0.0
 10
-16.426000
 20
9.494200
 30
0.0
  0
LWPOLYLINE
  5
3bf
100
AcDbEntity
  8
LAYER_1
 62
7
100
AcDbPolyline
 90
2
 70
0
 10
-30.856900
 20
23.393300
 30
0.0
 10
-16.426000
 20
23.393300
 30
0.0
  0
LWPOLYLINE
  5
3c0
100
AcDbEntity
  8
LAYER_1
 62
7
100
AcDbPolyline
 90
2
 70
0
 10
1.304000
 20
15.932900
 30
0.0
 10
1.304000
 20
17.648800
 30
0.0
  0
LWPOLYLINE
  5
3c1
100
AcDbEntity
  8
LAYER_1
 62
7
100
AcDbPolyline
 90
2
 70
0
 10
2.134700
 20
15.932900
 30
0.0
 10
1.304000
 20
15.932900
 30
0.0
  0
LWPOLYLINE
  5
3c2
100
AcDbEntity
  8
LAYER_1
 62
7
100
AcDbPolyline
 90
2
 70
0
 10
2.134700
 20
17.648800
 30
0.0
 10
2.134700
 20
15.932900
 30
0.0
  0
LWPOLYLINE
  5
3c3
100
AcDbEntity
  8
LAYER_1
 62
7
100
AcDbPolyline
 90
2
 70
0
 10
1.304000
 20
17.648800
 30
0.0
 10
2.134700
 20
17.648800
 30
0.0
  0
LWPOLYLINE
  5
3c4
100
AcDbEntity
  8
LAYER_1
 62
7
100
AcDbPolyline
 90
2
 70
0
 10
5.971800
 20
10.920200
 30
0.0
 10
5.971800
 20
12.636100
 30
0.0
  0
LWPOLYLINE
  5
3c5
100
AcDbEntity
  8
LAYER_1
 62
7
100
AcDbPolyline
 90
2
 70
0
 10
6.802500
 20
10.920200
 30
0.0
 10
5.971800
 20
10.920200
 30
0.0
  0
LWPOLYLINE
  5
3c6
100
AcDbEntity
  8
LAYER_1
 62
7
100
AcDbPolyline
 90
2
 70
0
 10
6.802500
 20
12.636100
 30
0.0
 10
6.802500
 20
10.920200
 30
0.0
  0
LWPOLYLINE
  5
3c7
100
AcDbEntity
  8
LAYER_1
 62
7
100
AcDbPolyline
 90
2
 70
0
 10
5.971800
 20
12.636100
 30
0.0
 10
6.802500
 20
12.636100
 30
0.0
  0
LWPOLYLINE
  5
3c8
100
AcDbEntity
  8
LAYER_1
 62
7
100
AcDbPolyline
 90
2
 70
0
 10
7.258200
 20
10.920200
 30
0.0
 10
7.258200
 20
12.636100
 30
0.0
  0
LWPOLYLINE
  5
3c9
100
AcDbEntity
  8
LAYER_1
 62
7
100
AcDbPolyline
 90
2
 70
0
 10
8.088900
 20
10.920200
 30
0.0
 10
7.258200
 20
10.920200
 30
0.0
  0
LWPOLYLINE
  5
3ca
100
AcDbEntity
  8
LAYER_1
 62
7
100
AcDbPolyline
 90
2
 70
0
 10
8.088900
 20
12.636100
 30
0.0
 10
8.088900
 20
10.920200
 30
0.0
  0
LWPOLYLINE
  5
3cb
100
AcDbEntity
  8
LAYER_1
 62
7
100
AcDbPolyline
 90
2
 70
0
 10
7.258200
 20
12.636100
 30
0.0
 10
8.088900
 20
12.636100
 30
0.0
  0
LWPOLYLINE
  5
3cc
100
AcDbEntity
  8
LAYER_1
 62
7
100
AcDbPolyline
 90
2
 70
0
 10
19.745200
 20
3.132100
 30
0.0
 10
18.021700
 20
3.132100
 30
0.0
  0
LWPOLYLINE
  5
3cd
100
AcDbEntity
  8
LAYER_1
 62
7
100
AcDbPolyline
 90
2
 70
0
 10
19.745200
 20
3.959000
 30
0.0
 10
19.745200
 20
3.132100
 30
0.0
  0
LWPOLYLINE
  5
3ce
100
AcDbEntity
  8
LAYER_1
 62
7
100
AcDbPolyline
 90
2
 70
0
 10
18.021700
 20
3.959000
 30
0.0
 10
19.745200
 20
3.959000
 30
0.0
  0
LWPOLYLINE
  5
3cf
100
AcDbEntity
  8
LAYER_1
 62
7
100
AcDbPolyline
 90
2
 70
0
 10
18.021700
 20
3.132100
 30
0.0
 10
18.021700
 20
3.959000
 30
0.0
  0
LWPOLYLINE
  5
3d0
100
AcDbEntity
  8
LAYER_1
 62
7
100
AcDbPolyline
 90
2
 70
0
 10
14.158600
 20
15.023600
 30
0.0
 10
12.435100
 20
15.023600
 30
0.0
  0
LWPOLYLINE
  5
3d1
100
AcDbEntity
  8
LAYER_1
 62
7
100
AcDbPolyline
 90
2
 70
0
 10
14.158600
 20
15.850600
 30
0.0
 10
14.158600
 20
15.023600
 30
0.0
  0
LWPOLYLINE
  5
3d2
100
AcDbEntity
  8
LAYER_1
 62
7
100
AcDbPolyline
 90
2
 70
0
 10
12.435100
 20
15.850600
 30
0.0
 10
14.158600
 20
15.850600
 30
0.0
  0
LWPOLYLINE
  5
3d3
100
AcDbEntity
  8
LAYER_1
 62
7
100
AcDbPolyline
 90
2
 70
0
 10
12.435100
 20
15.023600
 30
0.0
 10
12.435100
 20
15.850600
 30
0.0
  0
LWPOLYLINE
  5
3d4
100
AcDbEntity
  8
LAYER_1
 62
7
100
AcDbPolyline
 90
2
 70
0
 10
23.971900
 20
-7.149600
 30
0.0
 10
22.248400
 20
-7.149600
 30
0.0
  0
LWPOLYLINE
  5
3d5
100
AcDbEntity
  8
LAYER_1
 62
7
100
AcDbPolyline
 90
2
 70
0
 10
23.971900
 20
-6.322600
 30
0.0
 10
23.971900
 20
-7.149600
 30
0.0
  0
LWPOLYLINE
  5
3d6
100
AcDbEntity
  8
LAYER_1
 62
7
100
AcDbPolyline
 90
2
 70
0
 10
22.248400
 20
-6.322600
 30
0.0
 10
23.971900
 20
-6.322600
 30
0.0
  0
LWPOLYLINE
  5
3d7
100
AcDbEntity
  8
LAYER_1
 62
7
100
AcDbPolyline
 90
2
 70
0
 10
22.248400
 20
-7.149600
 30
0.0
 10
22.248400
 20
-6.322600
 30
0.0
  0
LWPOLYLINE
  5
3d8
100
AcDbEntity
  8
LAYER_1
 62
7
100
AcDbPolyline
 90
2
 70
0
 10
23.588200
 20
8.067200
 30
0.0
 10
20.447500
 20
8.067200
 30
0.0
  0
LWPOLYLINE
  5
3d9
100
AcDbEntity
  8
LAYER_1
 62
7
100
AcDbPolyline
 90
2
 70
0
 10
23.588200
 20
11.240400
 30
0.0
 10
23.588200
 20
8.067200
 30
0.0
  0
LWPOLYLINE
  5
3da
100
AcDbEntity
  8
LAYER_1
 62
7
100
AcDbPolyline
 90
2
 70
0
 10
20.447500
 20
11.240400
 30
0.0
 10
23.588200
 20
11.240400
 30
0.0
  0
LWPOLYLINE
  5
3db
100
AcDbEntity
  8
LAYER_1
 62
7
100
AcDbPolyline
 90
2
 70
0
 10
20.447500
 20
8.067200
 30
0.0
 10
20.447500
 20
11.240400
 30
0.0
  0
LWPOLYLINE
  5
3dc
100
AcDbEntity
  8
LAYER_1
 62
7
100
AcDbPolyline
 90
2
 70
0
 10
13.701400
 20
5.030200
 30
0.0
 10
10.560700
 20
5.030200
 30
0.0
  0
LWPOLYLINE
  5
3dd
100
AcDbEntity
  8
LAYER_1
 62
7
100
AcDbPolyline
 90
2
 70
0
 10
13.701400
 20
8.203400
 30
0.0
 10
13.701400
 20
5.030200
 30
0.0
  0
LWPOLYLINE
  5
3de
100
AcDbEntity
  8
LAYER_1
 62
7
100
AcDbPolyline
 90
2
 70
0
 10
10.560700
 20
8.203400
 30
0.0
 10
13.701400
 20
8.203400
 30
0.0
  0
LWPOLYLINE
  5
3df
100
AcDbEntity
  8
LAYER_1
 62
7
100
AcDbPolyline
 90
2
 70
0
 10
10.560700
 20
5.030200
 30
0.0
 10
10.560700
 20
8.203400
 30
0.0
  0
LWPOLYLINE
  5
3e0
100
AcDbEntity
  8
LAYER_1
 62
7
100
AcDbPolyline
 90
2
 70
0
 10
10.540600
 20
-6.239300
 30
0.0
 10
7.399800
 20
-6.239300
 30
0.0
  0
LWPOLYLINE
  5
3e1
100
AcDbEntity
  8
LAYER_1
 62
7
100
AcDbPolyline
 90
2
 70
0
 10
10.540600
 20
-3.066100
 30
0.0
 10
10.540600
 20
-6.239300
 30
0.0
  0
LWPOLYLINE
  5
3e2
100
AcDbEntity
  8
LAYER_1
 62
7
100
AcDbPolyline
 90
2
 70
0
 10
7.399800
 20
-3.066100
 30
0.0
 10
10.540600
 20
-3.066100
 30
0.0
  0
LWPOLYLINE
  5
3e3
100
AcDbEntity
  8
LAYER_1
 62
7
100
AcDbPolyline
 90
2
 70
0
 10
7.399800
 20
-6.239300
 30
0.0
 10
7.399800
 20
-3.066100
 30
0.0
  0
LWPOLYLINE
  5
3e4
100
AcDbEntity
  8
LAYER_1
 62
7
100
AcDbPolyline
 90
2
 70
0
 10
-6.930000
 20
13.262900
 30
0.0
 10
-10.903700
 20
13.262900
 30
0.0
  0
LWPOLYLINE
  5
3e5
100
AcDbEntity
  8
LAYER_1
 62
7
100
AcDbPolyline
 90
2
 70
0
 10
-6.930000
 20
17.277600
 30
0.0
 10
-6.930000
 20
13.262900
 30
0.0
  0
LWPOLYLINE
  5
3e6
100
AcDbEntity
  8
LAYER_1
 62
7
100
AcDbPolyline
 90
2
 70
0
 10
-10.903700
 20
17.277600
 30
0.0
 10
-6.930000
 20
17.277600
 30
0.0
  0
LWPOLYLINE
  5
3e7
100
AcDbEntity
  8
LAYER_1
 62
7
100
AcDbPolyline
 90
2
 70
0
 10
-10.903700
 20
13.262900
 30
0.0
 10
-10.903700
 20
17.277600
 30
0.0
  0
LWPOLYLINE
  5
3e8
100
AcDbEntity
  8
LAYER_1
 62
7
100
AcDbPolyline
 90
2
 70
0
 10
-14.156600
 20
24.514100
 30
0.0
 10
-14.156600
 20
27.418200
 30
0.0
  0
LWPOLYLINE
  5
3e9
100
AcDbEntity
  8
LAYER_1
 62
7
100
AcDbPolyline
 90
2
 70
0
 10
-12.750700
 20
24.514100
 30
0.0
 10
-14.156600
 20
24.514100
 30
0.0
  0
LWPOLYLINE
  5
3ea
100
AcDbEntity
  8
LAYER_1
 62
7
100
AcDbPolyline
 90
2
 70
0
 10
-12.750700
 20
27.418200
 30
0.0
 10
-12.750700
 20
24.514100
 30
0.0
  0
LWPOLYLINE
  5
3eb
100
AcDbEntity
  8
LAYER_1
 62
7
100
AcDbPolyline
 90
2
 70
0
 10
-14.156600
 20
27.418200
 30
0.0
 10
-12.750700
 20
27.418200
 30
0.0
  0
LWPOLYLINE
  5
3ec
100
AcDbEntity
  8
LAYER_1
 62
7
100
AcDbPolyline
 90
2
 70
0
 10
15.168700
 20
13.619400
 30
0.0
 10
15.168700
 20
15.636600
 30
0.0
  0
LWPOLYLINE
  5
3ed
100
AcDbEntity
  8
LAYER_1
 62
7
100
AcDbPolyline
 90
2
 70
0
 10
16.505600
 20
13.619400
 30
0.0
 10
15.168700
 20
13.619400
 30
0.0
  0
LWPOLYLINE
  5
3ee
100
AcDbEntity
  8
LAYER_1
 62
7
100
AcDbPolyline
 90
2
 70
0
 10
16.505600
 20
15.636600
 30
0.0
 10
16.505600
 20
13.619400
 30
0.0
  0
LWPOLYLINE
  5
3ef
100
AcDbEntity
  8
LAYER_1
 62
7
100
AcDbPolyline
 90
2
 70
0
 10
15.168700
 20
15.636600
 30
0.0
 10
16.505600
 20
15.636600
 30
0.0
  0
LWPOLYLINE
  5
3f0
100
AcDbEntity
  8
LAYER_1
 62
7
100
AcDbPolyline
 90
2
 70
0
 10
21.274200
 20
-2.708500
 30
0.0
 10
21.274200
 20
0.195600
 30
0.0
  0
LWPOLYLINE
  5
3f1
100
AcDbEntity
  8
LAYER_1
 62
7
100
AcDbPolyline
 90
2
 70
0
 10
22.680200
 20
-2.708500
 30
0.0
 10
21.274200
 20
-2.708500
 30
0.0
  0
LWPOLYLINE
  5
3f2
100
AcDbEntity
  8
LAYER_1
 62
7
100
AcDbPolyline
 90
2
 70
0
 10
22.680200
 20
0.195600
 30
0.0
 10
22.680200
 20
-2.708500
 30
0.0
  0
LWPOLYLINE
  5
3f3
100
AcDbEntity
  8
LAYER_1
 62
7
100
AcDbPolyline
 90
2
 70
0
 10
21.274200
 20
0.195600
 30
0.0
 10
22.680200
 20
0.195600
 30
0.0
  0
LWPOLYLINE
  5
3f4
100
AcDbEntity
  8
LAYER_1
 62
7
100
AcDbPolyline
 90
2
 70
0
 10
18.798900
 20
-1.922700
 30
0.0
 10
18.798900
 20
-0.206800
 30
0.0
  0
LWPOLYLINE
  5
3f5
100
AcDbEntity
  8
LAYER_1
 62
7
100
AcDbPolyline
 90
2
 70
0
 10
19.629600
 20
-1.922700
 30
0.0
 10
18.798900
 20
-1.922700
 30
0.0
  0
LWPOLYLINE
  5
3f6
100
AcDbEntity
  8
LAYER_1
 62
7
100
AcDbPolyline
 90
2
 70
0
 10
19.629600
 20
-0.206800
 30
0.0
 10
19.629600
 20
-1.922700
 30
0.0
  0
LWPOLYLINE
  5
3f7
100
AcDbEntity
  8
LAYER_1
 62
7
100
AcDbPolyline
 90
2
 70
0
 10
18.798900
 20
-0.206800
 30
0.0
 10
19.629600
 20
-0.206800
 30
0.0
  0
LWPOLYLINE
  5
3f8
100
AcDbEntity
  8
LAYER_1
 62
7
100
AcDbPolyline
 90
2
 70
0
 10
26.728500
 20
10.230400
 30
0.0
 10
25.004900
 20
10.230400
 30
0.0
  0
LWPOLYLINE
  5
3f9
100
AcDbEntity
  8
LAYER_1
 62
7
100
AcDbPolyline
 90
2
 70
0
 10
26.728500
 20
11.057300
 30
0.0
 10
26.728500
 20
10.230400
 30
0.0
  0
LWPOLYLINE
  5
3fa
100
AcDbEntity
  8
LAYER_1
 62
7
100
AcDbPolyline
 90
2
 70
0
 10
25.004900
 20
11.057300
 30
0.0
 10
26.728500
 20
11.057300
 30
0.0
  0
LWPOLYLINE
  5
3fb
100
AcDbEntity
  8
LAYER_1
 62
7
100
AcDbPolyline
 90
2
 70
0
 10
25.004900
 20
10.230400
 30
0.0
 10
25.004900
 20
11.057300
 30
0.0
  0
LWPOLYLINE
  5
3fc
100
AcDbEntity
  8
LAYER_1
 62
7
100
AcDbPolyline
 90
2
 70
0
 10
26.516600
 20
11.511000
 30
0.0
 10
24.490300
 20
11.511000
 30
0.0
  0
LWPOLYLINE
  5
3fd
100
AcDbEntity
  8
LAYER_1
 62
7
100
AcDbPolyline
 90
2
 70
0
 10
26.516600
 20
12.842000
 30
0.0
 10
26.516600
 20
11.511000
 30
0.0
  0
LWPOLYLINE
  5
3fe
100
AcDbEntity
  8
LAYER_1
 62
7
100
AcDbPolyline
 90
2
 70
0
 10
24.490300
 20
12.842000
 30
0.0
 10
26.516600
 20
12.842000
 30
0.0
  0
LWPOLYLINE
  5
3ff
100
AcDbEntity
  8
LAYER_1
 62
7
100
AcDbPolyline
 90
2
 70
0
 10
24.490300
 20
11.511000
 30
0.0
 10
24.490300
 20
12.842000
 30
0.0
  0
LWPOLYLINE
  5
400
100
AcDbEntity
  8
LAYER_1
 62
7
100
AcDbPolyline
 90
2
 70
0
 10
0.458000
 20
13.669800
 30
0.0
 10
-1.568300
 20
13.669800
 30
0.0
  0
LWPOLYLINE
  5
401
100
AcDbEntity
  8
LAYER_1
 62
7
100
AcDbPolyline
 90
2
 70
0
 10
0.458000
 20
15.000800
 30
0.0
 10
0.458000
 20
13.669800
 30
0.0
  0
LWPOLYLINE
  5
402
100
AcDbEntity
  8
LAYER_1
 62
7
100
AcDbPolyline
 90
2
 70
0
 10
-1.568300
 20
15.000800
 30
0.0
 10
0.458000
 20
15.000800
 30
0.0
  0
LWPOLYLINE
  5
403
100
AcDbEntity
  8
LAYER_1
 62
7
100
AcDbPolyline
 90
2
 70
0
 10
-1.568300
 20
13.669800
 30
0.0
 10
-1.568300
 20
15.000800
 30
0.0
  0
LWPOLYLINE
  5
404
100
AcDbEntity
  8
LAYER_1
 62
7
100
AcDbPolyline
 90
2
 70
0
 10
-13.067500
 20
10.340100
 30
0.0
 10
-15.093800
 20
10.340100
 30
0.0
  0
LWPOLYLINE
  5
405
100
AcDbEntity
  8
LAYER_1
 62
7
100
AcDbPolyline
 90
2
 70
0
 10
-13.067500
 20
11.671100
 30
0.0
 10
-13.067500
 20
10.340100
 30
0.0
  0
LWPOLYLINE
  5
406
100
AcDbEntity
  8
LAYER_1
 62
7
100
AcDbPolyline
 90
2
 70
0
 10
-15.093800
 20
11.671100
 30
0.0
 10
-13.067500
 20
11.671100
 30
0.0
  0
LWPOLYLINE
  5
407
100
AcDbEntity
  8
LAYER_1
 62
7
100
AcDbPolyline
 90
2
 70
0
 10
-15.093800
 20
10.340100
 30
0.0
 10
-15.093800
 20
11.671100
 30
0.0
  0
LWPOLYLINE
  5
408
100
AcDbEntity
  8
LAYER_1
 62
7
100
AcDbPolyline
 90
2
 70
0
 10
-12.442600
 20
13.976300
 30
0.0
 10
-15.387700
 20
13.976300
 30
0.0
  0
LWPOLYLINE
  5
409
100
AcDbEntity
  8
LAYER_1
 62
7
100
AcDbPolyline
 90
2
 70
0
 10
-12.442600
 20
17.058100
 30
0.0
 10
-12.442600
 20
13.976300
 30
0.0
  0
LWPOLYLINE
  5
40a
100
AcDbEntity
  8
LAYER_1
 62
7
100
AcDbPolyline
 90
2
 70
0
 10
-15.387700
 20
17.058100
 30
0.0
 10
-12.442600
 20
17.058100
 30
0.0
  0
LWPOLYLINE
  5
40b
100
AcDbEntity
  8
LAYER_1
 62
7
100
AcDbPolyline
 90
2
 70
0
 10
-15.387700
 20
13.976300
 30
0.0
 10
-15.387700
 20
17.058100
 30
0.0
  0
LWPOLYLINE
  5
40c
100
AcDbEntity
  8
LAYER_1
 62
7
100
AcDbPolyline
 90
2
 70
0
 10
-2.886600
 20
14.598300
 30
0.0
 10
-5.831700
 20
14.598300
 30
0.0
  0
LWPOLYLINE
  5
40d
100
AcDbEntity
  8
LAYER_1
 62
7
100
AcDbPolyline
 90
2
 70
0
 10
-2.886600
 20
17.680100
 30
0.0
 10
-2.886600
 20
14.598300
 30
0.0
  0
LWPOLYLINE
  5
40e
100
AcDbEntity
  8
LAYER_1
 62
7
100
AcDbPolyline
 90
2
 70
0
 10
-5.831700
 20
17.680100
 30
0.0
 10
-2.886600
 20
17.680100
 30
0.0
  0
LWPOLYLINE
  5
40f
100
AcDbEntity
  8
LAYER_1
 62
7
100
AcDbPolyline
 90
2
 70
0
 10
-5.831700
 20
14.598300
 30
0.0
 10
-5.831700
 20
17.680100
 30
0.0
  0
LWPOLYLINE
  5
410
100
AcDbEntity
  8
LAYER_1
 62
7
100
AcDbPolyline
 90
2
 70
0
 10
19.386300
 20
6.877900
 30
0.0
 10
16.441200
 20
6.877900
 30
0.0
  0
LWPOLYLINE
  5
411
100
AcDbEntity
  8
LAYER_1
 62
7
100
AcDbPolyline
 90
2
 70
0
 10
19.386300
 20
9.959700
 30
0.0
 10
19.386300
 20
6.877900
 30
0.0
  0
LWPOLYLINE
  5
412
100
AcDbEntity
  8
LAYER_1
 62
7
100
AcDbPolyline
 90
2
 70
0
 10
16.441200
 20
9.959700
 30
0.0
 10
19.386300
 20
9.959700
 30
0.0
  0
LWPOLYLINE
  5
413
100
AcDbEntity
  8
LAYER_1
 62
7
100
AcDbPolyline
 90
2
 70
0
 10
16.441200
 20
6.877900
 30
0.0
 10
16.441200
 20
9.959700
 30
0.0
  0
LWPOLYLINE
  5
414
100
AcDbEntity
  8
LAYER_1
 62
7
100
AcDbPolyline
 90
2
 70
0
 10
9.462800
 20
6.475400
 30
0.0
 10
6.517700
 20
6.475400
 30
0.0
  0
LWPOLYLINE
  5
415
100
AcDbEntity
  8
LAYER_1
 62
7
100
AcDbPolyline
 90
2
 70
0
 10
9.462800
 20
9.557300
 30
0.0
 10
9.462800
 20
6.475400
 30
0.0
  0
LWPOLYLINE
  5
416
100
AcDbEntity
  8
LAYER_1
 62
7
100
AcDbPolyline
 90
2
 70
0
 10
6.517700
 20
9.557300
 30
0.0
 10
9.462800
 20
9.557300
 30
0.0
  0
LWPOLYLINE
  5
417
100
AcDbEntity
  8
LAYER_1
 62
7
100
AcDbPolyline
 90
2
 70
0
 10
6.517700
 20
6.475400
 30
0.0
 10
6.517700
 20
9.557300
 30
0.0
  0
LWPOLYLINE
  5
418
100
AcDbEntity
  8
LAYER_1
 62
7
100
AcDbPolyline
 90
2
 70
0
 10
8.516200
 20
11.058100
 30
0.0
 10
8.516200
 20
13.075300
 30
0.0
  0
LWPOLYLINE
  5
419
100
AcDbEntity
  8
LAYER_1
 62
7
100
AcDbPolyline
 90
2
 70
0
 10
9.853200
 20
11.058100
 30
0.0
 10
8.516200
 20
11.058100
 30
0.0
  0
LWPOLYLINE
  5
41a
100
AcDbEntity
  8
LAYER_1
 62
7
100
AcDbPolyline
 90
2
 70
0
 10
9.853200
 20
13.075300
 30
0.0
 10
9.853200
 20
11.058100
 30
0.0
  0
LWPOLYLINE
  5
41b
100
AcDbEntity
  8
LAYER_1
 62
7
100
AcDbPolyline
 90
2
 70
0
 10
8.516200
 20
13.075300
 30
0.0
 10
9.853200
 20
13.075300
 30
0.0
  0
LWPOLYLINE
  5
41c
100
AcDbEntity
  8
LAYER_1
 62
7
100
AcDbPolyline
 90
2
 70
0
 10
14.690900
 20
6.777200
 30
0.0
 10
14.690900
 20
8.794400
 30
0.0
  0
LWPOLYLINE
  5
41d
100
AcDbEntity
  8
LAYER_1
 62
7
100
AcDbPolyline
 90
2
 70
0
 10
16.027800
 20
6.777200
 30
0.0
 10
14.690900
 20
6.777200
 30
0.0
  0
LWPOLYLINE
  5
41e
100
AcDbEntity
  8
LAYER_1
 62
7
100
AcDbPolyline
 90
2
 70
0
 10
16.027800
 20
8.794400
 30
0.0
 10
16.027800
 20
6.777200
 30
0.0
  0
LWPOLYLINE
  5
41f
100
AcDbEntity
  8
LAYER_1
 62
7
100
AcDbPolyline
 90
2
 70
0
 10
14.690900
 20
8.794400
 30
0.0
 10
16.027800
 20
8.794400
 30
0.0
  0
LWPOLYLINE
  5
420
100
AcDbEntity
  8
LAYER_1
 62
7
100
AcDbPolyline
 90
2
 70
0
 10
-9.649300
 20
10.376800
 30
0.0
 10
-11.675600
 20
10.376800
 30
0.0
  0
LWPOLYLINE
  5
421
100
AcDbEntity
  8
LAYER_1
 62
7
100
AcDbPolyline
 90
2
 70
0
 10
-9.649300
 20
11.707700
 30
0.0
 10
-9.649300
 20
10.376800
 30
0.0
  0
LWPOLYLINE
  5
422
100
AcDbEntity
  8
LAYER_1
 62
7
100
AcDbPolyline
 90
2
 70
0
 10
-11.675600
 20
11.707700
 30
0.0
 10
-9.649300
 20
11.707700
 30
0.0
  0
LWPOLYLINE
  5
423
100
AcDbEntity
  8
LAYER_1
 62
7
100
AcDbPolyline
 90
2
 70
0
 10
-11.675600
 20
10.376800
 30
0.0
 10
-11.675600
 20
11.707700
 30
0.0
  0
LWPOLYLINE
  5
424
100
AcDbEntity
  8
LAYER_1
 62
7
100
AcDbPolyline
 90
2
 70
0
 10
-5.900400
 20
10.376800
 30
0.0
 10
-7.926700
 20
10.376800
 30
0.0
  0
LWPOLYLINE
  5
425
100
AcDbEntity
  8
LAYER_1
 62
7
100
AcDbPolyline
 90
2
 70
0
 10
-5.900400
 20
11.707700
 30
0.0
 10
-5.900400
 20
10.376800
 30
0.0
  0
LWPOLYLINE
  5
426
100
AcDbEntity
  8
LAYER_1
 62
7
100
AcDbPolyline
 90
2
 70
0
 10
-7.926700
 20
11.707700
 30
0.0
 10
-5.900400
 20
11.707700
 30
0.0
  0
LWPOLYLINE
  5
427
100
AcDbEntity
  8
LAYER_1
 62
7
100
AcDbPolyline
 90
2
 70
0
 10
-7.926700
 20
10.376800
 30
0.0
 10
-7.926700
 20
11.707700
 30
0.0
  0
LWPOLYLINE
  5
428
100
AcDbEntity
  8
LAYER_1
 62
7
100
AcDbPolyline
 90
2
 70
0
 10
19.598200
 20
2.034400
 30
0.0
 10
17.874700
 20
2.034400
 30
0.0
  0
LWPOLYLINE
  5
429
100
AcDbEntity
  8
LAYER_1
 62
7
100
AcDbPolyline
 90
2
 70
0
 10
19.598200
 20
2.861300
 30
0.0
 10
19.598200
 20
2.034400
 30
0.0
  0
LWPOLYLINE
  5
42a
100
AcDbEntity
  8
LAYER_1
 62
7
100
AcDbPolyline
 90
2
 70
0
 10
17.874700
 20
2.861300
 30
0.0
 10
19.598200
 20
2.861300
 30
0.0
  0
LWPOLYLINE
  5
42b
100
AcDbEntity
  8
LAYER_1
 62
7
100
AcDbPolyline
 90
2
 70
0
 10
17.874700
 20
2.034400
 30
0.0
 10
17.874700
 20
2.861300
 30
0.0
  0
LWPOLYLINE
  5
42c
100
AcDbEntity
  8
LAYER_1
 62
7
100
AcDbPolyline
 90
2
 70
0
 10
15.306600
 20
-6.148000
 30
0.0
 10
12.361600
 20
-6.148000
 30
0.0
  0
LWPOLYLINE
  5
42d
100
AcDbEntity
  8
LAYER_1
 62
7
100
AcDbPolyline
 90
2
 70
0
 10
15.306600
 20
-3.066100
 30
0.0
 10
15.306600
 20
-6.148000
 30
0.0
  0
LWPOLYLINE
  5
42e
100
AcDbEntity
  8
LAYER_1
 62
7
100
AcDbPolyline
 90
2
 70
0
 10
12.361600
 20
-3.066100
 30
0.0
 10
15.306600
 20
-3.066100
 30
0.0
  0
LWPOLYLINE
  5
42f
100
AcDbEntity
  8
LAYER_1
 62
7
100
AcDbPolyline
 90
2
 70
0
 10
12.361600
 20
-6.148000
 30
0.0
 10
12.361600
 20
-3.066100
 30
0.0
  0
LWPOLYLINE
  5
430
100
AcDbEntity
  8
LAYER_1
 62
7
100
AcDbPolyline
 90
2
 70
0
 10
7.873700
 20
-2.136800
 30
0.0
 10
6.150100
 20
-2.136800
 30
0.0
  0
LWPOLYLINE
  5
431
100
AcDbEntity
  8
LAYER_1
 62
7
100
AcDbPolyline
 90
2
 70
0
 10
7.873700
 20
-1.309900
 30
0.0
 10
7.873700
 20
-2.136800
 30
0.0
  0
LWPOLYLINE
  5
432
100
AcDbEntity
  8
LAYER_1
 62
7
100
AcDbPolyline
 90
2
 70
0
 10
6.150100
 20
-1.309900
 30
0.0
 10
7.873700
 20
-1.309900
 30
0.0
  0
LWPOLYLINE
  5
433
100
AcDbEntity
  8
LAYER_1
 62
7
100
AcDbPolyline
 90
2
 70
0
 10
6.150100
 20
-2.136800
 30
0.0
 10
6.150100
 20
-1.309900
 30
0.0
  0
LWPOLYLINE
  5
434
100
AcDbEntity
  8
LAYER_1
 62
7
100
AcDbPolyline
 90
2
 70
0
 10
4.722200
 20
-3.935100
 30
0.0
 10
4.722200
 20
-2.219200
 30
0.0
  0
LWPOLYLINE
  5
435
100
AcDbEntity
  8
LAYER_1
 62
7
100
AcDbPolyline
 90
2
 70
0
 10
5.552800
 20
-3.935100
 30
0.0
 10
4.722200
 20
-3.935100
 30
0.0
  0
LWPOLYLINE
  5
436
100
AcDbEntity
  8
LAYER_1
 62
7
100
AcDbPolyline
 90
2
 70
0
 10
5.552800
 20
-2.219200
 30
0.0
 10
5.552800
 20
-3.935100
 30
0.0
  0
LWPOLYLINE
  5
437
100
AcDbEntity
  8
LAYER_1
 62
7
100
AcDbPolyline
 90
2
 70
0
 10
4.722200
 20
-2.219200
 30
0.0
 10
5.552800
 20
-2.219200
 30
0.0
  0
LWPOLYLINE
  5
438
100
AcDbEntity
  8
LAYER_1
 62
7
100
AcDbPolyline
 90
2
 70
0
 10
15.785100
 20
-5.691400
 30
0.0
 10
15.785100
 20
-3.975500
 30
0.0
  0
LWPOLYLINE
  5
439
100
AcDbEntity
  8
LAYER_1
 62
7
100
AcDbPolyline
 90
2
 70
0
 10
16.615800
 20
-5.691400
 30
0.0
 10
15.785100
 20
-5.691400
 30
0.0
  0
LWPOLYLINE
  5
43a
100
AcDbEntity
  8
LAYER_1
 62
7
100
AcDbPolyline
 90
2
 70
0
 10
16.615800
 20
-3.975500
 30
0.0
 10
16.615800
 20
-5.691400
 30
0.0
  0
LWPOLYLINE
  5
43b
100
AcDbEntity
  8
LAYER_1
 62
7
100
AcDbPolyline
 90
2
 70
0
 10
15.785100
 20
-3.975500
 30
0.0
 10
16.615800
 20
-3.975500
 30
0.0
  0
LWPOLYLINE
  5
43c
100
AcDbEntity
  8
LAYER_1
 62
7
100
AcDbPolyline
 90
2
 70
0
 10
26.076200
 20
-2.252000
 30
0.0
 10
26.076200
 20
-0.536100
 30
0.0
  0
LWPOLYLINE
  5
43d
100
AcDbEntity
  8
LAYER_1
 62
7
100
AcDbPolyline
 90
2
 70
0
 10
26.906900
 20
-2.252000
 30
0.0
 10
26.076200
 20
-2.252000
 30
0.0
  0
LWPOLYLINE
  5
43e
100
AcDbEntity
  8
LAYER_1
 62
7
100
AcDbPolyline
 90
2
 70
0
 10
26.906900
 20
-0.536100
 30
0.0
 10
26.906900
 20
-2.252000
 30
0.0
  0
LWPOLYLINE
  5
43f
100
AcDbEntity
  8
LAYER_1
 62
7
100
AcDbPolyline
 90
2
 70
0
 10
26.076200
 20
-0.536100
 30
0.0
 10
26.906900
 20
-0.536100
 30
0.0
  0
LWPOLYLINE
  5
440
100
AcDbEntity
  8
LAYER_1
 62
7
100
AcDbPolyline
 90
2
 70
0
 10
20.038600
 20
4.448600
 30
0.0
 10
16.836800
 20
4.448600
 30
0.0
  0
LWPOLYLINE
  5
441
100
AcDbEntity
  8
LAYER_1
 62
7
100
AcDbPolyline
 90
2
 70
0
 10
20.038600
 20
5.985900
 30
0.0
 10
20.038600
 20
4.448600
 30
0.0
  0
LWPOLYLINE
  5
442
100
AcDbEntity
  8
LAYER_1
 62
7
100
AcDbPolyline
 90
2
 70
0
 10
16.836800
 20
5.985900
 30
0.0
 10
20.038600
 20
5.985900
 30
0.0
  0
LWPOLYLINE
  5
443
100
AcDbEntity
  8
LAYER_1
 62
7
100
AcDbPolyline
 90
2
 70
0
 10
16.836800
 20
4.448600
 30
0.0
 10
16.836800
 20
5.985900
 30
0.0
  0
LWPOLYLINE
  5
444
100
AcDbEntity
  8
LAYER_1
 62
7
100
AcDbPolyline
 90
2
 70
0
 10
-28.924300
 20
30.131200
 30
0.0
 10
-26.452100
 20
30.631300
 30
0.0
  0
LWPOLYLINE
  5
445
100
AcDbEntity
  8
LAYER_1
 62
7
100
AcDbPolyline
 90
2
 70
0
 10
-30.948800
 20
28.769400
 30
0.0
 10
-28.924300
 20
30.131200
 30
0.0
  0
LWPOLYLINE
  5
446
100
AcDbEntity
  8
LAYER_1
 62
7
100
AcDbPolyline
 90
2
 70
0
 10
-32.316700
 20
26.753900
 30
0.0
 10
-30.948800
 20
28.769400
 30
0.0
  0
LWPOLYLINE
  5
447
100
AcDbEntity
  8
LAYER_1
 62
7
100
AcDbPolyline
 90
2
 70
0
 10
-32.819000
 20
24.292800
 30
0.0
 10
-32.316700
 20
26.753900
 30
0.0
  0
LWPOLYLINE
  5
448
100
AcDbEntity
  8
LAYER_1
 62
7
100
AcDbPolyline
 90
2
 70
0
 10
-32.819000
 20
-20.575900
 30
0.0
 10
-32.819000
 20
24.292800
 30
0.0
  0
LWPOLYLINE
  5
449
100
AcDbEntity
  8
LAYER_1
 62
7
100
AcDbPolyline
 90
2
 70
0
 10
-32.336100
 20
-22.941700
 30
0.0
 10
-32.819000
 20
-20.575900
 30
0.0
  0
LWPOLYLINE
  5
44a
100
AcDbEntity
  8
LAYER_1
 62
7
100
AcDbPolyline
 90
2
 70
0
 10
-31.021300
 20
-24.879000
 30
0.0
 10
-32.336100
 20
-22.941700
 30
0.0
  0
LWPOLYLINE
  5
44b
100
AcDbEntity
  8
LAYER_1
 62
7
100
AcDbPolyline
 90
2
 70
0
 10
-29.075300
 20
-26.187900
 30
0.0
 10
-31.021300
 20
-24.879000
 30
0.0
  0
LWPOLYLINE
  5
44c
100
AcDbEntity
  8
LAYER_1
 62
7
100
AcDbPolyline
 90
2
 70
0
 10
-26.698900
 20
-26.668700
 30
0.0
 10
-29.075300
 20
-26.187900
 30
0.0
  0
LWPOLYLINE
  5
44d
100
AcDbEntity
  8
LAYER_1
 62
7
100
AcDbPolyline
 90
2
 70
0
 10
27.908000
 20
-26.668700
 30
0.0
 10
-26.698900
 20
-26.668700
 30
0.0
  0
LWPOLYLINE
  5
44e
100
AcDbEntity
  8
LAYER_1
 62
7
100
AcDbPolyline
 90
2
 70
0
 10
29.060200
 20
-26.603900
 30
0.0
 10
27.908000
 20
-26.668700
 30
0.0
  0
LWPOLYLINE
  5
44f
100
AcDbEntity
  8
LAYER_1
 62
7
100
AcDbPolyline
 90
2
 70
0
 10
29.702500
 20
-26.409500
 30
0.0
 10
29.060200
 20
-26.603900
 30
0.0
  0
LWPOLYLINE
  5
450
100
AcDbEntity
  8
LAYER_1
 62
7
100
AcDbPolyline
 90
2
 70
0
 10
29.735900
 20
-25.961100
 30
0.0
 10
29.702500
 20
-26.409500
 30
0.0
  0
LWPOLYLINE
  5
451
100
AcDbEntity
  8
LAYER_1
 62
7
100
AcDbPolyline
 90
2
 70
0
 10
29.061000
 20
-25.134400
 30
0.0
 10
29.735900
 20
-25.961100
 30
0.0
  0
LWPOLYLINE
  5
452
100
AcDbEntity
  8
LAYER_1
 62
7
100
AcDbPolyline
 90
2
 70
0
 10
28.693800
 20
-24.582300
 30
0.0
 10
29.061000
 20
-25.134400
 30
0.0
  0
LWPOLYLINE
  5
453
100
AcDbEntity
  8
LAYER_1
 62
7
100
AcDbPolyline
 90
2
 70
0
 10
28.571400
 20
-23.952700
 30
0.0
 10
28.693800
 20
-24.582300
 30
0.0
  0
LWPOLYLINE
  5
454
100
AcDbEntity
  8
LAYER_1
 62
7
100
AcDbPolyline
 90
2
 70
0
 10
28.693800
 20
-23.323000
 30
0.0
 10
28.571400
 20
-23.952700
 30
0.0
  0
LWPOLYLINE
  5
455
100
AcDbEntity
  8
LAYER_1
 62
7
100
AcDbPolyline
 90
2
 70
0
 10
29.061000
 20
-22.770900
 30
0.0
 10
28.693800
 20
-23.323000
 30
0.0
  0
LWPOLYLINE
  5
456
100
AcDbEntity
  8
LAYER_1
 62
7
100
AcDbPolyline
 90
9
 70
0
 10
29.061000
 20
-22.770900
 30
0.0
 10
29.061000
 20
-22.770900
 30
0.0
 10
29.061000
 20
-22.770900
 30
0.0
 10
29.061000
 20
-22.770900
 30
0.0
 10
29.061000
 20
-22.770900
 30
0.0
 10
29.061000
 20
-22.770900
 30
0.0
 10
29.061000
 20
-22.770900
 30
0.0
 10
29.061000
 20
-22.770900
 30
0.0
 10
29.061000
 20
-22.770900
 30
0.0
  0
LWPOLYLINE
  5
457
100
AcDbEntity
  8
LAYER_1
 62
7
100
AcDbPolyline
 90
2
 70
0
 10
29.615600
 20
-22.405300
 30
0.0
 10
29.061000
 20
-22.770900
 30
0.0
  0
LWPOLYLINE
  5
458
100
AcDbEntity
  8
LAYER_1
 62
7
100
AcDbPolyline
 90
2
 70
0
 10
30.248100
 20
-22.283500
 30
0.0
 10
29.615600
 20
-22.405300
 30
0.0
  0
LWPOLYLINE
  5
459
100
AcDbEntity
  8
LAYER_1
 62
7
100
AcDbPolyline
 90
2
 70
0
 10
30.880600
 20
-22.405300
 30
0.0
 10
30.248100
 20
-22.283500
 30
0.0
  0
LWPOLYLINE
  5
45a
100
AcDbEntity
  8
LAYER_1
 62
7
100
AcDbPolyline
 90
2
 70
0
 10
31.435100
 20
-22.770900
 30
0.0
 10
30.880600
 20
-22.405300
 30
0.0
  0
LWPOLYLINE
  5
45b
100
AcDbEntity
  8
LAYER_1
 62
7
100
AcDbPolyline
 90
2
 70
0
 10
32.257900
 20
-23.590300
 30
0.0
 10
31.435100
 20
-22.770900
 30
0.0
  0
LWPOLYLINE
  5
45c
100
AcDbEntity
  8
LAYER_1
 62
7
100
AcDbPolyline
 90
2
 70
0
 10
32.815600
 20
-24.004900
 30
0.0
 10
32.257900
 20
-23.590300
 30
0.0
  0
LWPOLYLINE
  5
45d
100
AcDbEntity
  8
LAYER_1
 62
7
100
AcDbPolyline
 90
2
 70
0
 10
33.251700
 20
-23.945400
 30
0.0
 10
32.815600
 20
-24.004900
 30
0.0
  0
LWPOLYLINE
  5
45e
100
AcDbEntity
  8
LAYER_1
 62
7
100
AcDbPolyline
 90
2
 70
0
 10
33.709500
 20
-23.342400
 30
0.0
 10
33.251700
 20
-23.945400
 30
0.0
  0
LWPOLYLINE
  5
45f
100
AcDbEntity
  8
LAYER_1
 62
7
100
AcDbPolyline
 90
2
 70
0
 10
33.995400
 20
-22.699300
 30
0.0
 10
33.709500
 20
-23.342400
 30
0.0
  0
LWPOLYLINE
  5
460
100
AcDbEntity
  8
LAYER_1
 62
7
100
AcDbPolyline
 90
2
 70
0
 10
34.206200
 20
-22.020300
 30
0.0
 10
33.995400
 20
-22.699300
 30
0.0
  0
LWPOLYLINE
  5
461
100
AcDbEntity
  8
LAYER_1
 62
7
100
AcDbPolyline
 90
2
 70
0
 10
34.336500
 20
-21.310800
 30
0.0
 10
34.206200
 20
-22.020300
 30
0.0
  0
LWPOLYLINE
  5
462
100
AcDbEntity
  8
LAYER_1
 62
7
100
AcDbPolyline
 90
2
 70
0
 10
34.381000
 20
-20.575900
 30
0.0
 10
34.336500
 20
-21.310800
 30
0.0
  0
LWPOLYLINE
  5
463
100
AcDbEntity
  8
LAYER_1
 62
7
100
AcDbPolyline
 90
2
 70
0
 10
34.381000
 20
24.538600
 30
0.0
 10
34.381000
 20
-20.575900
 30
0.0
  0
LWPOLYLINE
  5
464
100
AcDbEntity
  8
LAYER_1
 62
7
100
AcDbPolyline
 90
2
 70
0
 10
34.338800
 20
25.253400
 30
0.0
 10
34.381000
 20
24.538600
 30
0.0
  0
LWPOLYLINE
  5
465
100
AcDbEntity
  8
LAYER_1
 62
7
100
AcDbPolyline
 90
2
 70
0
 10
34.215300
 20
25.944400
 30
0.0
 10
34.338800
 20
25.253400
 30
0.0
  0
LWPOLYLINE
  5
466
100
AcDbEntity
  8
LAYER_1
 62
7
100
AcDbPolyline
 90
2
 70
0
 10
34.015500
 20
26.606800
 30
0.0
 10
34.215300
 20
25.944400
 30
0.0
  0
LWPOLYLINE
  5
467
100
AcDbEntity
  8
LAYER_1
 62
7
100
AcDbPolyline
 90
2
 70
0
 10
33.744200
 20
27.235800
 30
0.0
 10
34.015500
 20
26.606800
 30
0.0
  0
LWPOLYLINE
  5
468
100
AcDbEntity
  8
LAYER_1
 62
7
100
AcDbPolyline
 90
2
 70
0
 10
33.272800
 20
27.883100
 30
0.0
 10
33.744200
 20
27.235800
 30
0.0
  0
LWPOLYLINE
  5
469
100
AcDbEntity
  8
LAYER_1
 62
7
100
AcDbPolyline
 90
2
 70
0
 10
32.831300
 20
27.965300
 30
0.0
 10
33.272800
 20
27.883100
 30
0.0
  0
LWPOLYLINE
  5
46a
100
AcDbEntity
  8
LAYER_1
 62
7
100
AcDbPolyline
 90
2
 70
0
 10
32.269000
 20
27.555100
 30
0.0
 10
32.831300
 20
27.965300
 30
0.0
  0
LWPOLYLINE
  5
46b
100
AcDbEntity
  8
LAYER_1
 62
7
100
AcDbPolyline
 90
2
 70
0
 10
31.435100
 20
26.725300
 30
0.0
 10
32.269000
 20
27.555100
 30
0.0
  0
LWPOLYLINE
  5
46c
100
AcDbEntity
  8
LAYER_1
 62
7
100
AcDbPolyline
 90
2
 70
0
 10
30.880600
 20
26.359800
 30
0.0
 10
31.435100
 20
26.725300
 30
0.0
  0
LWPOLYLINE
  5
46d
100
AcDbEntity
  8
LAYER_1
 62
7
100
AcDbPolyline
 90
2
 70
0
 10
30.248100
 20
26.237900
 30
0.0
 10
30.880600
 20
26.359800
 30
0.0
  0
LWPOLYLINE
  5
46e
100
AcDbEntity
  8
LAYER_1
 62
7
100
AcDbPolyline
 90
2
 70
0
 10
29.615600
 20
26.359700
 30
0.0
 10
30.248100
 20
26.237900
 30
0.0
  0
LWPOLYLINE
  5
46f
100
AcDbEntity
  8
LAYER_1
 62
7
100
AcDbPolyline
 90
2
 70
0
 10
29.061000
 20
26.725300
 30
0.0
 10
29.615600
 20
26.359700
 30
0.0
  0
LWPOLYLINE
  5
470
100
AcDbEntity
  8
LAYER_1
 62
7
100
AcDbPolyline
 90
9
 70
0
 10
29.061000
 20
26.725300
 30
0.0
 10
29.061000
 20
26.725300
 30
0.0
 10
29.061000
 20
26.725300
 30
0.0
 10
29.061000
 20
26.725300
 30
0.0
 10
29.061000
 20
26.725300
 30
0.0
 10
29.061000
 20
26.725300
 30
0.0
 10
29.061000
 20
26.725300
 30
0.0
 10
29.061000
 20
26.725300
 30
0.0
 10
29.061000
 20
26.725300
 30
0.0
  0
LWPOLYLINE
  5
471
100
AcDbEntity
  8
LAYER_1
 62
7
100
AcDbPolyline
 90
2
 70
0
 10
28.693800
 20
27.277400
 30
0.0
 10
29.061000
 20
26.725300
 30
0.0
  0
LWPOLYLINE
  5
472
100
AcDbEntity
  8
LAYER_1
 62
7
100
AcDbPolyline
 90
2
 70
0
 10
28.571400
 20
27.907100
 30
0.0
 10
28.693800
 20
27.277400
 30
0.0
  0
LWPOLYLINE
  5
473
100
AcDbEntity
  8
LAYER_1
 62
7
100
AcDbPolyline
 90
2
 70
0
 10
28.693800
 20
28.536700
 30
0.0
 10
28.571400
 20
27.907100
 30
0.0
  0
LWPOLYLINE
  5
474
100
AcDbEntity
  8
LAYER_1
 62
7
100
AcDbPolyline
 90
2
 70
0
 10
29.061000
 20
29.088800
 30
0.0
 10
28.693800
 20
28.536700
 30
0.0
  0
LWPOLYLINE
  5
475
100
AcDbEntity
  8
LAYER_1
 62
7
100
AcDbPolyline
 90
2
 70
0
 10
29.750000
 20
29.945400
 30
0.0
 10
29.061000
 20
29.088800
 30
0.0
  0
LWPOLYLINE
  5
476
100
AcDbEntity
  8
LAYER_1
 62
7
100
AcDbPolyline
 90
2
 70
0
 10
29.664700
 20
30.392300
 30
0.0
 10
29.750000
 20
29.945400
 30
0.0
  0
LWPOLYLINE
  5
477
100
AcDbEntity
  8
LAYER_1
 62
7
100
AcDbPolyline
 90
2
 70
0
 10
28.919600
 20
30.573000
 30
0.0
 10
29.664700
 20
30.392300
 30
0.0
  0
LWPOLYLINE
  5
478
100
AcDbEntity
  8
LAYER_1
 62
7
100
AcDbPolyline
 90
2
 70
0
 10
27.629300
 20
30.631300
 30
0.0
 10
28.919600
 20
30.573000
 30
0.0
  0
LWPOLYLINE
  5
479
100
AcDbEntity
  8
LAYER_1
 62
7
100
AcDbPolyline
 90
2
 70
0
 10
-26.452100
 20
30.631300
 30
0.0
 10
27.629300
 20
30.631300
 30
0.0
  0
ENDSEC
  0
SECTION
  2
OBJECTS
  0
DICTIONARY
  5
C
330
0
100
AcDbDictionary
  3
ACAD_GROUP
350
D
  3
ACAD_MLINESTYLE
350
17
  0
DICTIONARY
  5
D
330
C
100
AcDbDictionary
  0
DICTIONARY
  5
1A
330
C
100
AcDbDictionary
  0
DICTIONARY
  5
17
330
C
100
AcDbDictionary
  3
STANDARD
350
18
  0
DICTIONARY
  5
19
330
C
100
AcDbDictionary
  0
ENDSEC
  0
EOF
